ISO-10303-21;
HEADER;
/* Generated by software containing ST-Developer
 * from STEP Tools, Inc. (www.steptools.com) 
 */
/* OPTION: using custom renumber hook */

FILE_DESCRIPTION(
/* description */ ('STEP AP242 Edition 2',
'CAx-IF Rec.Pracs.---Representation and Presentation of Product Manufa
cturing Information (PMI)---4.0---2014-10-13',
'CAx-IF Rec.Pracs.---3D Tessellated Geometry---0.4---2014-09-14','2;1',
'CAx-IF Rec.Pracs.---User Defined Attributes---1.5---2016-08-15'),
/* implementation_level */ '2;1');

FILE_NAME(
/* name */ 'Part Studio 1 - prueba',
/* time_stamp */ '2026-09-04T20:35:48Z',
/* author */ (''),
/* organization */ (''),
/* preprocessor_version */ 'ST-DEVELOPER v20',
/* originating_system */ 'ONSHAPE BY PTC INC, 1.220',
/* authorisation */ '  ');

FILE_SCHEMA (('AP242_MANAGED_MODEL_BASED_3D_ENGINEERING_MIM_LF { 1 0 10303 442 3 1 4 }'));
ENDSEC;

DATA;
#10=SHAPE_REPRESENTATION_RELATIONSHIP('','',#259,#11);
#11=ADVANCED_BREP_SHAPE_REPRESENTATION('',(#257),#423);
#12=ELLIPSE('',#272,0.0141421356237309,0.01);
#13=ELLIPSE('',#273,0.0141421356237309,0.01);
#14=ELLIPSE('',#275,0.0141421356237309,0.01);
#15=ELLIPSE('',#277,0.0141421356237309,0.01);
#16=CYLINDRICAL_SURFACE('',#271,0.01);
#17=CYLINDRICAL_SURFACE('',#274,0.01);
#18=CYLINDRICAL_SURFACE('',#276,0.01);
#19=CYLINDRICAL_SURFACE('',#278,0.01);
#20=SPHERICAL_SURFACE('',#270,0.015);
#21=CIRCLE('',#262,0.015);
#22=CIRCLE('',#264,0.015);
#23=ORIENTED_EDGE('',*,*,#87,.T.);
#24=ORIENTED_EDGE('',*,*,#88,.T.);
#25=ORIENTED_EDGE('',*,*,#89,.F.);
#26=ORIENTED_EDGE('',*,*,#90,.T.);
#27=ORIENTED_EDGE('',*,*,#91,.F.);
#28=ORIENTED_EDGE('',*,*,#92,.T.);
#29=ORIENTED_EDGE('',*,*,#93,.F.);
#30=ORIENTED_EDGE('',*,*,#94,.T.);
#31=ORIENTED_EDGE('',*,*,#93,.T.);
#32=ORIENTED_EDGE('',*,*,#95,.T.);
#33=ORIENTED_EDGE('',*,*,#96,.F.);
#34=ORIENTED_EDGE('',*,*,#97,.T.);
#35=ORIENTED_EDGE('',*,*,#96,.T.);
#36=ORIENTED_EDGE('',*,*,#98,.T.);
#37=ORIENTED_EDGE('',*,*,#99,.F.);
#38=ORIENTED_EDGE('',*,*,#100,.T.);
#39=ORIENTED_EDGE('',*,*,#99,.T.);
#40=ORIENTED_EDGE('',*,*,#101,.T.);
#41=ORIENTED_EDGE('',*,*,#87,.F.);
#42=ORIENTED_EDGE('',*,*,#102,.T.);
#43=ORIENTED_EDGE('',*,*,#103,.T.);
#44=ORIENTED_EDGE('',*,*,#104,.T.);
#45=ORIENTED_EDGE('',*,*,#105,.T.);
#46=ORIENTED_EDGE('',*,*,#106,.T.);
#47=ORIENTED_EDGE('',*,*,#107,.T.);
#48=ORIENTED_EDGE('',*,*,#108,.T.);
#49=ORIENTED_EDGE('',*,*,#109,.T.);
#50=ORIENTED_EDGE('',*,*,#110,.T.);
#51=ORIENTED_EDGE('',*,*,#89,.T.);
#52=ORIENTED_EDGE('',*,*,#91,.T.);
#53=ORIENTED_EDGE('',*,*,#111,.F.);
#54=ORIENTED_EDGE('',*,*,#103,.F.);
#55=ORIENTED_EDGE('',*,*,#112,.F.);
#56=ORIENTED_EDGE('',*,*,#97,.F.);
#57=ORIENTED_EDGE('',*,*,#112,.T.);
#58=ORIENTED_EDGE('',*,*,#106,.F.);
#59=ORIENTED_EDGE('',*,*,#113,.F.);
#60=ORIENTED_EDGE('',*,*,#90,.F.);
#61=ORIENTED_EDGE('',*,*,#94,.F.);
#62=ORIENTED_EDGE('',*,*,#111,.T.);
#63=ORIENTED_EDGE('',*,*,#100,.F.);
#64=ORIENTED_EDGE('',*,*,#114,.F.);
#65=ORIENTED_EDGE('',*,*,#104,.F.);
#66=ORIENTED_EDGE('',*,*,#113,.T.);
#67=ORIENTED_EDGE('',*,*,#105,.F.);
#68=ORIENTED_EDGE('',*,*,#114,.T.);
#69=ORIENTED_EDGE('',*,*,#102,.F.);
#70=ORIENTED_EDGE('',*,*,#115,.F.);
#71=ORIENTED_EDGE('',*,*,#95,.F.);
#72=ORIENTED_EDGE('',*,*,#116,.F.);
#73=ORIENTED_EDGE('',*,*,#110,.F.);
#74=ORIENTED_EDGE('',*,*,#92,.F.);
#75=ORIENTED_EDGE('',*,*,#88,.F.);
#76=ORIENTED_EDGE('',*,*,#117,.F.);
#77=ORIENTED_EDGE('',*,*,#107,.F.);
#78=ORIENTED_EDGE('',*,*,#116,.T.);
#79=ORIENTED_EDGE('',*,*,#115,.T.);
#80=ORIENTED_EDGE('',*,*,#109,.F.);
#81=ORIENTED_EDGE('',*,*,#118,.F.);
#82=ORIENTED_EDGE('',*,*,#98,.F.);
#83=ORIENTED_EDGE('',*,*,#117,.T.);
#84=ORIENTED_EDGE('',*,*,#101,.F.);
#85=ORIENTED_EDGE('',*,*,#118,.T.);
#86=ORIENTED_EDGE('',*,*,#108,.F.);
#87=EDGE_CURVE('',#119,#120,#137,.T.);
#88=EDGE_CURVE('',#120,#121,#138,.T.);
#89=EDGE_CURVE('',#122,#121,#21,.T.);
#90=EDGE_CURVE('',#122,#119,#139,.T.);
#91=EDGE_CURVE('',#121,#122,#22,.T.);
#92=EDGE_CURVE('',#121,#123,#140,.T.);
#93=EDGE_CURVE('',#124,#123,#141,.T.);
#94=EDGE_CURVE('',#124,#122,#142,.T.);
#95=EDGE_CURVE('',#123,#125,#143,.T.);
#96=EDGE_CURVE('',#126,#125,#144,.T.);
#97=EDGE_CURVE('',#126,#124,#145,.F.);
#98=EDGE_CURVE('',#125,#127,#146,.T.);
#99=EDGE_CURVE('',#128,#127,#147,.T.);
#100=EDGE_CURVE('',#128,#126,#148,.F.);
#101=EDGE_CURVE('',#127,#120,#149,.T.);
#102=EDGE_CURVE('',#119,#128,#150,.T.);
#103=EDGE_CURVE('',#129,#130,#151,.T.);
#104=EDGE_CURVE('',#130,#131,#152,.T.);
#105=EDGE_CURVE('',#131,#132,#153,.F.);
#106=EDGE_CURVE('',#132,#129,#154,.F.);
#107=EDGE_CURVE('',#133,#134,#155,.T.);
#108=EDGE_CURVE('',#134,#135,#156,.T.);
#109=EDGE_CURVE('',#135,#136,#157,.T.);
#110=EDGE_CURVE('',#136,#133,#158,.T.);
#111=EDGE_CURVE('',#130,#126,#12,.F.);
#112=EDGE_CURVE('',#124,#129,#13,.T.);
#113=EDGE_CURVE('',#119,#132,#14,.T.);
#114=EDGE_CURVE('',#131,#128,#15,.F.);
#115=EDGE_CURVE('',#125,#136,#159,.T.);
#116=EDGE_CURVE('',#133,#123,#160,.T.);
#117=EDGE_CURVE('',#134,#120,#161,.F.);
#118=EDGE_CURVE('',#127,#135,#162,.T.);
#119=VERTEX_POINT('',#358);
#120=VERTEX_POINT('',#359);
#121=VERTEX_POINT('',#361);
#122=VERTEX_POINT('',#363);
#123=VERTEX_POINT('',#368);
#124=VERTEX_POINT('',#370);
#125=VERTEX_POINT('',#374);
#126=VERTEX_POINT('',#376);
#127=VERTEX_POINT('',#380);
#128=VERTEX_POINT('',#382);
#129=VERTEX_POINT('',#389);
#130=VERTEX_POINT('',#390);
#131=VERTEX_POINT('',#392);
#132=VERTEX_POINT('',#394);
#133=VERTEX_POINT('',#398);
#134=VERTEX_POINT('',#399);
#135=VERTEX_POINT('',#401);
#136=VERTEX_POINT('',#403);
#137=LINE('',#357,#163);
#138=LINE('',#360,#164);
#139=LINE('',#364,#165);
#140=LINE('',#367,#166);
#141=LINE('',#369,#167);
#142=LINE('',#371,#168);
#143=LINE('',#373,#169);
#144=LINE('',#375,#170);
#145=LINE('',#377,#171);
#146=LINE('',#379,#172);
#147=LINE('',#381,#173);
#148=LINE('',#383,#174);
#149=LINE('',#385,#175);
#150=LINE('',#386,#176);
#151=LINE('',#388,#177);
#152=LINE('',#391,#178);
#153=LINE('',#393,#179);
#154=LINE('',#395,#180);
#155=LINE('',#397,#181);
#156=LINE('',#400,#182);
#157=LINE('',#402,#183);
#158=LINE('',#404,#184);
#159=LINE('',#415,#185);
#160=LINE('',#416,#186);
#161=LINE('',#418,#187);
#162=LINE('',#420,#188);
#163=VECTOR('',#287,1.);
#164=VECTOR('',#288,1.);
#165=VECTOR('',#291,1.);
#166=VECTOR('',#296,1.);
#167=VECTOR('',#297,1.);
#168=VECTOR('',#298,1.);
#169=VECTOR('',#301,1.);
#170=VECTOR('',#302,1.);
#171=VECTOR('',#303,1.);
#172=VECTOR('',#306,1.);
#173=VECTOR('',#307,1.);
#174=VECTOR('',#308,1.);
#175=VECTOR('',#311,1.);
#176=VECTOR('',#312,1.);
#177=VECTOR('',#315,1.);
#178=VECTOR('',#316,1.);
#179=VECTOR('',#317,1.);
#180=VECTOR('',#318,1.);
#181=VECTOR('',#321,1.);
#182=VECTOR('',#322,1.);
#183=VECTOR('',#323,1.);
#184=VECTOR('',#324,1.);
#185=VECTOR('',#345,1.);
#186=VECTOR('',#346,1.);
#187=VECTOR('',#349,1.);
#188=VECTOR('',#352,1.);
#189=EDGE_LOOP('',(#23,#24,#25,#26));
#190=EDGE_LOOP('',(#27,#28,#29,#30));
#191=EDGE_LOOP('',(#31,#32,#33,#34));
#192=EDGE_LOOP('',(#35,#36,#37,#38));
#193=EDGE_LOOP('',(#39,#40,#41,#42));
#194=EDGE_LOOP('',(#43,#44,#45,#46));
#195=EDGE_LOOP('',(#47,#48,#49,#50));
#196=EDGE_LOOP('',(#51,#52));
#197=EDGE_LOOP('',(#53,#54,#55,#56));
#198=EDGE_LOOP('',(#57,#58,#59,#60,#61));
#199=EDGE_LOOP('',(#62,#63,#64,#65));
#200=EDGE_LOOP('',(#66,#67,#68,#69));
#201=EDGE_LOOP('',(#70,#71,#72,#73));
#202=EDGE_LOOP('',(#74,#75,#76,#77,#78));
#203=EDGE_LOOP('',(#79,#80,#81,#82));
#204=EDGE_LOOP('',(#83,#84,#85,#86));
#205=FACE_BOUND('',#189,.T.);
#206=FACE_BOUND('',#190,.T.);
#207=FACE_BOUND('',#191,.T.);
#208=FACE_BOUND('',#192,.T.);
#209=FACE_BOUND('',#193,.T.);
#210=FACE_BOUND('',#194,.T.);
#211=FACE_BOUND('',#195,.T.);
#212=FACE_BOUND('',#196,.T.);
#213=FACE_BOUND('',#197,.T.);
#214=FACE_BOUND('',#198,.T.);
#215=FACE_BOUND('',#199,.T.);
#216=FACE_BOUND('',#200,.T.);
#217=FACE_BOUND('',#201,.T.);
#218=FACE_BOUND('',#202,.T.);
#219=FACE_BOUND('',#203,.T.);
#220=FACE_BOUND('',#204,.T.);
#221=PLANE('',#261);
#222=PLANE('',#263);
#223=PLANE('',#265);
#224=PLANE('',#266);
#225=PLANE('',#267);
#226=PLANE('',#268);
#227=PLANE('',#269);
#228=PLANE('',#279);
#229=PLANE('',#280);
#230=PLANE('',#281);
#231=PLANE('',#282);
#232=ADVANCED_FACE('',(#205),#221,.T.);
#233=ADVANCED_FACE('',(#206),#222,.T.);
#234=ADVANCED_FACE('',(#207),#223,.F.);
#235=ADVANCED_FACE('',(#208),#224,.F.);
#236=ADVANCED_FACE('',(#209),#225,.T.);
#237=ADVANCED_FACE('',(#210),#226,.T.);
#238=ADVANCED_FACE('',(#211),#227,.F.);
#239=ADVANCED_FACE('',(#212),#20,.T.);
#240=ADVANCED_FACE('',(#213),#16,.T.);
#241=ADVANCED_FACE('',(#214),#17,.T.);
#242=ADVANCED_FACE('',(#215),#18,.T.);
#243=ADVANCED_FACE('',(#216),#19,.T.);
#244=ADVANCED_FACE('',(#217),#228,.F.);
#245=ADVANCED_FACE('',(#218),#229,.T.);
#246=ADVANCED_FACE('',(#219),#230,.F.);
#247=ADVANCED_FACE('',(#220),#231,.T.);
#248=CLOSED_SHELL('',(#232,#233,#234,#235,#236,#237,#238,#239,#240,#241,
#242,#243,#244,#245,#246,#247));
#249=STYLED_ITEM('',(#250),#257);
#250=PRESENTATION_STYLE_ASSIGNMENT((#251));
#251=SURFACE_STYLE_USAGE(.BOTH.,#252);
#252=SURFACE_SIDE_STYLE('',(#253));
#253=SURFACE_STYLE_FILL_AREA(#254);
#254=FILL_AREA_STYLE('',(#255));
#255=FILL_AREA_STYLE_COLOUR('',#256);
#256=COLOUR_RGB('',0.615686274509804,0.811764705882353,0.929411764705882);
#257=MANIFOLD_SOLID_BREP('prueba',#248);
#258=SHAPE_DEFINITION_REPRESENTATION(#428,#259);
#259=SHAPE_REPRESENTATION('prueba',(#260),#423);
#260=AXIS2_PLACEMENT_3D('',#355,#283,#284);
#261=AXIS2_PLACEMENT_3D('',#356,#285,#286);
#262=AXIS2_PLACEMENT_3D('',#362,#289,#290);
#263=AXIS2_PLACEMENT_3D('',#365,#292,#293);
#264=AXIS2_PLACEMENT_3D('',#366,#294,#295);
#265=AXIS2_PLACEMENT_3D('',#372,#299,#300);
#266=AXIS2_PLACEMENT_3D('',#378,#304,#305);
#267=AXIS2_PLACEMENT_3D('',#384,#309,#310);
#268=AXIS2_PLACEMENT_3D('',#387,#313,#314);
#269=AXIS2_PLACEMENT_3D('',#396,#319,#320);
#270=AXIS2_PLACEMENT_3D('',#405,#325,#326);
#271=AXIS2_PLACEMENT_3D('',#406,#327,#328);
#272=AXIS2_PLACEMENT_3D('',#407,#329,#330);
#273=AXIS2_PLACEMENT_3D('',#408,#331,#332);
#274=AXIS2_PLACEMENT_3D('',#409,#333,#334);
#275=AXIS2_PLACEMENT_3D('',#410,#335,#336);
#276=AXIS2_PLACEMENT_3D('',#411,#337,#338);
#277=AXIS2_PLACEMENT_3D('',#412,#339,#340);
#278=AXIS2_PLACEMENT_3D('',#413,#341,#342);
#279=AXIS2_PLACEMENT_3D('',#414,#343,#344);
#280=AXIS2_PLACEMENT_3D('',#417,#347,#348);
#281=AXIS2_PLACEMENT_3D('',#419,#350,#351);
#282=AXIS2_PLACEMENT_3D('',#421,#353,#354);
#283=DIRECTION('',(0.,0.,1.));
#284=DIRECTION('',(1.,0.,0.));
#285=DIRECTION('',(0.707106781186548,0.,0.707106781186548));
#286=DIRECTION('',(0.707106781186548,0.,-0.707106781186548));
#287=DIRECTION('',(0.,1.,0.));
#288=DIRECTION('',(-0.707106781186548,0.,0.707106781186548));
#289=DIRECTION('',(0.707106781186548,0.,0.707106781186548));
#290=DIRECTION('',(0.707106781186548,0.,-0.707106781186548));
#291=DIRECTION('',(0.707106781186548,0.,-0.707106781186548));
#292=DIRECTION('',(0.707106781186548,0.,0.707106781186548));
#293=DIRECTION('',(0.707106781186548,0.,-0.707106781186548));
#294=DIRECTION('',(0.707106781186548,0.,0.707106781186548));
#295=DIRECTION('',(0.707106781186548,0.,-0.707106781186548));
#296=DIRECTION('',(-0.707106781186548,0.,0.707106781186548));
#297=DIRECTION('',(0.,1.,0.));
#298=DIRECTION('',(0.707106781186548,0.,-0.707106781186548));
#299=DIRECTION('',(0.707106781186548,0.,-0.707106781186548));
#300=DIRECTION('',(-0.707106781186548,0.,-0.707106781186548));
#301=DIRECTION('',(-0.707106781186548,0.,-0.707106781186548));
#302=DIRECTION('',(0.,1.,0.));
#303=DIRECTION('',(-0.707106781186548,0.,-0.707106781186548));
#304=DIRECTION('',(0.707106781186548,0.,0.707106781186548));
#305=DIRECTION('',(0.707106781186548,0.,-0.707106781186548));
#306=DIRECTION('',(0.707106781186548,0.,-0.707106781186548));
#307=DIRECTION('',(0.,1.,0.));
#308=DIRECTION('',(0.707106781186548,0.,-0.707106781186548));
#309=DIRECTION('',(0.707106781186548,0.,-0.707106781186548));
#310=DIRECTION('',(-0.707106781186548,0.,-0.707106781186548));
#311=DIRECTION('',(0.707106781186548,0.,0.707106781186548));
#312=DIRECTION('',(-0.707106781186548,0.,-0.707106781186548));
#313=DIRECTION('',(0.,-1.,0.));
#314=DIRECTION('',(1.,0.,0.));
#315=DIRECTION('',(-0.707106781186548,0.,-0.707106781186548));
#316=DIRECTION('',(0.707106781186548,0.,-0.707106781186548));
#317=DIRECTION('',(-0.707106781186548,0.,-0.707106781186548));
#318=DIRECTION('',(0.707106781186548,0.,-0.707106781186548));
#319=DIRECTION('',(0.,-1.,0.));
#320=DIRECTION('',(1.,0.,0.));
#321=DIRECTION('',(0.707106781186548,0.,-0.707106781186548));
#322=DIRECTION('',(-0.707106781186548,0.,-0.707106781186548));
#323=DIRECTION('',(-0.707106781186548,0.,0.707106781186548));
#324=DIRECTION('',(0.707106781186548,0.,0.707106781186548));
#325=DIRECTION('',(-0.707106781186548,0.,0.707106781186548));
#326=DIRECTION('',(-0.707106781186548,0.,-0.707106781186548));
#327=DIRECTION('',(0.707106781186548,0.,0.707106781186548));
#328=DIRECTION('',(0.707106781186548,0.,-0.707106781186548));
#329=DIRECTION('',(7.85046229341888E-17,0.,1.));
#330=DIRECTION('',(-1.,0.,7.85046229341887E-17));
#331=DIRECTION('',(1.,0.,-1.57009245868377E-16));
#332=DIRECTION('',(-1.57009245868377E-16,0.,-1.));
#333=DIRECTION('',(0.707106781186548,0.,-0.707106781186548));
#334=DIRECTION('',(-0.707106781186548,0.,-0.707106781186548));
#335=DIRECTION('',(-1.57009245868377E-16,0.,-1.));
#336=DIRECTION('',(1.,0.,-1.57009245868377E-16));
#337=DIRECTION('',(-0.707106781186548,0.,0.707106781186548));
#338=DIRECTION('',(0.707106781186548,0.,0.707106781186548));
#339=DIRECTION('',(-1.,0.,7.85046229341887E-17));
#340=DIRECTION('',(7.85046229341888E-17,0.,1.));
#341=DIRECTION('',(-0.707106781186548,0.,-0.707106781186548));
#342=DIRECTION('',(-0.707106781186548,0.,0.707106781186548));
#343=DIRECTION('',(0.5,-0.707106781186548,-0.5));
#344=DIRECTION('',(-0.707106781186548,0.,-0.707106781186548));
#345=DIRECTION('',(0.816496580927726,0.577350269189626,1.04160478845776E-16));
#346=DIRECTION('',(-6.40987562127855E-17,-0.577350269189626,0.816496580927726));
#347=DIRECTION('',(0.5,0.707106781186548,0.5));
#348=DIRECTION('',(-0.707106781186548,0.,0.707106781186548));
#349=DIRECTION('',(-0.816496580927726,0.577350269189626,1.88290096375057E-16));
#350=DIRECTION('',(0.5,-0.707106781186548,0.5));
#351=DIRECTION('',(0.707106781186548,0.,-0.707106781186548));
#352=DIRECTION('',(2.24345646744749E-16,0.577350269189626,0.816496580927726));
#353=DIRECTION('',(0.5,0.707106781186548,-0.5));
#354=DIRECTION('',(0.707106781186548,0.,0.707106781186548));
#355=CARTESIAN_POINT('',(0.,0.,0.));
#356=CARTESIAN_POINT('',(0.0318198051533947,-0.025,0.00353553390593272));
#357=CARTESIAN_POINT('',(0.0353553390593274,-0.025,6.93889390390723E-18));
#358=CARTESIAN_POINT('',(0.0353553390593274,-0.015,6.93889390390723E-18));
#359=CARTESIAN_POINT('',(0.0353553390593274,0.015,6.93889390390723E-18));
#360=CARTESIAN_POINT('',(-8.67361737988404E-18,0.015,0.0353553390593274));
#361=CARTESIAN_POINT('',(0.0176776695296637,0.015,0.0176776695296637));
#362=CARTESIAN_POINT('',(0.0176776695296637,0.,0.0176776695296637));
#363=CARTESIAN_POINT('',(0.0176776695296637,-0.015,0.0176776695296637));
#364=CARTESIAN_POINT('',(0.0318198051533947,-0.015,0.00353553390593272));
#365=CARTESIAN_POINT('',(0.0318198051533947,-0.025,0.00353553390593272));
#366=CARTESIAN_POINT('',(0.0176776695296637,0.,0.0176776695296637));
#367=CARTESIAN_POINT('',(-8.67361737988404E-18,0.015,0.0353553390593274));
#368=CARTESIAN_POINT('',(-1.7347234759768E-17,0.015,0.0353553390593274));
#369=CARTESIAN_POINT('',(-1.7347234759768E-17,-0.025,0.0353553390593274));
#370=CARTESIAN_POINT('',(-1.7347234759768E-17,-0.015,0.0353553390593274));
#371=CARTESIAN_POINT('',(0.0318198051533947,-0.015,0.00353553390593272));
#372=CARTESIAN_POINT('',(-0.0176776695296637,-0.025,0.0176776695296637));
#373=CARTESIAN_POINT('',(-0.0176776695296637,0.015,0.0176776695296637));
#374=CARTESIAN_POINT('',(-0.0353553390593274,0.015,0.));
#375=CARTESIAN_POINT('',(-0.0353553390593274,-0.025,0.));
#376=CARTESIAN_POINT('',(-0.0353553390593274,-0.015,0.));
#377=CARTESIAN_POINT('',(-2.96135820932351E-18,-0.015,0.0353553390593274));
#378=CARTESIAN_POINT('',(-0.0176776695296637,-0.025,-0.0176776695296637));
#379=CARTESIAN_POINT('',(-0.0176776695296637,0.015,-0.0176776695296637));
#380=CARTESIAN_POINT('',(1.7347234759768E-17,0.015,-0.0353553390593274));
#381=CARTESIAN_POINT('',(1.7347234759768E-17,-0.025,-0.0353553390593274));
#382=CARTESIAN_POINT('',(1.7347234759768E-17,-0.015,-0.0353553390593274));
#383=CARTESIAN_POINT('',(-0.0353553390593274,-0.015,1.23535215799241E-17));
#384=CARTESIAN_POINT('',(0.0176776695296637,-0.025,-0.0176776695296637));
#385=CARTESIAN_POINT('',(0.0353553390593274,0.015,7.37257477290143E-18));
#386=CARTESIAN_POINT('',(0.0176776695296637,-0.015,-0.0176776695296637));
#387=CARTESIAN_POINT('',(0.,-0.025,0.));
#388=CARTESIAN_POINT('',(-0.0282842712474619,-0.025,-0.00707106781186548));
#389=CARTESIAN_POINT('',(-1.78147717549125E-18,-0.025,0.0212132034355965));
#390=CARTESIAN_POINT('',(-0.0212132034355965,-0.025,6.86290274212839E-18));
#391=CARTESIAN_POINT('',(0.0070710678118655,-0.025,-0.0282842712474619));
#392=CARTESIAN_POINT('',(4.96447571757954E-18,-0.025,-0.0212132034355964));
#393=CARTESIAN_POINT('',(0.0106066017177982,-0.025,-0.0106066017177982));
#394=CARTESIAN_POINT('',(0.0212132034355965,-0.025,-8.01354631369624E-18));
#395=CARTESIAN_POINT('',(0.0106066017177982,-0.025,0.0106066017177982));
#396=CARTESIAN_POINT('',(0.,0.025,0.));
#397=CARTESIAN_POINT('',(0.0282842712474619,0.025,-0.00707106781186548));
#398=CARTESIAN_POINT('',(6.1916485912623E-18,0.025,0.0212132034355965));
#399=CARTESIAN_POINT('',(0.0212132034355965,0.025,-2.4936900136361E-18));
#400=CARTESIAN_POINT('',(-0.00707106781186547,0.025,-0.0282842712474619));
#401=CARTESIAN_POINT('',(9.87101465096633E-18,0.025,-0.0212132034355964));
#402=CARTESIAN_POINT('',(-0.0106066017177982,0.025,-0.0106066017177982));
#403=CARTESIAN_POINT('',(-0.0212132034355964,0.025,7.47622010880174E-18));
#404=CARTESIAN_POINT('',(-0.0106066017177982,0.025,0.0106066017177982));
#405=CARTESIAN_POINT('',(0.0176776695296637,0.,0.0176776695296637));
#406=CARTESIAN_POINT('',(-0.0106066017177982,-0.015,0.0106066017177982));
#407=CARTESIAN_POINT('',(-0.0212132034355965,-0.015,8.67361737988404E-18));
#408=CARTESIAN_POINT('',(-2.60208521396521E-18,-0.015,0.0212132034355965));
#409=CARTESIAN_POINT('',(0.0247487373415292,-0.015,-0.00353553390593275));
#410=CARTESIAN_POINT('',(0.0212132034355965,-0.015,-4.33680868994202E-18));
#411=CARTESIAN_POINT('',(-0.0106066017177982,-0.015,-0.0106066017177982));
#412=CARTESIAN_POINT('',(3.46944695195361E-18,-0.015,-0.0212132034355965));
#413=CARTESIAN_POINT('',(0.0106066017177982,-0.015,-0.0106066017177982));
#414=CARTESIAN_POINT('',(-0.0176776695296637,0.015,0.0176776695296637));
#415=CARTESIAN_POINT('',(-0.0235702260395516,0.0233333333333333,3.46944695195361E-18));
#416=CARTESIAN_POINT('',(3.46944695195361E-18,0.0233333333333333,0.0235702260395516));
#417=CARTESIAN_POINT('',(0.0106066017177982,0.025,0.0106066017177982));
#418=CARTESIAN_POINT('',(0.0141421356237309,0.03,1.7347234759768E-18));
#419=CARTESIAN_POINT('',(-0.0176776695296637,0.015,-0.0176776695296637));
#420=CARTESIAN_POINT('',(6.93889390390723E-18,0.0233333333333333,-0.0235702260395516));
#421=CARTESIAN_POINT('',(0.0106066017177982,0.025,-0.0106066017177982));
#422=MECHANICAL_DESIGN_GEOMETRIC_PRESENTATION_REPRESENTATION('',(#249),
#423);
#423=(
GEOMETRIC_REPRESENTATION_CONTEXT(3)
GLOBAL_UNCERTAINTY_ASSIGNED_CONTEXT((#424))
GLOBAL_UNIT_ASSIGNED_CONTEXT((#427,#426,#425))
REPRESENTATION_CONTEXT('prueba','TOP_LEVEL_ASSEMBLY_PART')
);
#424=UNCERTAINTY_MEASURE_WITH_UNIT(LENGTH_MEASURE(1.E-8),#427,
'DISTANCE_ACCURACY_VALUE','Maximum Tolerance applied to model');
#425=(
NAMED_UNIT(*)
SI_UNIT($,.STERADIAN.)
SOLID_ANGLE_UNIT()
);
#426=(
NAMED_UNIT(*)
PLANE_ANGLE_UNIT()
SI_UNIT($,.RADIAN.)
);
#427=(
LENGTH_UNIT()
NAMED_UNIT(*)
SI_UNIT($,.METRE.)
);
#428=PRODUCT_DEFINITION_SHAPE('','',#429);
#429=PRODUCT_DEFINITION('','',#431,#430);
#430=PRODUCT_DEFINITION_CONTEXT('',#437,'design');
#431=PRODUCT_DEFINITION_FORMATION_WITH_SPECIFIED_SOURCE('','',#433,
 .NOT_KNOWN.);
#432=PRODUCT_RELATED_PRODUCT_CATEGORY('','',(#433));
#433=PRODUCT('prueba','prueba','prueba',(#435));
#434=PRODUCT_CATEGORY('','');
#435=PRODUCT_CONTEXT('',#437,'mechanical');
#436=APPLICATION_PROTOCOL_DEFINITION('international standard',
'ap242_managed_model_based_3d_engineering',2020,#437);
#437=APPLICATION_CONTEXT('managed model based 3d engineering');
ENDSEC;
END-ISO-10303-21;
