ISO-10303-21;
HEADER;
/* Generated by software containing ST-Developer
 * from STEP Tools, Inc. (www.steptools.com) 
 */
/* OPTION: using custom renumber hook */

FILE_DESCRIPTION(
/* description */ ('STEP AP242 Edition 2',
'CAx-IF Rec.Pracs.---Representation and Presentation of Product Manufa
cturing Information (PMI)---4.0---2014-10-13',
'CAx-IF Rec.Pracs.---3D Tessellated Geometry---0.4---2014-09-14','2;1',
'CAx-IF Rec.Pracs.---User Defined Attributes---1.5---2016-08-15'),
/* implementation_level */ '2;1');

FILE_NAME(
/* name */ 'Part Studio 3 - Part 1',
/* time_stamp */ '2026-09-14T18:21:02Z',
/* author */ (''),
/* organization */ (''),
/* preprocessor_version */ 'ST-DEVELOPER v20',
/* originating_system */ 'ONSHAPE BY PTC INC, 1.220',
/* authorisation */ '  ');

FILE_SCHEMA (('AP242_MANAGED_MODEL_BASED_3D_ENGINEERING_MIM_LF { 1 0 10303 442 3 1 4 }'));
ENDSEC;

DATA;
#10=SHAPE_REPRESENTATION_RELATIONSHIP('','',#585,#11);
#11=ADVANCED_BREP_SHAPE_REPRESENTATION('',(#583),#983);
#12=CYLINDRICAL_SURFACE('',#591,0.008);
#13=CYLINDRICAL_SURFACE('',#593,0.005);
#14=CYLINDRICAL_SURFACE('',#606,0.0025);
#15=CYLINDRICAL_SURFACE('',#609,0.008);
#16=CYLINDRICAL_SURFACE('',#610,0.005);
#17=CYLINDRICAL_SURFACE('',#612,0.0025);
#18=CYLINDRICAL_SURFACE('',#621,0.008);
#19=CYLINDRICAL_SURFACE('',#622,0.005);
#20=CYLINDRICAL_SURFACE('',#627,0.0025);
#21=CYLINDRICAL_SURFACE('',#630,0.008);
#22=CYLINDRICAL_SURFACE('',#631,0.005);
#23=CYLINDRICAL_SURFACE('',#633,0.0025);
#24=CYLINDRICAL_SURFACE('',#638,0.008);
#25=CYLINDRICAL_SURFACE('',#643,0.005);
#26=LINE('',#828,#66);
#27=LINE('',#831,#67);
#28=LINE('',#833,#68);
#29=LINE('',#837,#69);
#30=LINE('',#839,#70);
#31=LINE('',#841,#71);
#32=LINE('',#843,#72);
#33=LINE('',#850,#73);
#34=LINE('',#853,#74);
#35=LINE('',#857,#75);
#36=LINE('',#864,#76);
#37=LINE('',#865,#77);
#38=LINE('',#867,#78);
#39=LINE('',#871,#79);
#40=LINE('',#875,#80);
#41=LINE('',#877,#81);
#42=LINE('',#879,#82);
#43=LINE('',#893,#83);
#44=LINE('',#894,#84);
#45=LINE('',#903,#85);
#46=LINE('',#905,#86);
#47=LINE('',#909,#87);
#48=LINE('',#912,#88);
#49=LINE('',#914,#89);
#50=LINE('',#918,#90);
#51=LINE('',#919,#91);
#52=LINE('',#921,#92);
#53=LINE('',#926,#93);
#54=LINE('',#929,#94);
#55=LINE('',#933,#95);
#56=LINE('',#941,#96);
#57=LINE('',#942,#97);
#58=LINE('',#951,#98);
#59=LINE('',#953,#99);
#60=LINE('',#959,#100);
#61=LINE('',#964,#101);
#62=LINE('',#975,#102);
#63=LINE('',#976,#103);
#64=LINE('',#978,#104);
#65=LINE('',#979,#105);
#66=VECTOR('',#658,1.);
#67=VECTOR('',#659,1.);
#68=VECTOR('',#660,1.);
#69=VECTOR('',#665,1.);
#70=VECTOR('',#666,1.);
#71=VECTOR('',#667,1.);
#72=VECTOR('',#670,1.);
#73=VECTOR('',#679,1.);
#74=VECTOR('',#680,1.);
#75=VECTOR('',#683,1.);
#76=VECTOR('',#690,1.);
#77=VECTOR('',#691,1.);
#78=VECTOR('',#692,1.);
#79=VECTOR('',#695,1.);
#80=VECTOR('',#698,1.);
#81=VECTOR('',#699,1.);
#82=VECTOR('',#700,1.);
#83=VECTOR('',#717,1.);
#84=VECTOR('',#718,1.);
#85=VECTOR('',#731,1.);
#86=VECTOR('',#734,1.);
#87=VECTOR('',#739,1.);
#88=VECTOR('',#740,1.);
#89=VECTOR('',#741,1.);
#90=VECTOR('',#746,1.);
#91=VECTOR('',#747,1.);
#92=VECTOR('',#750,1.);
#93=VECTOR('',#757,1.);
#94=VECTOR('',#758,1.);
#95=VECTOR('',#761,1.);
#96=VECTOR('',#772,1.);
#97=VECTOR('',#773,1.);
#98=VECTOR('',#786,1.);
#99=VECTOR('',#789,1.);
#100=VECTOR('',#796,1.);
#101=VECTOR('',#799,1.);
#102=VECTOR('',#814,1.);
#103=VECTOR('',#815,1.);
#104=VECTOR('',#818,1.);
#105=VECTOR('',#819,1.);
#106=ORIENTED_EDGE('',*,*,#246,.F.);
#107=ORIENTED_EDGE('',*,*,#247,.T.);
#108=ORIENTED_EDGE('',*,*,#248,.T.);
#109=ORIENTED_EDGE('',*,*,#249,.F.);
#110=ORIENTED_EDGE('',*,*,#250,.T.);
#111=ORIENTED_EDGE('',*,*,#249,.T.);
#112=ORIENTED_EDGE('',*,*,#251,.T.);
#113=ORIENTED_EDGE('',*,*,#252,.F.);
#114=ORIENTED_EDGE('',*,*,#253,.F.);
#115=ORIENTED_EDGE('',*,*,#254,.F.);
#116=ORIENTED_EDGE('',*,*,#250,.F.);
#117=ORIENTED_EDGE('',*,*,#253,.T.);
#118=ORIENTED_EDGE('',*,*,#255,.T.);
#119=ORIENTED_EDGE('',*,*,#256,.F.);
#120=ORIENTED_EDGE('',*,*,#246,.T.);
#121=ORIENTED_EDGE('',*,*,#257,.F.);
#122=ORIENTED_EDGE('',*,*,#258,.T.);
#123=ORIENTED_EDGE('',*,*,#259,.F.);
#124=ORIENTED_EDGE('',*,*,#260,.F.);
#125=ORIENTED_EDGE('',*,*,#261,.T.);
#126=ORIENTED_EDGE('',*,*,#262,.T.);
#127=ORIENTED_EDGE('',*,*,#263,.F.);
#128=ORIENTED_EDGE('',*,*,#255,.F.);
#129=ORIENTED_EDGE('',*,*,#252,.T.);
#130=ORIENTED_EDGE('',*,*,#264,.T.);
#131=ORIENTED_EDGE('',*,*,#265,.F.);
#132=ORIENTED_EDGE('',*,*,#266,.T.);
#133=ORIENTED_EDGE('',*,*,#267,.T.);
#134=ORIENTED_EDGE('',*,*,#268,.F.);
#135=ORIENTED_EDGE('',*,*,#269,.F.);
#136=ORIENTED_EDGE('',*,*,#270,.F.);
#137=ORIENTED_EDGE('',*,*,#271,.T.);
#138=ORIENTED_EDGE('',*,*,#272,.F.);
#139=ORIENTED_EDGE('',*,*,#273,.T.);
#140=ORIENTED_EDGE('',*,*,#274,.T.);
#141=ORIENTED_EDGE('',*,*,#275,.F.);
#142=ORIENTED_EDGE('',*,*,#276,.T.);
#143=ORIENTED_EDGE('',*,*,#273,.F.);
#144=ORIENTED_EDGE('',*,*,#276,.F.);
#145=ORIENTED_EDGE('',*,*,#256,.T.);
#146=ORIENTED_EDGE('',*,*,#277,.F.);
#147=ORIENTED_EDGE('',*,*,#259,.T.);
#148=ORIENTED_EDGE('',*,*,#278,.T.);
#149=ORIENTED_EDGE('',*,*,#262,.F.);
#150=ORIENTED_EDGE('',*,*,#279,.T.);
#151=ORIENTED_EDGE('',*,*,#261,.F.);
#152=ORIENTED_EDGE('',*,*,#280,.F.);
#153=ORIENTED_EDGE('',*,*,#272,.T.);
#154=ORIENTED_EDGE('',*,*,#279,.F.);
#155=ORIENTED_EDGE('',*,*,#280,.T.);
#156=ORIENTED_EDGE('',*,*,#263,.T.);
#157=ORIENTED_EDGE('',*,*,#278,.F.);
#158=ORIENTED_EDGE('',*,*,#258,.F.);
#159=ORIENTED_EDGE('',*,*,#281,.T.);
#160=ORIENTED_EDGE('',*,*,#247,.F.);
#161=ORIENTED_EDGE('',*,*,#254,.T.);
#162=ORIENTED_EDGE('',*,*,#282,.F.);
#163=ORIENTED_EDGE('',*,*,#260,.T.);
#164=ORIENTED_EDGE('',*,*,#277,.T.);
#165=ORIENTED_EDGE('',*,*,#271,.F.);
#166=ORIENTED_EDGE('',*,*,#283,.T.);
#167=ORIENTED_EDGE('',*,*,#284,.T.);
#168=ORIENTED_EDGE('',*,*,#285,.T.);
#169=ORIENTED_EDGE('',*,*,#286,.F.);
#170=ORIENTED_EDGE('',*,*,#287,.F.);
#171=ORIENTED_EDGE('',*,*,#288,.F.);
#172=ORIENTED_EDGE('',*,*,#284,.F.);
#173=ORIENTED_EDGE('',*,*,#289,.T.);
#174=ORIENTED_EDGE('',*,*,#265,.T.);
#175=ORIENTED_EDGE('',*,*,#289,.F.);
#176=ORIENTED_EDGE('',*,*,#287,.T.);
#177=ORIENTED_EDGE('',*,*,#290,.T.);
#178=ORIENTED_EDGE('',*,*,#266,.F.);
#179=ORIENTED_EDGE('',*,*,#291,.T.);
#180=ORIENTED_EDGE('',*,*,#283,.F.);
#181=ORIENTED_EDGE('',*,*,#292,.F.);
#182=ORIENTED_EDGE('',*,*,#293,.T.);
#183=ORIENTED_EDGE('',*,*,#294,.T.);
#184=ORIENTED_EDGE('',*,*,#295,.F.);
#185=ORIENTED_EDGE('',*,*,#296,.F.);
#186=ORIENTED_EDGE('',*,*,#297,.F.);
#187=ORIENTED_EDGE('',*,*,#275,.T.);
#188=ORIENTED_EDGE('',*,*,#291,.F.);
#189=ORIENTED_EDGE('',*,*,#297,.T.);
#190=ORIENTED_EDGE('',*,*,#298,.F.);
#191=ORIENTED_EDGE('',*,*,#294,.F.);
#192=ORIENTED_EDGE('',*,*,#299,.T.);
#193=ORIENTED_EDGE('',*,*,#268,.T.);
#194=ORIENTED_EDGE('',*,*,#300,.F.);
#195=ORIENTED_EDGE('',*,*,#296,.T.);
#196=ORIENTED_EDGE('',*,*,#301,.T.);
#197=ORIENTED_EDGE('',*,*,#274,.F.);
#198=ORIENTED_EDGE('',*,*,#301,.F.);
#199=ORIENTED_EDGE('',*,*,#300,.T.);
#200=ORIENTED_EDGE('',*,*,#286,.T.);
#201=ORIENTED_EDGE('',*,*,#302,.F.);
#202=ORIENTED_EDGE('',*,*,#295,.T.);
#203=ORIENTED_EDGE('',*,*,#298,.T.);
#204=ORIENTED_EDGE('',*,*,#267,.F.);
#205=ORIENTED_EDGE('',*,*,#290,.F.);
#206=ORIENTED_EDGE('',*,*,#293,.F.);
#207=ORIENTED_EDGE('',*,*,#303,.T.);
#208=ORIENTED_EDGE('',*,*,#269,.T.);
#209=ORIENTED_EDGE('',*,*,#299,.F.);
#210=ORIENTED_EDGE('',*,*,#304,.T.);
#211=ORIENTED_EDGE('',*,*,#305,.F.);
#212=ORIENTED_EDGE('',*,*,#306,.F.);
#213=ORIENTED_EDGE('',*,*,#307,.T.);
#214=ORIENTED_EDGE('',*,*,#308,.T.);
#215=ORIENTED_EDGE('',*,*,#309,.F.);
#216=ORIENTED_EDGE('',*,*,#310,.T.);
#217=ORIENTED_EDGE('',*,*,#311,.F.);
#218=ORIENTED_EDGE('',*,*,#310,.F.);
#219=ORIENTED_EDGE('',*,*,#305,.T.);
#220=ORIENTED_EDGE('',*,*,#311,.T.);
#221=ORIENTED_EDGE('',*,*,#304,.F.);
#222=ORIENTED_EDGE('',*,*,#312,.T.);
#223=ORIENTED_EDGE('',*,*,#308,.F.);
#224=ORIENTED_EDGE('',*,*,#313,.F.);
#225=ORIENTED_EDGE('',*,*,#302,.T.);
#226=ORIENTED_EDGE('',*,*,#314,.F.);
#227=ORIENTED_EDGE('',*,*,#281,.F.);
#228=ORIENTED_EDGE('',*,*,#315,.T.);
#229=ORIENTED_EDGE('',*,*,#306,.T.);
#230=ORIENTED_EDGE('',*,*,#315,.F.);
#231=ORIENTED_EDGE('',*,*,#257,.T.);
#232=ORIENTED_EDGE('',*,*,#282,.T.);
#233=ORIENTED_EDGE('',*,*,#270,.T.);
#234=ORIENTED_EDGE('',*,*,#303,.F.);
#235=ORIENTED_EDGE('',*,*,#292,.T.);
#236=ORIENTED_EDGE('',*,*,#313,.T.);
#237=ORIENTED_EDGE('',*,*,#307,.F.);
#238=ORIENTED_EDGE('',*,*,#248,.F.);
#239=ORIENTED_EDGE('',*,*,#314,.T.);
#240=ORIENTED_EDGE('',*,*,#309,.T.);
#241=ORIENTED_EDGE('',*,*,#312,.F.);
#242=ORIENTED_EDGE('',*,*,#285,.F.);
#243=ORIENTED_EDGE('',*,*,#288,.T.);
#244=ORIENTED_EDGE('',*,*,#264,.F.);
#245=ORIENTED_EDGE('',*,*,#251,.F.);
#246=EDGE_CURVE('',#316,#316,#368,.T.);
#247=EDGE_CURVE('',#317,#318,#26,.T.);
#248=EDGE_CURVE('',#318,#319,#27,.T.);
#249=EDGE_CURVE('',#320,#319,#28,.T.);
#250=EDGE_CURVE('',#320,#317,#369,.T.);
#251=EDGE_CURVE('',#319,#321,#29,.T.);
#252=EDGE_CURVE('',#322,#321,#30,.T.);
#253=EDGE_CURVE('',#320,#322,#31,.T.);
#254=EDGE_CURVE('',#317,#323,#32,.T.);
#255=EDGE_CURVE('',#322,#323,#370,.T.);
#256=EDGE_CURVE('',#324,#324,#371,.T.);
#257=EDGE_CURVE('',#325,#326,#33,.T.);
#258=EDGE_CURVE('',#325,#327,#34,.T.);
#259=EDGE_CURVE('',#328,#327,#372,.T.);
#260=EDGE_CURVE('',#326,#328,#35,.T.);
#261=EDGE_CURVE('',#329,#329,#373,.T.);
#262=EDGE_CURVE('',#330,#331,#374,.T.);
#263=EDGE_CURVE('',#323,#331,#36,.T.);
#264=EDGE_CURVE('',#321,#332,#37,.T.);
#265=EDGE_CURVE('',#333,#332,#38,.T.);
#266=EDGE_CURVE('',#333,#334,#375,.T.);
#267=EDGE_CURVE('',#334,#335,#39,.T.);
#268=EDGE_CURVE('',#336,#335,#376,.T.);
#269=EDGE_CURVE('',#337,#336,#40,.T.);
#270=EDGE_CURVE('',#338,#337,#41,.T.);
#271=EDGE_CURVE('',#338,#330,#42,.T.);
#272=EDGE_CURVE('',#339,#339,#377,.T.);
#273=EDGE_CURVE('',#340,#340,#378,.T.);
#274=EDGE_CURVE('',#341,#341,#379,.T.);
#275=EDGE_CURVE('',#342,#342,#380,.T.);
#276=EDGE_CURVE('',#343,#343,#381,.T.);
#277=EDGE_CURVE('',#328,#330,#43,.T.);
#278=EDGE_CURVE('',#327,#331,#44,.T.);
#279=EDGE_CURVE('',#344,#344,#382,.T.);
#280=EDGE_CURVE('',#345,#345,#383,.T.);
#281=EDGE_CURVE('',#325,#318,#45,.T.);
#282=EDGE_CURVE('',#326,#338,#46,.T.);
#283=EDGE_CURVE('',#346,#346,#384,.T.);
#284=EDGE_CURVE('',#347,#348,#47,.T.);
#285=EDGE_CURVE('',#348,#349,#48,.T.);
#286=EDGE_CURVE('',#350,#349,#49,.T.);
#287=EDGE_CURVE('',#347,#350,#385,.T.);
#288=EDGE_CURVE('',#348,#332,#50,.T.);
#289=EDGE_CURVE('',#347,#333,#51,.T.);
#290=EDGE_CURVE('',#350,#334,#52,.T.);
#291=EDGE_CURVE('',#351,#351,#386,.T.);
#292=EDGE_CURVE('',#352,#353,#53,.T.);
#293=EDGE_CURVE('',#352,#354,#54,.T.);
#294=EDGE_CURVE('',#354,#355,#387,.T.);
#295=EDGE_CURVE('',#353,#355,#55,.T.);
#296=EDGE_CURVE('',#356,#356,#388,.T.);
#297=EDGE_CURVE('',#357,#357,#389,.T.);
#298=EDGE_CURVE('',#355,#335,#56,.T.);
#299=EDGE_CURVE('',#354,#336,#57,.T.);
#300=EDGE_CURVE('',#358,#358,#390,.T.);
#301=EDGE_CURVE('',#359,#359,#391,.T.);
#302=EDGE_CURVE('',#353,#349,#58,.T.);
#303=EDGE_CURVE('',#352,#337,#59,.T.);
#304=EDGE_CURVE('',#360,#360,#392,.T.);
#305=EDGE_CURVE('',#361,#361,#393,.T.);
#306=EDGE_CURVE('',#362,#363,#60,.T.);
#307=EDGE_CURVE('',#362,#364,#394,.T.);
#308=EDGE_CURVE('',#364,#365,#61,.T.);
#309=EDGE_CURVE('',#363,#365,#395,.T.);
#310=EDGE_CURVE('',#366,#366,#396,.T.);
#311=EDGE_CURVE('',#367,#367,#397,.T.);
#312=EDGE_CURVE('',#349,#365,#62,.T.);
#313=EDGE_CURVE('',#353,#364,#63,.T.);
#314=EDGE_CURVE('',#318,#363,#64,.T.);
#315=EDGE_CURVE('',#325,#362,#65,.T.);
#316=VERTEX_POINT('',#827);
#317=VERTEX_POINT('',#829);
#318=VERTEX_POINT('',#830);
#319=VERTEX_POINT('',#832);
#320=VERTEX_POINT('',#834);
#321=VERTEX_POINT('',#838);
#322=VERTEX_POINT('',#840);
#323=VERTEX_POINT('',#844);
#324=VERTEX_POINT('',#848);
#325=VERTEX_POINT('',#851);
#326=VERTEX_POINT('',#852);
#327=VERTEX_POINT('',#854);
#328=VERTEX_POINT('',#856);
#329=VERTEX_POINT('',#859);
#330=VERTEX_POINT('',#862);
#331=VERTEX_POINT('',#863);
#332=VERTEX_POINT('',#866);
#333=VERTEX_POINT('',#868);
#334=VERTEX_POINT('',#870);
#335=VERTEX_POINT('',#872);
#336=VERTEX_POINT('',#874);
#337=VERTEX_POINT('',#876);
#338=VERTEX_POINT('',#878);
#339=VERTEX_POINT('',#881);
#340=VERTEX_POINT('',#883);
#341=VERTEX_POINT('',#885);
#342=VERTEX_POINT('',#887);
#343=VERTEX_POINT('',#890);
#344=VERTEX_POINT('',#897);
#345=VERTEX_POINT('',#900);
#346=VERTEX_POINT('',#908);
#347=VERTEX_POINT('',#910);
#348=VERTEX_POINT('',#911);
#349=VERTEX_POINT('',#913);
#350=VERTEX_POINT('',#915);
#351=VERTEX_POINT('',#924);
#352=VERTEX_POINT('',#927);
#353=VERTEX_POINT('',#928);
#354=VERTEX_POINT('',#930);
#355=VERTEX_POINT('',#932);
#356=VERTEX_POINT('',#935);
#357=VERTEX_POINT('',#938);
#358=VERTEX_POINT('',#945);
#359=VERTEX_POINT('',#948);
#360=VERTEX_POINT('',#956);
#361=VERTEX_POINT('',#958);
#362=VERTEX_POINT('',#960);
#363=VERTEX_POINT('',#961);
#364=VERTEX_POINT('',#963);
#365=VERTEX_POINT('',#965);
#366=VERTEX_POINT('',#969);
#367=VERTEX_POINT('',#971);
#368=CIRCLE('',#588,0.005);
#369=CIRCLE('',#589,0.008);
#370=CIRCLE('',#592,0.008);
#371=CIRCLE('',#594,0.005);
#372=CIRCLE('',#596,0.008);
#373=CIRCLE('',#597,0.005);
#374=CIRCLE('',#599,0.008);
#375=CIRCLE('',#600,0.008);
#376=CIRCLE('',#601,0.008);
#377=CIRCLE('',#602,0.0025);
#378=CIRCLE('',#603,0.0025);
#379=CIRCLE('',#604,0.0025);
#380=CIRCLE('',#605,0.0025);
#381=CIRCLE('',#607,0.0025);
#382=CIRCLE('',#611,0.005);
#383=CIRCLE('',#613,0.0025);
#384=CIRCLE('',#618,0.005);
#385=CIRCLE('',#619,0.008);
#386=CIRCLE('',#623,0.005);
#387=CIRCLE('',#625,0.008);
#388=CIRCLE('',#626,0.005);
#389=CIRCLE('',#628,0.0025);
#390=CIRCLE('',#632,0.005);
#391=CIRCLE('',#634,0.0025);
#392=CIRCLE('',#639,0.008);
#393=CIRCLE('',#640,0.008);
#394=CIRCLE('',#641,0.008);
#395=CIRCLE('',#642,0.008);
#396=CIRCLE('',#644,0.005);
#397=CIRCLE('',#645,0.005);
#398=EDGE_LOOP('',(#106));
#399=EDGE_LOOP('',(#107,#108,#109,#110));
#400=EDGE_LOOP('',(#111,#112,#113,#114));
#401=EDGE_LOOP('',(#115,#116,#117,#118));
#402=EDGE_LOOP('',(#119));
#403=EDGE_LOOP('',(#120));
#404=EDGE_LOOP('',(#121,#122,#123,#124));
#405=EDGE_LOOP('',(#125));
#406=EDGE_LOOP('',(#126,#127,#128,#129,#130,#131,#132,#133,#134,#135,#136,
#137));
#407=EDGE_LOOP('',(#138));
#408=EDGE_LOOP('',(#139));
#409=EDGE_LOOP('',(#140));
#410=EDGE_LOOP('',(#141));
#411=EDGE_LOOP('',(#142));
#412=EDGE_LOOP('',(#143));
#413=EDGE_LOOP('',(#144));
#414=EDGE_LOOP('',(#145));
#415=EDGE_LOOP('',(#146,#147,#148,#149));
#416=EDGE_LOOP('',(#150));
#417=EDGE_LOOP('',(#151));
#418=EDGE_LOOP('',(#152));
#419=EDGE_LOOP('',(#153));
#420=EDGE_LOOP('',(#154));
#421=EDGE_LOOP('',(#155));
#422=EDGE_LOOP('',(#156,#157,#158,#159,#160,#161));
#423=EDGE_LOOP('',(#162,#163,#164,#165));
#424=EDGE_LOOP('',(#166));
#425=EDGE_LOOP('',(#167,#168,#169,#170));
#426=EDGE_LOOP('',(#171,#172,#173,#174));
#427=EDGE_LOOP('',(#175,#176,#177,#178));
#428=EDGE_LOOP('',(#179));
#429=EDGE_LOOP('',(#180));
#430=EDGE_LOOP('',(#181,#182,#183,#184));
#431=EDGE_LOOP('',(#185));
#432=EDGE_LOOP('',(#186));
#433=EDGE_LOOP('',(#187));
#434=EDGE_LOOP('',(#188));
#435=EDGE_LOOP('',(#189));
#436=EDGE_LOOP('',(#190,#191,#192,#193));
#437=EDGE_LOOP('',(#194));
#438=EDGE_LOOP('',(#195));
#439=EDGE_LOOP('',(#196));
#440=EDGE_LOOP('',(#197));
#441=EDGE_LOOP('',(#198));
#442=EDGE_LOOP('',(#199));
#443=EDGE_LOOP('',(#200,#201,#202,#203,#204,#205));
#444=EDGE_LOOP('',(#206,#207,#208,#209));
#445=EDGE_LOOP('',(#210));
#446=EDGE_LOOP('',(#211));
#447=EDGE_LOOP('',(#212,#213,#214,#215));
#448=EDGE_LOOP('',(#216));
#449=EDGE_LOOP('',(#217));
#450=EDGE_LOOP('',(#218));
#451=EDGE_LOOP('',(#219));
#452=EDGE_LOOP('',(#220));
#453=EDGE_LOOP('',(#221));
#454=EDGE_LOOP('',(#222,#223,#224,#225));
#455=EDGE_LOOP('',(#226,#227,#228,#229));
#456=EDGE_LOOP('',(#230,#231,#232,#233,#234,#235,#236,#237));
#457=EDGE_LOOP('',(#238,#239,#240,#241,#242,#243,#244,#245));
#458=FACE_BOUND('',#398,.T.);
#459=FACE_BOUND('',#399,.T.);
#460=FACE_BOUND('',#400,.T.);
#461=FACE_BOUND('',#401,.T.);
#462=FACE_BOUND('',#402,.T.);
#463=FACE_BOUND('',#403,.T.);
#464=FACE_BOUND('',#404,.T.);
#465=FACE_BOUND('',#405,.T.);
#466=FACE_BOUND('',#406,.T.);
#467=FACE_BOUND('',#407,.T.);
#468=FACE_BOUND('',#408,.T.);
#469=FACE_BOUND('',#409,.T.);
#470=FACE_BOUND('',#410,.T.);
#471=FACE_BOUND('',#411,.T.);
#472=FACE_BOUND('',#412,.T.);
#473=FACE_BOUND('',#413,.T.);
#474=FACE_BOUND('',#414,.T.);
#475=FACE_BOUND('',#415,.T.);
#476=FACE_BOUND('',#416,.T.);
#477=FACE_BOUND('',#417,.T.);
#478=FACE_BOUND('',#418,.T.);
#479=FACE_BOUND('',#419,.T.);
#480=FACE_BOUND('',#420,.T.);
#481=FACE_BOUND('',#421,.T.);
#482=FACE_BOUND('',#422,.T.);
#483=FACE_BOUND('',#423,.T.);
#484=FACE_BOUND('',#424,.T.);
#485=FACE_BOUND('',#425,.T.);
#486=FACE_BOUND('',#426,.T.);
#487=FACE_BOUND('',#427,.T.);
#488=FACE_BOUND('',#428,.T.);
#489=FACE_BOUND('',#429,.T.);
#490=FACE_BOUND('',#430,.T.);
#491=FACE_BOUND('',#431,.T.);
#492=FACE_BOUND('',#432,.T.);
#493=FACE_BOUND('',#433,.T.);
#494=FACE_BOUND('',#434,.T.);
#495=FACE_BOUND('',#435,.T.);
#496=FACE_BOUND('',#436,.T.);
#497=FACE_BOUND('',#437,.T.);
#498=FACE_BOUND('',#438,.T.);
#499=FACE_BOUND('',#439,.T.);
#500=FACE_BOUND('',#440,.T.);
#501=FACE_BOUND('',#441,.T.);
#502=FACE_BOUND('',#442,.T.);
#503=FACE_BOUND('',#443,.T.);
#504=FACE_BOUND('',#444,.T.);
#505=FACE_BOUND('',#445,.T.);
#506=FACE_BOUND('',#446,.T.);
#507=FACE_BOUND('',#447,.T.);
#508=FACE_BOUND('',#448,.T.);
#509=FACE_BOUND('',#449,.T.);
#510=FACE_BOUND('',#450,.T.);
#511=FACE_BOUND('',#451,.T.);
#512=FACE_BOUND('',#452,.T.);
#513=FACE_BOUND('',#453,.T.);
#514=FACE_BOUND('',#454,.T.);
#515=FACE_BOUND('',#455,.T.);
#516=FACE_BOUND('',#456,.T.);
#517=FACE_BOUND('',#457,.T.);
#518=PLANE('',#587);
#519=PLANE('',#590);
#520=PLANE('',#595);
#521=PLANE('',#598);
#522=PLANE('',#608);
#523=PLANE('',#614);
#524=PLANE('',#615);
#525=PLANE('',#616);
#526=PLANE('',#617);
#527=PLANE('',#620);
#528=PLANE('',#624);
#529=PLANE('',#629);
#530=PLANE('',#635);
#531=PLANE('',#636);
#532=PLANE('',#637);
#533=PLANE('',#646);
#534=PLANE('',#647);
#535=PLANE('',#648);
#536=PLANE('',#649);
#537=PLANE('',#650);
#538=PLANE('',#651);
#539=ADVANCED_FACE('',(#458,#459),#518,.T.);
#540=ADVANCED_FACE('',(#460),#519,.T.);
#541=ADVANCED_FACE('',(#461),#12,.T.);
#542=ADVANCED_FACE('',(#462,#463),#13,.F.);
#543=ADVANCED_FACE('',(#464,#465),#520,.T.);
#544=ADVANCED_FACE('',(#466,#467,#468,#469,#470),#521,.F.);
#545=ADVANCED_FACE('',(#471,#472),#14,.F.);
#546=ADVANCED_FACE('',(#473,#474),#522,.T.);
#547=ADVANCED_FACE('',(#475),#15,.T.);
#548=ADVANCED_FACE('',(#476,#477),#16,.F.);
#549=ADVANCED_FACE('',(#478,#479),#17,.F.);
#550=ADVANCED_FACE('',(#480,#481),#523,.T.);
#551=ADVANCED_FACE('',(#482),#524,.F.);
#552=ADVANCED_FACE('',(#483),#525,.T.);
#553=ADVANCED_FACE('',(#484,#485),#526,.T.);
#554=ADVANCED_FACE('',(#486),#527,.F.);
#555=ADVANCED_FACE('',(#487),#18,.T.);
#556=ADVANCED_FACE('',(#488,#489),#19,.F.);
#557=ADVANCED_FACE('',(#490,#491),#528,.T.);
#558=ADVANCED_FACE('',(#492,#493),#20,.F.);
#559=ADVANCED_FACE('',(#494,#495),#529,.T.);
#560=ADVANCED_FACE('',(#496),#21,.T.);
#561=ADVANCED_FACE('',(#497,#498),#22,.F.);
#562=ADVANCED_FACE('',(#499,#500),#23,.F.);
#563=ADVANCED_FACE('',(#501,#502),#530,.T.);
#564=ADVANCED_FACE('',(#503),#531,.T.);
#565=ADVANCED_FACE('',(#504),#532,.F.);
#566=ADVANCED_FACE('',(#505,#506,#507),#24,.T.);
#567=ADVANCED_FACE('',(#508,#509),#25,.F.);
#568=ADVANCED_FACE('',(#510,#511),#533,.T.);
#569=ADVANCED_FACE('',(#512,#513),#534,.F.);
#570=ADVANCED_FACE('',(#514),#535,.F.);
#571=ADVANCED_FACE('',(#515),#536,.T.);
#572=ADVANCED_FACE('',(#516),#537,.T.);
#573=ADVANCED_FACE('',(#517),#538,.F.);
#574=CLOSED_SHELL('',(#539,#540,#541,#542,#543,#544,#545,#546,#547,#548,
#549,#550,#551,#552,#553,#554,#555,#556,#557,#558,#559,#560,#561,#562,#563,
#564,#565,#566,#567,#568,#569,#570,#571,#572,#573));
#575=STYLED_ITEM('',(#576),#583);
#576=PRESENTATION_STYLE_ASSIGNMENT((#577));
#577=SURFACE_STYLE_USAGE(.BOTH.,#578);
#578=SURFACE_SIDE_STYLE('',(#579));
#579=SURFACE_STYLE_FILL_AREA(#580);
#580=FILL_AREA_STYLE('',(#581));
#581=FILL_AREA_STYLE_COLOUR('',#582);
#582=COLOUR_RGB('',0.615686274509804,0.811764705882353,0.929411764705882);
#583=MANIFOLD_SOLID_BREP('Part 1',#574);
#584=SHAPE_DEFINITION_REPRESENTATION(#988,#585);
#585=SHAPE_REPRESENTATION('Part 1',(#586),#983);
#586=AXIS2_PLACEMENT_3D('',#824,#652,#653);
#587=AXIS2_PLACEMENT_3D('',#825,#654,#655);
#588=AXIS2_PLACEMENT_3D('',#826,#656,#657);
#589=AXIS2_PLACEMENT_3D('',#835,#661,#662);
#590=AXIS2_PLACEMENT_3D('',#836,#663,#664);
#591=AXIS2_PLACEMENT_3D('',#842,#668,#669);
#592=AXIS2_PLACEMENT_3D('',#845,#671,#672);
#593=AXIS2_PLACEMENT_3D('',#846,#673,#674);
#594=AXIS2_PLACEMENT_3D('',#847,#675,#676);
#595=AXIS2_PLACEMENT_3D('',#849,#677,#678);
#596=AXIS2_PLACEMENT_3D('',#855,#681,#682);
#597=AXIS2_PLACEMENT_3D('',#858,#684,#685);
#598=AXIS2_PLACEMENT_3D('',#860,#686,#687);
#599=AXIS2_PLACEMENT_3D('',#861,#688,#689);
#600=AXIS2_PLACEMENT_3D('',#869,#693,#694);
#601=AXIS2_PLACEMENT_3D('',#873,#696,#697);
#602=AXIS2_PLACEMENT_3D('',#880,#701,#702);
#603=AXIS2_PLACEMENT_3D('',#882,#703,#704);
#604=AXIS2_PLACEMENT_3D('',#884,#705,#706);
#605=AXIS2_PLACEMENT_3D('',#886,#707,#708);
#606=AXIS2_PLACEMENT_3D('',#888,#709,#710);
#607=AXIS2_PLACEMENT_3D('',#889,#711,#712);
#608=AXIS2_PLACEMENT_3D('',#891,#713,#714);
#609=AXIS2_PLACEMENT_3D('',#892,#715,#716);
#610=AXIS2_PLACEMENT_3D('',#895,#719,#720);
#611=AXIS2_PLACEMENT_3D('',#896,#721,#722);
#612=AXIS2_PLACEMENT_3D('',#898,#723,#724);
#613=AXIS2_PLACEMENT_3D('',#899,#725,#726);
#614=AXIS2_PLACEMENT_3D('',#901,#727,#728);
#615=AXIS2_PLACEMENT_3D('',#902,#729,#730);
#616=AXIS2_PLACEMENT_3D('',#904,#732,#733);
#617=AXIS2_PLACEMENT_3D('',#906,#735,#736);
#618=AXIS2_PLACEMENT_3D('',#907,#737,#738);
#619=AXIS2_PLACEMENT_3D('',#916,#742,#743);
#620=AXIS2_PLACEMENT_3D('',#917,#744,#745);
#621=AXIS2_PLACEMENT_3D('',#920,#748,#749);
#622=AXIS2_PLACEMENT_3D('',#922,#751,#752);
#623=AXIS2_PLACEMENT_3D('',#923,#753,#754);
#624=AXIS2_PLACEMENT_3D('',#925,#755,#756);
#625=AXIS2_PLACEMENT_3D('',#931,#759,#760);
#626=AXIS2_PLACEMENT_3D('',#934,#762,#763);
#627=AXIS2_PLACEMENT_3D('',#936,#764,#765);
#628=AXIS2_PLACEMENT_3D('',#937,#766,#767);
#629=AXIS2_PLACEMENT_3D('',#939,#768,#769);
#630=AXIS2_PLACEMENT_3D('',#940,#770,#771);
#631=AXIS2_PLACEMENT_3D('',#943,#774,#775);
#632=AXIS2_PLACEMENT_3D('',#944,#776,#777);
#633=AXIS2_PLACEMENT_3D('',#946,#778,#779);
#634=AXIS2_PLACEMENT_3D('',#947,#780,#781);
#635=AXIS2_PLACEMENT_3D('',#949,#782,#783);
#636=AXIS2_PLACEMENT_3D('',#950,#784,#785);
#637=AXIS2_PLACEMENT_3D('',#952,#787,#788);
#638=AXIS2_PLACEMENT_3D('',#954,#790,#791);
#639=AXIS2_PLACEMENT_3D('',#955,#792,#793);
#640=AXIS2_PLACEMENT_3D('',#957,#794,#795);
#641=AXIS2_PLACEMENT_3D('',#962,#797,#798);
#642=AXIS2_PLACEMENT_3D('',#966,#800,#801);
#643=AXIS2_PLACEMENT_3D('',#967,#802,#803);
#644=AXIS2_PLACEMENT_3D('',#968,#804,#805);
#645=AXIS2_PLACEMENT_3D('',#970,#806,#807);
#646=AXIS2_PLACEMENT_3D('',#972,#808,#809);
#647=AXIS2_PLACEMENT_3D('',#973,#810,#811);
#648=AXIS2_PLACEMENT_3D('',#974,#812,#813);
#649=AXIS2_PLACEMENT_3D('',#977,#816,#817);
#650=AXIS2_PLACEMENT_3D('',#980,#820,#821);
#651=AXIS2_PLACEMENT_3D('',#981,#822,#823);
#652=DIRECTION('',(0.,0.,1.));
#653=DIRECTION('',(1.,0.,0.));
#654=DIRECTION('',(0.,0.,1.));
#655=DIRECTION('',(1.,0.,0.));
#656=DIRECTION('',(0.,0.,1.));
#657=DIRECTION('',(1.,0.,0.));
#658=DIRECTION('',(2.31296463463574E-16,-1.,0.));
#659=DIRECTION('',(1.,0.,0.));
#660=DIRECTION('',(1.15648231731787E-16,-1.,0.));
#661=DIRECTION('',(0.,0.,1.));
#662=DIRECTION('',(1.,0.,0.));
#663=DIRECTION('',(1.,1.15648231731787E-16,0.));
#664=DIRECTION('',(-1.15648231731787E-16,1.,0.));
#665=DIRECTION('',(0.,0.,-1.));
#666=DIRECTION('',(1.15648231731787E-16,-1.,0.));
#667=DIRECTION('',(0.,0.,-1.));
#668=DIRECTION('',(0.,0.,-1.));
#669=DIRECTION('',(-1.,0.,0.));
#670=DIRECTION('',(0.,0.,-1.));
#671=DIRECTION('',(0.,0.,1.));
#672=DIRECTION('',(1.,0.,0.));
#673=DIRECTION('',(0.,0.,-1.));
#674=DIRECTION('',(-1.,0.,0.));
#675=DIRECTION('',(0.,0.,1.));
#676=DIRECTION('',(1.,0.,0.));
#677=DIRECTION('',(0.,0.,1.));
#678=DIRECTION('',(1.,0.,0.));
#679=DIRECTION('',(1.,0.,0.));
#680=DIRECTION('',(2.31296463463574E-16,-1.,0.));
#681=DIRECTION('',(0.,0.,-1.));
#682=DIRECTION('',(1.,0.,0.));
#683=DIRECTION('',(1.15648231731787E-16,-1.,0.));
#684=DIRECTION('',(0.,0.,-1.));
#685=DIRECTION('',(1.,0.,0.));
#686=DIRECTION('',(0.,0.,1.));
#687=DIRECTION('',(1.,0.,0.));
#688=DIRECTION('',(0.,0.,-1.));
#689=DIRECTION('',(1.,0.,0.));
#690=DIRECTION('',(2.31296463463574E-16,-1.,0.));
#691=DIRECTION('',(1.,0.,0.));
#692=DIRECTION('',(-1.15648231731787E-16,-1.,0.));
#693=DIRECTION('',(0.,0.,-1.));
#694=DIRECTION('',(1.,0.,0.));
#695=DIRECTION('',(-2.31296463463574E-16,-1.,0.));
#696=DIRECTION('',(0.,0.,1.));
#697=DIRECTION('',(1.,0.,0.));
#698=DIRECTION('',(-1.15648231731787E-16,-1.,0.));
#699=DIRECTION('',(1.,0.,0.));
#700=DIRECTION('',(1.15648231731787E-16,-1.,0.));
#701=DIRECTION('',(0.,0.,-1.));
#702=DIRECTION('',(1.,0.,0.));
#703=DIRECTION('',(0.,0.,1.));
#704=DIRECTION('',(1.,0.,0.));
#705=DIRECTION('',(0.,0.,1.));
#706=DIRECTION('',(1.,0.,0.));
#707=DIRECTION('',(0.,0.,-1.));
#708=DIRECTION('',(1.,0.,0.));
#709=DIRECTION('',(0.,0.,-1.));
#710=DIRECTION('',(-1.,0.,0.));
#711=DIRECTION('',(0.,0.,1.));
#712=DIRECTION('',(1.,0.,0.));
#713=DIRECTION('',(0.,0.,1.));
#714=DIRECTION('',(1.,0.,0.));
#715=DIRECTION('',(0.,0.,-1.));
#716=DIRECTION('',(-1.,0.,0.));
#717=DIRECTION('',(0.,0.,-1.));
#718=DIRECTION('',(0.,0.,-1.));
#719=DIRECTION('',(0.,0.,-1.));
#720=DIRECTION('',(-1.,0.,0.));
#721=DIRECTION('',(0.,0.,-1.));
#722=DIRECTION('',(1.,0.,0.));
#723=DIRECTION('',(0.,0.,-1.));
#724=DIRECTION('',(-1.,0.,0.));
#725=DIRECTION('',(0.,0.,-1.));
#726=DIRECTION('',(1.,0.,0.));
#727=DIRECTION('',(0.,0.,1.));
#728=DIRECTION('',(1.,0.,0.));
#729=DIRECTION('',(1.,2.31296463463574E-16,0.));
#730=DIRECTION('',(-2.31296463463574E-16,1.,0.));
#731=DIRECTION('',(0.,1.,0.));
#732=DIRECTION('',(1.,1.15648231731787E-16,0.));
#733=DIRECTION('',(-1.15648231731787E-16,1.,0.));
#734=DIRECTION('',(0.,0.,-1.));
#735=DIRECTION('',(0.,0.,1.));
#736=DIRECTION('',(1.,0.,0.));
#737=DIRECTION('',(0.,0.,-1.));
#738=DIRECTION('',(1.,0.,0.));
#739=DIRECTION('',(-1.15648231731787E-16,-1.,0.));
#740=DIRECTION('',(1.,0.,0.));
#741=DIRECTION('',(-2.31296463463574E-16,-1.,0.));
#742=DIRECTION('',(0.,0.,-1.));
#743=DIRECTION('',(1.,0.,0.));
#744=DIRECTION('',(1.,-1.15648231731787E-16,0.));
#745=DIRECTION('',(1.15648231731787E-16,1.,0.));
#746=DIRECTION('',(0.,0.,-1.));
#747=DIRECTION('',(0.,0.,-1.));
#748=DIRECTION('',(0.,0.,-1.));
#749=DIRECTION('',(-1.,0.,0.));
#750=DIRECTION('',(0.,0.,-1.));
#751=DIRECTION('',(0.,0.,-1.));
#752=DIRECTION('',(-1.,0.,0.));
#753=DIRECTION('',(0.,0.,-1.));
#754=DIRECTION('',(1.,0.,0.));
#755=DIRECTION('',(0.,0.,1.));
#756=DIRECTION('',(1.,0.,0.));
#757=DIRECTION('',(1.,0.,0.));
#758=DIRECTION('',(-1.15648231731787E-16,-1.,0.));
#759=DIRECTION('',(0.,0.,1.));
#760=DIRECTION('',(1.,0.,0.));
#761=DIRECTION('',(-2.31296463463574E-16,-1.,0.));
#762=DIRECTION('',(0.,0.,1.));
#763=DIRECTION('',(1.,0.,0.));
#764=DIRECTION('',(0.,0.,-1.));
#765=DIRECTION('',(-1.,0.,0.));
#766=DIRECTION('',(0.,0.,-1.));
#767=DIRECTION('',(1.,0.,0.));
#768=DIRECTION('',(0.,0.,1.));
#769=DIRECTION('',(1.,0.,0.));
#770=DIRECTION('',(0.,0.,-1.));
#771=DIRECTION('',(-1.,0.,0.));
#772=DIRECTION('',(0.,0.,-1.));
#773=DIRECTION('',(0.,0.,-1.));
#774=DIRECTION('',(0.,0.,-1.));
#775=DIRECTION('',(-1.,0.,0.));
#776=DIRECTION('',(0.,0.,1.));
#777=DIRECTION('',(1.,0.,0.));
#778=DIRECTION('',(0.,0.,-1.));
#779=DIRECTION('',(-1.,0.,0.));
#780=DIRECTION('',(0.,0.,1.));
#781=DIRECTION('',(1.,0.,0.));
#782=DIRECTION('',(0.,0.,1.));
#783=DIRECTION('',(1.,0.,0.));
#784=DIRECTION('',(1.,-2.31296463463574E-16,0.));
#785=DIRECTION('',(2.31296463463574E-16,1.,0.));
#786=DIRECTION('',(0.,1.,0.));
#787=DIRECTION('',(1.,-1.15648231731787E-16,0.));
#788=DIRECTION('',(1.15648231731787E-16,1.,0.));
#789=DIRECTION('',(0.,0.,-1.));
#790=DIRECTION('',(0.,1.,0.));
#791=DIRECTION('',(0.,0.,1.));
#792=DIRECTION('',(0.,-1.,0.));
#793=DIRECTION('',(0.,0.,-1.));
#794=DIRECTION('',(0.,-1.,0.));
#795=DIRECTION('',(0.,0.,-1.));
#796=DIRECTION('',(0.,1.,0.));
#797=DIRECTION('',(0.,-1.,0.));
#798=DIRECTION('',(0.,0.,-1.));
#799=DIRECTION('',(0.,1.,0.));
#800=DIRECTION('',(0.,-1.,0.));
#801=DIRECTION('',(0.,0.,-1.));
#802=DIRECTION('',(0.,1.,0.));
#803=DIRECTION('',(0.,0.,1.));
#804=DIRECTION('',(0.,-1.,0.));
#805=DIRECTION('',(0.,0.,-1.));
#806=DIRECTION('',(0.,-1.,0.));
#807=DIRECTION('',(0.,0.,-1.));
#808=DIRECTION('',(0.,-1.,0.));
#809=DIRECTION('',(1.,0.,0.));
#810=DIRECTION('',(0.,-1.,0.));
#811=DIRECTION('',(1.,0.,0.));
#812=DIRECTION('',(-0.602646282495236,0.,-0.79800843240825));
#813=DIRECTION('',(-0.79800843240825,0.,0.602646282495236));
#814=DIRECTION('',(-0.79800843240825,0.,0.602646282495236));
#815=DIRECTION('',(-0.79800843240825,0.,0.602646282495236));
#816=DIRECTION('',(-0.602646282495236,0.,0.79800843240825));
#817=DIRECTION('',(0.79800843240825,0.,0.602646282495236));
#818=DIRECTION('',(0.79800843240825,0.,0.602646282495236));
#819=DIRECTION('',(0.79800843240825,0.,0.602646282495236));
#820=DIRECTION('',(0.,-1.,0.));
#821=DIRECTION('',(1.,0.,0.));
#822=DIRECTION('',(0.,-1.,0.));
#823=DIRECTION('',(1.,0.,0.));
#824=CARTESIAN_POINT('',(0.,0.,0.));
#825=CARTESIAN_POINT('',(0.,0.,0.005));
#826=CARTESIAN_POINT('',(-0.045,0.03,0.005));
#827=CARTESIAN_POINT('',(-0.04,0.03,0.005));
#828=CARTESIAN_POINT('',(-0.053,0.,0.005));
#829=CARTESIAN_POINT('',(-0.053,0.03,0.005));
#830=CARTESIAN_POINT('',(-0.053,0.015,0.005));
#831=CARTESIAN_POINT('',(0.,0.015,0.005));
#832=CARTESIAN_POINT('',(-0.037,0.015,0.005));
#833=CARTESIAN_POINT('',(-0.037,0.,0.005));
#834=CARTESIAN_POINT('',(-0.037,0.03,0.005));
#835=CARTESIAN_POINT('',(-0.045,0.03,0.005));
#836=CARTESIAN_POINT('',(-0.037,0.,0.005));
#837=CARTESIAN_POINT('',(-0.037,0.015,0.005));
#838=CARTESIAN_POINT('',(-0.037,0.015,0.));
#839=CARTESIAN_POINT('',(-0.037,0.,0.));
#840=CARTESIAN_POINT('',(-0.037,0.03,0.));
#841=CARTESIAN_POINT('',(-0.037,0.03,0.005));
#842=CARTESIAN_POINT('',(-0.045,0.03,0.005));
#843=CARTESIAN_POINT('',(-0.053,0.03,0.005));
#844=CARTESIAN_POINT('',(-0.053,0.03,0.));
#845=CARTESIAN_POINT('',(-0.045,0.03,0.));
#846=CARTESIAN_POINT('',(-0.045,0.03,0.005));
#847=CARTESIAN_POINT('',(-0.045,0.03,0.003));
#848=CARTESIAN_POINT('',(-0.04,0.03,0.003));
#849=CARTESIAN_POINT('',(0.,0.,0.005));
#850=CARTESIAN_POINT('',(0.,-0.015,0.005));
#851=CARTESIAN_POINT('',(-0.053,-0.015,0.005));
#852=CARTESIAN_POINT('',(-0.037,-0.015,0.005));
#853=CARTESIAN_POINT('',(-0.053,0.,0.005));
#854=CARTESIAN_POINT('',(-0.053,-0.03,0.005));
#855=CARTESIAN_POINT('',(-0.045,-0.03,0.005));
#856=CARTESIAN_POINT('',(-0.037,-0.03,0.005));
#857=CARTESIAN_POINT('',(-0.037,0.,0.005));
#858=CARTESIAN_POINT('',(-0.045,-0.03,0.005));
#859=CARTESIAN_POINT('',(-0.04,-0.03,0.005));
#860=CARTESIAN_POINT('',(0.,0.,0.));
#861=CARTESIAN_POINT('',(-0.045,-0.03,0.));
#862=CARTESIAN_POINT('',(-0.037,-0.03,0.));
#863=CARTESIAN_POINT('',(-0.053,-0.03,0.));
#864=CARTESIAN_POINT('',(-0.053,0.,0.));
#865=CARTESIAN_POINT('',(0.,0.015,0.));
#866=CARTESIAN_POINT('',(0.037,0.015,0.));
#867=CARTESIAN_POINT('',(0.037,0.,0.));
#868=CARTESIAN_POINT('',(0.037,0.03,0.));
#869=CARTESIAN_POINT('',(0.045,0.03,0.));
#870=CARTESIAN_POINT('',(0.053,0.03,0.));
#871=CARTESIAN_POINT('',(0.053,0.,0.));
#872=CARTESIAN_POINT('',(0.053,-0.03,0.));
#873=CARTESIAN_POINT('',(0.045,-0.03,0.));
#874=CARTESIAN_POINT('',(0.037,-0.03,0.));
#875=CARTESIAN_POINT('',(0.037,0.,0.));
#876=CARTESIAN_POINT('',(0.037,-0.015,0.));
#877=CARTESIAN_POINT('',(0.,-0.015,0.));
#878=CARTESIAN_POINT('',(-0.037,-0.015,0.));
#879=CARTESIAN_POINT('',(-0.037,0.,0.));
#880=CARTESIAN_POINT('',(-0.045,-0.03,0.));
#881=CARTESIAN_POINT('',(-0.0425,-0.03,0.));
#882=CARTESIAN_POINT('',(-0.045,0.03,0.));
#883=CARTESIAN_POINT('',(-0.0425,0.03,0.));
#884=CARTESIAN_POINT('',(0.045,-0.03,0.));
#885=CARTESIAN_POINT('',(0.0475,-0.03,0.));
#886=CARTESIAN_POINT('',(0.045,0.03,0.));
#887=CARTESIAN_POINT('',(0.0475,0.03,0.));
#888=CARTESIAN_POINT('',(-0.045,0.03,0.003));
#889=CARTESIAN_POINT('',(-0.045,0.03,0.003));
#890=CARTESIAN_POINT('',(-0.0425,0.03,0.003));
#891=CARTESIAN_POINT('',(0.,0.,0.003));
#892=CARTESIAN_POINT('',(-0.045,-0.03,0.005));
#893=CARTESIAN_POINT('',(-0.037,-0.03,0.005));
#894=CARTESIAN_POINT('',(-0.053,-0.03,0.005));
#895=CARTESIAN_POINT('',(-0.045,-0.03,0.005));
#896=CARTESIAN_POINT('',(-0.045,-0.03,0.003));
#897=CARTESIAN_POINT('',(-0.04,-0.03,0.003));
#898=CARTESIAN_POINT('',(-0.045,-0.03,0.003));
#899=CARTESIAN_POINT('',(-0.045,-0.03,0.003));
#900=CARTESIAN_POINT('',(-0.0425,-0.03,0.003));
#901=CARTESIAN_POINT('',(0.,0.,0.003));
#902=CARTESIAN_POINT('',(-0.053,0.,0.005));
#903=CARTESIAN_POINT('',(-0.053,-0.015,0.005));
#904=CARTESIAN_POINT('',(-0.037,0.,0.005));
#905=CARTESIAN_POINT('',(-0.037,-0.015,0.005));
#906=CARTESIAN_POINT('',(0.,0.,0.005));
#907=CARTESIAN_POINT('',(0.045,0.03,0.005));
#908=CARTESIAN_POINT('',(0.05,0.03,0.005));
#909=CARTESIAN_POINT('',(0.037,0.,0.005));
#910=CARTESIAN_POINT('',(0.037,0.03,0.005));
#911=CARTESIAN_POINT('',(0.037,0.015,0.005));
#912=CARTESIAN_POINT('',(0.,0.015,0.005));
#913=CARTESIAN_POINT('',(0.053,0.015,0.005));
#914=CARTESIAN_POINT('',(0.053,0.,0.005));
#915=CARTESIAN_POINT('',(0.053,0.03,0.005));
#916=CARTESIAN_POINT('',(0.045,0.03,0.005));
#917=CARTESIAN_POINT('',(0.037,0.,0.005));
#918=CARTESIAN_POINT('',(0.037,0.015,0.005));
#919=CARTESIAN_POINT('',(0.037,0.03,0.005));
#920=CARTESIAN_POINT('',(0.045,0.03,0.005));
#921=CARTESIAN_POINT('',(0.053,0.03,0.005));
#922=CARTESIAN_POINT('',(0.045,0.03,0.005));
#923=CARTESIAN_POINT('',(0.045,0.03,0.003));
#924=CARTESIAN_POINT('',(0.05,0.03,0.003));
#925=CARTESIAN_POINT('',(0.,0.,0.005));
#926=CARTESIAN_POINT('',(0.,-0.015,0.005));
#927=CARTESIAN_POINT('',(0.037,-0.015,0.005));
#928=CARTESIAN_POINT('',(0.053,-0.015,0.005));
#929=CARTESIAN_POINT('',(0.037,0.,0.005));
#930=CARTESIAN_POINT('',(0.037,-0.03,0.005));
#931=CARTESIAN_POINT('',(0.045,-0.03,0.005));
#932=CARTESIAN_POINT('',(0.053,-0.03,0.005));
#933=CARTESIAN_POINT('',(0.053,0.,0.005));
#934=CARTESIAN_POINT('',(0.045,-0.03,0.005));
#935=CARTESIAN_POINT('',(0.05,-0.03,0.005));
#936=CARTESIAN_POINT('',(0.045,0.03,0.003));
#937=CARTESIAN_POINT('',(0.045,0.03,0.003));
#938=CARTESIAN_POINT('',(0.0475,0.03,0.003));
#939=CARTESIAN_POINT('',(0.,0.,0.003));
#940=CARTESIAN_POINT('',(0.045,-0.03,0.005));
#941=CARTESIAN_POINT('',(0.053,-0.03,0.005));
#942=CARTESIAN_POINT('',(0.037,-0.03,0.005));
#943=CARTESIAN_POINT('',(0.045,-0.03,0.005));
#944=CARTESIAN_POINT('',(0.045,-0.03,0.003));
#945=CARTESIAN_POINT('',(0.05,-0.03,0.003));
#946=CARTESIAN_POINT('',(0.045,-0.03,0.003));
#947=CARTESIAN_POINT('',(0.045,-0.03,0.003));
#948=CARTESIAN_POINT('',(0.0475,-0.03,0.003));
#949=CARTESIAN_POINT('',(0.,0.,0.003));
#950=CARTESIAN_POINT('',(0.053,0.,0.005));
#951=CARTESIAN_POINT('',(0.053,-0.015,0.005));
#952=CARTESIAN_POINT('',(0.037,0.,0.005));
#953=CARTESIAN_POINT('',(0.037,-0.015,0.005));
#954=CARTESIAN_POINT('',(-2.03583068647101E-18,-0.02,0.035));
#955=CARTESIAN_POINT('',(-2.03583068647101E-18,0.02,0.035));
#956=CARTESIAN_POINT('',(-2.03583068647101E-18,0.02,0.027));
#957=CARTESIAN_POINT('',(-2.03583068647101E-18,-0.02,0.035));
#958=CARTESIAN_POINT('',(-2.03583068647101E-18,-0.02,0.027));
#959=CARTESIAN_POINT('',(-0.00482117025996189,-0.015,0.041384067459266));
#960=CARTESIAN_POINT('',(-0.00482117025996189,-0.015,0.041384067459266));
#961=CARTESIAN_POINT('',(-0.00482117025996189,0.015,0.041384067459266));
#962=CARTESIAN_POINT('',(-2.03583068647101E-18,-0.015,0.035));
#963=CARTESIAN_POINT('',(0.00482117025996188,-0.015,0.041384067459266));
#964=CARTESIAN_POINT('',(0.00482117025996188,-0.015,0.041384067459266));
#965=CARTESIAN_POINT('',(0.00482117025996188,0.015,0.041384067459266));
#966=CARTESIAN_POINT('',(-2.03583068647101E-18,0.015,0.035));
#967=CARTESIAN_POINT('',(0.,-0.02,0.035));
#968=CARTESIAN_POINT('',(0.,-0.02,0.035));
#969=CARTESIAN_POINT('',(0.,-0.02,0.03));
#970=CARTESIAN_POINT('',(0.,0.02,0.035));
#971=CARTESIAN_POINT('',(0.,0.02,0.03));
#972=CARTESIAN_POINT('',(0.,-0.02,0.0215));
#973=CARTESIAN_POINT('',(0.,0.02,0.0215));
#974=CARTESIAN_POINT('',(0.0289105851299809,-0.015,0.023192033729633));
#975=CARTESIAN_POINT('',(0.0289105851299809,0.015,0.023192033729633));
#976=CARTESIAN_POINT('',(0.0289105851299809,-0.015,0.023192033729633));
#977=CARTESIAN_POINT('',(-0.0289105851299809,-0.015,0.023192033729633));
#978=CARTESIAN_POINT('',(-0.0289105851299809,0.015,0.023192033729633));
#979=CARTESIAN_POINT('',(-0.0289105851299809,-0.015,0.023192033729633));
#980=CARTESIAN_POINT('',(0.,-0.015,0.0215));
#981=CARTESIAN_POINT('',(0.,0.015,0.0215));
#982=MECHANICAL_DESIGN_GEOMETRIC_PRESENTATION_REPRESENTATION('',(#575),
#983);
#983=(
GEOMETRIC_REPRESENTATION_CONTEXT(3)
GLOBAL_UNCERTAINTY_ASSIGNED_CONTEXT((#984))
GLOBAL_UNIT_ASSIGNED_CONTEXT((#987,#986,#985))
REPRESENTATION_CONTEXT('Part 1','TOP_LEVEL_ASSEMBLY_PART')
);
#984=UNCERTAINTY_MEASURE_WITH_UNIT(LENGTH_MEASURE(1.E-8),#987,
'DISTANCE_ACCURACY_VALUE','Maximum Tolerance applied to model');
#985=(
NAMED_UNIT(*)
SI_UNIT($,.STERADIAN.)
SOLID_ANGLE_UNIT()
);
#986=(
NAMED_UNIT(*)
PLANE_ANGLE_UNIT()
SI_UNIT($,.RADIAN.)
);
#987=(
LENGTH_UNIT()
NAMED_UNIT(*)
SI_UNIT($,.METRE.)
);
#988=PRODUCT_DEFINITION_SHAPE('','',#989);
#989=PRODUCT_DEFINITION('','',#991,#990);
#990=PRODUCT_DEFINITION_CONTEXT('',#997,'design');
#991=PRODUCT_DEFINITION_FORMATION_WITH_SPECIFIED_SOURCE('','',#993,
 .NOT_KNOWN.);
#992=PRODUCT_RELATED_PRODUCT_CATEGORY('','',(#993));
#993=PRODUCT('Part 1','Part 1','Part 1',(#995));
#994=PRODUCT_CATEGORY('','');
#995=PRODUCT_CONTEXT('',#997,'mechanical');
#996=APPLICATION_PROTOCOL_DEFINITION('international standard',
'ap242_managed_model_based_3d_engineering',2020,#997);
#997=APPLICATION_CONTEXT('managed model based 3d engineering');
ENDSEC;
END-ISO-10303-21;
