ISO-10303-21;
HEADER;
/* Generated by software containing ST-Developer
 * from STEP Tools, Inc. (www.steptools.com) 
 */
/* OPTION: using custom renumber hook */

FILE_DESCRIPTION(
/* description */ ('STEP AP242 Edition 2',
'CAx-IF Rec.Pracs.---Representation and Presentation of Product Manufa
cturing Information (PMI)---4.0---2014-10-13',
'CAx-IF Rec.Pracs.---3D Tessellated Geometry---0.4---2014-09-14','2;1',
'CAx-IF Rec.Pracs.---User Defined Attributes---1.5---2016-08-15'),
/* implementation_level */ '2;1');

FILE_NAME(
/* name */ 'Part Studio 1',
/* time_stamp */ '2026-09-11T11:16:09Z',
/* author */ (''),
/* organization */ (''),
/* preprocessor_version */ 'ST-DEVELOPER v20',
/* originating_system */ 'ONSHAPE BY PTC INC, 1.220',
/* authorisation */ '  ');

FILE_SCHEMA (('AP242_MANAGED_MODEL_BASED_3D_ENGINEERING_MIM_LF { 1 0 10303 442 3 1 4 }'));
ENDSEC;

DATA;
#10=CONICAL_SURFACE('',#331,0.0347247237863249,0.0724282770250386);
#11=CONICAL_SURFACE('',#334,0.00808934325193312,0.785398163397448);
#12=CONICAL_SURFACE('',#336,0.0323685173912135,1.33477262220373);
#13=SHAPE_REPRESENTATION_RELATIONSHIP('','',#305,#15);
#14=SHAPE_REPRESENTATION_RELATIONSHIP('','',#306,#16);
#15=ADVANCED_BREP_SHAPE_REPRESENTATION('',(#301),#502);
#16=ADVANCED_BREP_SHAPE_REPRESENTATION('',(#302),#503);
#17=ELLIPSE('',#319,0.0141421356237309,0.01);
#18=ELLIPSE('',#320,0.0141421356237309,0.01);
#19=ELLIPSE('',#322,0.0141421356237309,0.01);
#20=ELLIPSE('',#324,0.0141421356237309,0.01);
#21=CYLINDRICAL_SURFACE('',#318,0.01);
#22=CYLINDRICAL_SURFACE('',#321,0.01);
#23=CYLINDRICAL_SURFACE('',#323,0.01);
#24=CYLINDRICAL_SURFACE('',#325,0.01);
#25=SPHERICAL_SURFACE('',#317,0.015);
#26=CIRCLE('',#309,0.015);
#27=CIRCLE('',#311,0.015);
#28=CIRCLE('',#332,0.0323685173912135);
#29=CIRCLE('',#333,0.0347247237863249);
#30=CIRCLE('',#335,0.00808934325193312);
#31=ORIENTED_EDGE('',*,*,#101,.T.);
#32=ORIENTED_EDGE('',*,*,#102,.T.);
#33=ORIENTED_EDGE('',*,*,#103,.F.);
#34=ORIENTED_EDGE('',*,*,#104,.T.);
#35=ORIENTED_EDGE('',*,*,#105,.F.);
#36=ORIENTED_EDGE('',*,*,#106,.T.);
#37=ORIENTED_EDGE('',*,*,#107,.F.);
#38=ORIENTED_EDGE('',*,*,#108,.T.);
#39=ORIENTED_EDGE('',*,*,#107,.T.);
#40=ORIENTED_EDGE('',*,*,#109,.T.);
#41=ORIENTED_EDGE('',*,*,#110,.F.);
#42=ORIENTED_EDGE('',*,*,#111,.T.);
#43=ORIENTED_EDGE('',*,*,#110,.T.);
#44=ORIENTED_EDGE('',*,*,#112,.T.);
#45=ORIENTED_EDGE('',*,*,#113,.F.);
#46=ORIENTED_EDGE('',*,*,#114,.T.);
#47=ORIENTED_EDGE('',*,*,#113,.T.);
#48=ORIENTED_EDGE('',*,*,#115,.T.);
#49=ORIENTED_EDGE('',*,*,#101,.F.);
#50=ORIENTED_EDGE('',*,*,#116,.T.);
#51=ORIENTED_EDGE('',*,*,#117,.T.);
#52=ORIENTED_EDGE('',*,*,#118,.T.);
#53=ORIENTED_EDGE('',*,*,#119,.T.);
#54=ORIENTED_EDGE('',*,*,#120,.T.);
#55=ORIENTED_EDGE('',*,*,#121,.T.);
#56=ORIENTED_EDGE('',*,*,#122,.T.);
#57=ORIENTED_EDGE('',*,*,#123,.T.);
#58=ORIENTED_EDGE('',*,*,#124,.T.);
#59=ORIENTED_EDGE('',*,*,#103,.T.);
#60=ORIENTED_EDGE('',*,*,#105,.T.);
#61=ORIENTED_EDGE('',*,*,#125,.F.);
#62=ORIENTED_EDGE('',*,*,#117,.F.);
#63=ORIENTED_EDGE('',*,*,#126,.F.);
#64=ORIENTED_EDGE('',*,*,#111,.F.);
#65=ORIENTED_EDGE('',*,*,#126,.T.);
#66=ORIENTED_EDGE('',*,*,#120,.F.);
#67=ORIENTED_EDGE('',*,*,#127,.F.);
#68=ORIENTED_EDGE('',*,*,#104,.F.);
#69=ORIENTED_EDGE('',*,*,#108,.F.);
#70=ORIENTED_EDGE('',*,*,#125,.T.);
#71=ORIENTED_EDGE('',*,*,#114,.F.);
#72=ORIENTED_EDGE('',*,*,#128,.F.);
#73=ORIENTED_EDGE('',*,*,#118,.F.);
#74=ORIENTED_EDGE('',*,*,#127,.T.);
#75=ORIENTED_EDGE('',*,*,#119,.F.);
#76=ORIENTED_EDGE('',*,*,#128,.T.);
#77=ORIENTED_EDGE('',*,*,#116,.F.);
#78=ORIENTED_EDGE('',*,*,#129,.F.);
#79=ORIENTED_EDGE('',*,*,#109,.F.);
#80=ORIENTED_EDGE('',*,*,#130,.F.);
#81=ORIENTED_EDGE('',*,*,#124,.F.);
#82=ORIENTED_EDGE('',*,*,#106,.F.);
#83=ORIENTED_EDGE('',*,*,#102,.F.);
#84=ORIENTED_EDGE('',*,*,#131,.F.);
#85=ORIENTED_EDGE('',*,*,#121,.F.);
#86=ORIENTED_EDGE('',*,*,#130,.T.);
#87=ORIENTED_EDGE('',*,*,#129,.T.);
#88=ORIENTED_EDGE('',*,*,#123,.F.);
#89=ORIENTED_EDGE('',*,*,#132,.F.);
#90=ORIENTED_EDGE('',*,*,#112,.F.);
#91=ORIENTED_EDGE('',*,*,#131,.T.);
#92=ORIENTED_EDGE('',*,*,#115,.F.);
#93=ORIENTED_EDGE('',*,*,#132,.T.);
#94=ORIENTED_EDGE('',*,*,#122,.F.);
#95=ORIENTED_EDGE('',*,*,#133,.T.);
#96=ORIENTED_EDGE('',*,*,#134,.F.);
#97=ORIENTED_EDGE('',*,*,#134,.T.);
#98=ORIENTED_EDGE('',*,*,#135,.F.);
#99=ORIENTED_EDGE('',*,*,#135,.T.);
#100=ORIENTED_EDGE('',*,*,#133,.F.);
#101=EDGE_CURVE('',#136,#137,#157,.T.);
#102=EDGE_CURVE('',#137,#138,#158,.T.);
#103=EDGE_CURVE('',#139,#138,#26,.T.);
#104=EDGE_CURVE('',#139,#136,#159,.T.);
#105=EDGE_CURVE('',#138,#139,#27,.T.);
#106=EDGE_CURVE('',#138,#140,#160,.T.);
#107=EDGE_CURVE('',#141,#140,#161,.T.);
#108=EDGE_CURVE('',#141,#139,#162,.T.);
#109=EDGE_CURVE('',#140,#142,#163,.T.);
#110=EDGE_CURVE('',#143,#142,#164,.T.);
#111=EDGE_CURVE('',#143,#141,#165,.F.);
#112=EDGE_CURVE('',#142,#144,#166,.T.);
#113=EDGE_CURVE('',#145,#144,#167,.T.);
#114=EDGE_CURVE('',#145,#143,#168,.F.);
#115=EDGE_CURVE('',#144,#137,#169,.T.);
#116=EDGE_CURVE('',#136,#145,#170,.T.);
#117=EDGE_CURVE('',#146,#147,#171,.T.);
#118=EDGE_CURVE('',#147,#148,#172,.T.);
#119=EDGE_CURVE('',#148,#149,#173,.F.);
#120=EDGE_CURVE('',#149,#146,#174,.F.);
#121=EDGE_CURVE('',#150,#151,#175,.T.);
#122=EDGE_CURVE('',#151,#152,#176,.T.);
#123=EDGE_CURVE('',#152,#153,#177,.T.);
#124=EDGE_CURVE('',#153,#150,#178,.T.);
#125=EDGE_CURVE('',#147,#143,#17,.F.);
#126=EDGE_CURVE('',#141,#146,#18,.T.);
#127=EDGE_CURVE('',#136,#149,#19,.T.);
#128=EDGE_CURVE('',#148,#145,#20,.F.);
#129=EDGE_CURVE('',#142,#153,#179,.T.);
#130=EDGE_CURVE('',#150,#140,#180,.T.);
#131=EDGE_CURVE('',#151,#137,#181,.F.);
#132=EDGE_CURVE('',#144,#152,#182,.T.);
#133=EDGE_CURVE('',#154,#154,#28,.T.);
#134=EDGE_CURVE('',#155,#155,#29,.T.);
#135=EDGE_CURVE('',#156,#156,#30,.T.);
#136=VERTEX_POINT('',#426);
#137=VERTEX_POINT('',#427);
#138=VERTEX_POINT('',#429);
#139=VERTEX_POINT('',#431);
#140=VERTEX_POINT('',#436);
#141=VERTEX_POINT('',#438);
#142=VERTEX_POINT('',#442);
#143=VERTEX_POINT('',#444);
#144=VERTEX_POINT('',#448);
#145=VERTEX_POINT('',#450);
#146=VERTEX_POINT('',#457);
#147=VERTEX_POINT('',#458);
#148=VERTEX_POINT('',#460);
#149=VERTEX_POINT('',#462);
#150=VERTEX_POINT('',#466);
#151=VERTEX_POINT('',#467);
#152=VERTEX_POINT('',#469);
#153=VERTEX_POINT('',#471);
#154=VERTEX_POINT('',#493);
#155=VERTEX_POINT('',#495);
#156=VERTEX_POINT('',#498);
#157=LINE('',#425,#183);
#158=LINE('',#428,#184);
#159=LINE('',#432,#185);
#160=LINE('',#435,#186);
#161=LINE('',#437,#187);
#162=LINE('',#439,#188);
#163=LINE('',#441,#189);
#164=LINE('',#443,#190);
#165=LINE('',#445,#191);
#166=LINE('',#447,#192);
#167=LINE('',#449,#193);
#168=LINE('',#451,#194);
#169=LINE('',#453,#195);
#170=LINE('',#454,#196);
#171=LINE('',#456,#197);
#172=LINE('',#459,#198);
#173=LINE('',#461,#199);
#174=LINE('',#463,#200);
#175=LINE('',#465,#201);
#176=LINE('',#468,#202);
#177=LINE('',#470,#203);
#178=LINE('',#472,#204);
#179=LINE('',#483,#205);
#180=LINE('',#484,#206);
#181=LINE('',#486,#207);
#182=LINE('',#488,#208);
#183=VECTOR('',#341,1.);
#184=VECTOR('',#342,1.);
#185=VECTOR('',#345,1.);
#186=VECTOR('',#350,1.);
#187=VECTOR('',#351,1.);
#188=VECTOR('',#352,1.);
#189=VECTOR('',#355,1.);
#190=VECTOR('',#356,1.);
#191=VECTOR('',#357,1.);
#192=VECTOR('',#360,1.);
#193=VECTOR('',#361,1.);
#194=VECTOR('',#362,1.);
#195=VECTOR('',#365,1.);
#196=VECTOR('',#366,1.);
#197=VECTOR('',#369,1.);
#198=VECTOR('',#370,1.);
#199=VECTOR('',#371,1.);
#200=VECTOR('',#372,1.);
#201=VECTOR('',#375,1.);
#202=VECTOR('',#376,1.);
#203=VECTOR('',#377,1.);
#204=VECTOR('',#378,1.);
#205=VECTOR('',#399,1.);
#206=VECTOR('',#400,1.);
#207=VECTOR('',#403,1.);
#208=VECTOR('',#406,1.);
#209=EDGE_LOOP('',(#31,#32,#33,#34));
#210=EDGE_LOOP('',(#35,#36,#37,#38));
#211=EDGE_LOOP('',(#39,#40,#41,#42));
#212=EDGE_LOOP('',(#43,#44,#45,#46));
#213=EDGE_LOOP('',(#47,#48,#49,#50));
#214=EDGE_LOOP('',(#51,#52,#53,#54));
#215=EDGE_LOOP('',(#55,#56,#57,#58));
#216=EDGE_LOOP('',(#59,#60));
#217=EDGE_LOOP('',(#61,#62,#63,#64));
#218=EDGE_LOOP('',(#65,#66,#67,#68,#69));
#219=EDGE_LOOP('',(#70,#71,#72,#73));
#220=EDGE_LOOP('',(#74,#75,#76,#77));
#221=EDGE_LOOP('',(#78,#79,#80,#81));
#222=EDGE_LOOP('',(#82,#83,#84,#85,#86));
#223=EDGE_LOOP('',(#87,#88,#89,#90));
#224=EDGE_LOOP('',(#91,#92,#93,#94));
#225=EDGE_LOOP('',(#95));
#226=EDGE_LOOP('',(#96));
#227=EDGE_LOOP('',(#97));
#228=EDGE_LOOP('',(#98));
#229=EDGE_LOOP('',(#99));
#230=EDGE_LOOP('',(#100));
#231=FACE_BOUND('',#209,.T.);
#232=FACE_BOUND('',#210,.T.);
#233=FACE_BOUND('',#211,.T.);
#234=FACE_BOUND('',#212,.T.);
#235=FACE_BOUND('',#213,.T.);
#236=FACE_BOUND('',#214,.T.);
#237=FACE_BOUND('',#215,.T.);
#238=FACE_BOUND('',#216,.T.);
#239=FACE_BOUND('',#217,.T.);
#240=FACE_BOUND('',#218,.T.);
#241=FACE_BOUND('',#219,.T.);
#242=FACE_BOUND('',#220,.T.);
#243=FACE_BOUND('',#221,.T.);
#244=FACE_BOUND('',#222,.T.);
#245=FACE_BOUND('',#223,.T.);
#246=FACE_BOUND('',#224,.T.);
#247=FACE_BOUND('',#225,.T.);
#248=FACE_BOUND('',#226,.T.);
#249=FACE_BOUND('',#227,.T.);
#250=FACE_BOUND('',#228,.T.);
#251=FACE_BOUND('',#229,.T.);
#252=FACE_BOUND('',#230,.T.);
#253=PLANE('',#308);
#254=PLANE('',#310);
#255=PLANE('',#312);
#256=PLANE('',#313);
#257=PLANE('',#314);
#258=PLANE('',#315);
#259=PLANE('',#316);
#260=PLANE('',#326);
#261=PLANE('',#327);
#262=PLANE('',#328);
#263=PLANE('',#329);
#264=ADVANCED_FACE('',(#231),#253,.T.);
#265=ADVANCED_FACE('',(#232),#254,.T.);
#266=ADVANCED_FACE('',(#233),#255,.F.);
#267=ADVANCED_FACE('',(#234),#256,.F.);
#268=ADVANCED_FACE('',(#235),#257,.T.);
#269=ADVANCED_FACE('',(#236),#258,.T.);
#270=ADVANCED_FACE('',(#237),#259,.F.);
#271=ADVANCED_FACE('',(#238),#25,.T.);
#272=ADVANCED_FACE('',(#239),#21,.T.);
#273=ADVANCED_FACE('',(#240),#22,.T.);
#274=ADVANCED_FACE('',(#241),#23,.T.);
#275=ADVANCED_FACE('',(#242),#24,.T.);
#276=ADVANCED_FACE('',(#243),#260,.F.);
#277=ADVANCED_FACE('',(#244),#261,.T.);
#278=ADVANCED_FACE('',(#245),#262,.F.);
#279=ADVANCED_FACE('',(#246),#263,.T.);
#280=ADVANCED_FACE('',(#247,#248),#10,.T.);
#281=ADVANCED_FACE('',(#249,#250),#11,.F.);
#282=ADVANCED_FACE('',(#251,#252),#12,.F.);
#283=CLOSED_SHELL('',(#264,#265,#266,#267,#268,#269,#270,#271,#272,#273,
#274,#275,#276,#277,#278,#279));
#284=CLOSED_SHELL('',(#280,#281,#282));
#285=STYLED_ITEM('',(#287),#301);
#286=STYLED_ITEM('',(#288),#302);
#287=PRESENTATION_STYLE_ASSIGNMENT((#289));
#288=PRESENTATION_STYLE_ASSIGNMENT((#290));
#289=SURFACE_STYLE_USAGE(.BOTH.,#291);
#290=SURFACE_STYLE_USAGE(.BOTH.,#292);
#291=SURFACE_SIDE_STYLE('',(#293));
#292=SURFACE_SIDE_STYLE('',(#294));
#293=SURFACE_STYLE_FILL_AREA(#295);
#294=SURFACE_STYLE_FILL_AREA(#296);
#295=FILL_AREA_STYLE('',(#297));
#296=FILL_AREA_STYLE('',(#298));
#297=FILL_AREA_STYLE_COLOUR('',#299);
#298=FILL_AREA_STYLE_COLOUR('',#300);
#299=COLOUR_RGB('',0.615686274509804,0.811764705882353,0.929411764705882);
#300=COLOUR_RGB('',0.647058823529412,0.647058823529412,0.647058823529412);
#301=MANIFOLD_SOLID_BREP('prueba',#283);
#302=MANIFOLD_SOLID_BREP('Part 2',#284);
#303=SHAPE_DEFINITION_REPRESENTATION(#512,#305);
#304=SHAPE_DEFINITION_REPRESENTATION(#513,#306);
#305=SHAPE_REPRESENTATION('prueba',(#307),#502);
#306=SHAPE_REPRESENTATION('Part 2',(#330),#503);
#307=AXIS2_PLACEMENT_3D('',#423,#337,#338);
#308=AXIS2_PLACEMENT_3D('',#424,#339,#340);
#309=AXIS2_PLACEMENT_3D('',#430,#343,#344);
#310=AXIS2_PLACEMENT_3D('',#433,#346,#347);
#311=AXIS2_PLACEMENT_3D('',#434,#348,#349);
#312=AXIS2_PLACEMENT_3D('',#440,#353,#354);
#313=AXIS2_PLACEMENT_3D('',#446,#358,#359);
#314=AXIS2_PLACEMENT_3D('',#452,#363,#364);
#315=AXIS2_PLACEMENT_3D('',#455,#367,#368);
#316=AXIS2_PLACEMENT_3D('',#464,#373,#374);
#317=AXIS2_PLACEMENT_3D('',#473,#379,#380);
#318=AXIS2_PLACEMENT_3D('',#474,#381,#382);
#319=AXIS2_PLACEMENT_3D('',#475,#383,#384);
#320=AXIS2_PLACEMENT_3D('',#476,#385,#386);
#321=AXIS2_PLACEMENT_3D('',#477,#387,#388);
#322=AXIS2_PLACEMENT_3D('',#478,#389,#390);
#323=AXIS2_PLACEMENT_3D('',#479,#391,#392);
#324=AXIS2_PLACEMENT_3D('',#480,#393,#394);
#325=AXIS2_PLACEMENT_3D('',#481,#395,#396);
#326=AXIS2_PLACEMENT_3D('',#482,#397,#398);
#327=AXIS2_PLACEMENT_3D('',#485,#401,#402);
#328=AXIS2_PLACEMENT_3D('',#487,#404,#405);
#329=AXIS2_PLACEMENT_3D('',#489,#407,#408);
#330=AXIS2_PLACEMENT_3D('',#490,#409,#410);
#331=AXIS2_PLACEMENT_3D('',#491,#411,#412);
#332=AXIS2_PLACEMENT_3D('',#492,#413,#414);
#333=AXIS2_PLACEMENT_3D('',#494,#415,#416);
#334=AXIS2_PLACEMENT_3D('',#496,#417,#418);
#335=AXIS2_PLACEMENT_3D('',#497,#419,#420);
#336=AXIS2_PLACEMENT_3D('',#499,#421,#422);
#337=DIRECTION('',(0.,0.,1.));
#338=DIRECTION('',(1.,0.,0.));
#339=DIRECTION('',(0.707106781186548,0.,0.707106781186548));
#340=DIRECTION('',(0.707106781186548,0.,-0.707106781186548));
#341=DIRECTION('',(0.,1.,0.));
#342=DIRECTION('',(-0.707106781186548,0.,0.707106781186548));
#343=DIRECTION('',(0.707106781186548,0.,0.707106781186548));
#344=DIRECTION('',(0.707106781186548,0.,-0.707106781186548));
#345=DIRECTION('',(0.707106781186548,0.,-0.707106781186548));
#346=DIRECTION('',(0.707106781186548,0.,0.707106781186548));
#347=DIRECTION('',(0.707106781186548,0.,-0.707106781186548));
#348=DIRECTION('',(0.707106781186548,0.,0.707106781186548));
#349=DIRECTION('',(0.707106781186548,0.,-0.707106781186548));
#350=DIRECTION('',(-0.707106781186548,0.,0.707106781186548));
#351=DIRECTION('',(0.,1.,0.));
#352=DIRECTION('',(0.707106781186548,0.,-0.707106781186548));
#353=DIRECTION('',(0.707106781186548,0.,-0.707106781186548));
#354=DIRECTION('',(-0.707106781186548,0.,-0.707106781186548));
#355=DIRECTION('',(-0.707106781186548,0.,-0.707106781186548));
#356=DIRECTION('',(0.,1.,0.));
#357=DIRECTION('',(-0.707106781186548,0.,-0.707106781186548));
#358=DIRECTION('',(0.707106781186548,0.,0.707106781186548));
#359=DIRECTION('',(0.707106781186548,0.,-0.707106781186548));
#360=DIRECTION('',(0.707106781186548,0.,-0.707106781186548));
#361=DIRECTION('',(0.,1.,0.));
#362=DIRECTION('',(0.707106781186548,0.,-0.707106781186548));
#363=DIRECTION('',(0.707106781186548,0.,-0.707106781186548));
#364=DIRECTION('',(-0.707106781186548,0.,-0.707106781186548));
#365=DIRECTION('',(0.707106781186548,0.,0.707106781186548));
#366=DIRECTION('',(-0.707106781186548,0.,-0.707106781186548));
#367=DIRECTION('',(0.,-1.,0.));
#368=DIRECTION('',(1.,0.,0.));
#369=DIRECTION('',(-0.707106781186548,0.,-0.707106781186548));
#370=DIRECTION('',(0.707106781186548,0.,-0.707106781186548));
#371=DIRECTION('',(-0.707106781186548,0.,-0.707106781186548));
#372=DIRECTION('',(0.707106781186548,0.,-0.707106781186548));
#373=DIRECTION('',(0.,-1.,0.));
#374=DIRECTION('',(1.,0.,0.));
#375=DIRECTION('',(0.707106781186548,0.,-0.707106781186548));
#376=DIRECTION('',(-0.707106781186548,0.,-0.707106781186548));
#377=DIRECTION('',(-0.707106781186548,0.,0.707106781186548));
#378=DIRECTION('',(0.707106781186548,0.,0.707106781186548));
#379=DIRECTION('',(-0.707106781186548,0.,0.707106781186548));
#380=DIRECTION('',(-0.707106781186548,0.,-0.707106781186548));
#381=DIRECTION('',(0.707106781186548,0.,0.707106781186548));
#382=DIRECTION('',(0.707106781186548,0.,-0.707106781186548));
#383=DIRECTION('',(7.85046229341888E-17,0.,1.));
#384=DIRECTION('',(-1.,0.,7.85046229341887E-17));
#385=DIRECTION('',(1.,0.,-1.57009245868377E-16));
#386=DIRECTION('',(-1.57009245868377E-16,0.,-1.));
#387=DIRECTION('',(0.707106781186548,0.,-0.707106781186548));
#388=DIRECTION('',(-0.707106781186548,0.,-0.707106781186548));
#389=DIRECTION('',(-1.57009245868377E-16,0.,-1.));
#390=DIRECTION('',(1.,0.,-1.57009245868377E-16));
#391=DIRECTION('',(-0.707106781186548,0.,0.707106781186548));
#392=DIRECTION('',(0.707106781186548,0.,0.707106781186548));
#393=DIRECTION('',(-1.,0.,7.85046229341887E-17));
#394=DIRECTION('',(7.85046229341888E-17,0.,1.));
#395=DIRECTION('',(-0.707106781186548,0.,-0.707106781186548));
#396=DIRECTION('',(-0.707106781186548,0.,0.707106781186548));
#397=DIRECTION('',(0.5,-0.707106781186548,-0.5));
#398=DIRECTION('',(-0.707106781186548,0.,-0.707106781186548));
#399=DIRECTION('',(0.816496580927726,0.577350269189626,4.08629570856508E-16));
#400=DIRECTION('',(0.,-0.577350269189626,0.816496580927726));
#401=DIRECTION('',(0.5,0.707106781186548,0.5));
#402=DIRECTION('',(-0.707106781186548,0.,0.707106781186548));
#403=DIRECTION('',(-0.816496580927726,0.577350269189626,0.));
#404=DIRECTION('',(0.5,-0.707106781186548,0.5));
#405=DIRECTION('',(0.707106781186548,0.,-0.707106781186548));
#406=DIRECTION('',(6.08938184021462E-16,0.577350269189626,0.816496580927726));
#407=DIRECTION('',(0.5,0.707106781186548,-0.5));
#408=DIRECTION('',(0.707106781186548,0.,0.707106781186548));
#409=DIRECTION('',(0.,0.,1.));
#410=DIRECTION('',(1.,0.,0.));
#411=DIRECTION('',(-0.707106781186548,0.,0.707106781186548));
#412=DIRECTION('',(0.707106781186548,0.,0.707106781186548));
#413=DIRECTION('',(-0.707106781186548,0.,0.707106781186548));
#414=DIRECTION('',(0.707106781186548,0.,0.707106781186548));
#415=DIRECTION('',(-0.707106781186548,0.,0.707106781186548));
#416=DIRECTION('',(0.707106781186548,0.,0.707106781186548));
#417=DIRECTION('',(-0.707106781186548,0.,0.707106781186548));
#418=DIRECTION('',(0.707106781186548,0.,0.707106781186548));
#419=DIRECTION('',(-0.707106781186548,0.,0.707106781186548));
#420=DIRECTION('',(0.707106781186548,0.,0.707106781186548));
#421=DIRECTION('',(0.707106781186548,0.,-0.707106781186548));
#422=DIRECTION('',(-0.707106781186548,0.,-0.707106781186548));
#423=CARTESIAN_POINT('',(0.,0.,0.));
#424=CARTESIAN_POINT('',(0.0318198051533947,-0.025,0.00353553390593272));
#425=CARTESIAN_POINT('',(0.0353553390593274,-0.025,6.93889390390723E-18));
#426=CARTESIAN_POINT('',(0.0353553390593274,-0.015,6.93889390390723E-18));
#427=CARTESIAN_POINT('',(0.0353553390593274,0.015,6.93889390390723E-18));
#428=CARTESIAN_POINT('',(-9.82584423959483E-18,0.015,0.0353553390593274));
#429=CARTESIAN_POINT('',(0.0176776695296637,0.015,0.0176776695296637));
#430=CARTESIAN_POINT('',(0.0176776695296637,0.,0.0176776695296637));
#431=CARTESIAN_POINT('',(0.0176776695296637,-0.015,0.0176776695296637));
#432=CARTESIAN_POINT('',(0.0318198051533947,-0.015,0.00353553390593272));
#433=CARTESIAN_POINT('',(0.0318198051533947,-0.025,0.00353553390593272));
#434=CARTESIAN_POINT('',(0.0176776695296637,0.,0.0176776695296637));
#435=CARTESIAN_POINT('',(-9.82584423959483E-18,0.015,0.0353553390593274));
#436=CARTESIAN_POINT('',(-1.7347234759768E-17,0.015,0.0353553390593274));
#437=CARTESIAN_POINT('',(-1.7347234759768E-17,-0.025,0.0353553390593274));
#438=CARTESIAN_POINT('',(-1.7347234759768E-17,-0.015,0.0353553390593274));
#439=CARTESIAN_POINT('',(0.0318198051533947,-0.015,0.00353553390593272));
#440=CARTESIAN_POINT('',(-0.0176776695296637,-0.025,0.0176776695296637));
#441=CARTESIAN_POINT('',(-0.0176776695296637,0.015,0.0176776695296637));
#442=CARTESIAN_POINT('',(-0.0353553390593274,0.015,0.));
#443=CARTESIAN_POINT('',(-0.0353553390593274,-0.025,0.));
#444=CARTESIAN_POINT('',(-0.0353553390593274,-0.015,0.));
#445=CARTESIAN_POINT('',(-1.37545048061851E-18,-0.015,0.0353553390593274));
#446=CARTESIAN_POINT('',(-0.0176776695296637,-0.025,-0.0176776695296637));
#447=CARTESIAN_POINT('',(-0.0176776695296637,0.015,-0.0176776695296637));
#448=CARTESIAN_POINT('',(1.7347234759768E-17,0.015,-0.0353553390593274));
#449=CARTESIAN_POINT('',(1.7347234759768E-17,-0.025,-0.0353553390593274));
#450=CARTESIAN_POINT('',(1.7347234759768E-17,-0.015,-0.0353553390593274));
#451=CARTESIAN_POINT('',(-0.0353553390593274,-0.015,8.88407462797052E-18));
#452=CARTESIAN_POINT('',(0.0176776695296637,-0.025,-0.0176776695296637));
#453=CARTESIAN_POINT('',(0.0353553390593274,0.015,7.88066351553154E-18));
#454=CARTESIAN_POINT('',(0.0176776695296637,-0.015,-0.0176776695296637));
#455=CARTESIAN_POINT('',(0.,-0.025,0.0245540876641401));
#456=CARTESIAN_POINT('',(-0.0282842712474619,-0.025,-0.00707106781186548));
#457=CARTESIAN_POINT('',(3.7383791245689E-18,-0.025,0.0212132034355964));
#458=CARTESIAN_POINT('',(-0.0212132034355964,-0.025,7.47622010880174E-18));
#459=CARTESIAN_POINT('',(0.0070710678118655,-0.025,-0.0282842712474619));
#460=CARTESIAN_POINT('',(6.80442781759958E-18,-0.025,-0.0212132034355964));
#461=CARTESIAN_POINT('',(0.0228836455498682,-0.025,0.00167044211427182));
#462=CARTESIAN_POINT('',(0.0212132034355965,-0.025,-8.01354631369624E-18));
#463=CARTESIAN_POINT('',(-0.00167044211427183,-0.025,0.0228836455498682));
#464=CARTESIAN_POINT('',(0.,0.025,0.0245540876641401));
#465=CARTESIAN_POINT('',(0.0282842712474619,0.025,-0.00707106781186548));
#466=CARTESIAN_POINT('',(9.8715527913024E-18,0.025,0.0212132034355965));
#467=CARTESIAN_POINT('',(0.0212132034355965,0.025,-4.33364211365615E-18));
#468=CARTESIAN_POINT('',(-0.00707106781186547,0.025,-0.0282842712474619));
#469=CARTESIAN_POINT('',(1.29376014843331E-17,0.025,-0.0212132034355964));
#470=CARTESIAN_POINT('',(-0.0228836455498682,0.025,0.00167044211427184));
#471=CARTESIAN_POINT('',(-0.0212132034355964,0.025,1.11561243088418E-17));
#472=CARTESIAN_POINT('',(0.00167044211427184,0.025,0.0228836455498682));
#473=CARTESIAN_POINT('',(0.0176776695296637,0.,0.0176776695296637));
#474=CARTESIAN_POINT('',(0.00167044211427183,-0.015,0.0228836455498682));
#475=CARTESIAN_POINT('',(-0.0212132034355965,-0.015,7.26415455565288E-18));
#476=CARTESIAN_POINT('',(9.75781955236954E-19,-0.015,0.0212132034355965));
#477=CARTESIAN_POINT('',(0.0247487373415292,-0.015,-0.00353553390593275));
#478=CARTESIAN_POINT('',(0.0212132034355965,-0.015,-4.33680868994202E-18));
#479=CARTESIAN_POINT('',(-0.0228836455498682,-0.015,0.00167044211427184));
#480=CARTESIAN_POINT('',(7.80625564189563E-18,-0.015,-0.0212132034355964));
#481=CARTESIAN_POINT('',(0.0106066017177982,-0.015,-0.0106066017177982));
#482=CARTESIAN_POINT('',(-0.0176776695296637,0.015,0.0176776695296637));
#483=CARTESIAN_POINT('',(-0.0235702260395516,0.0233333333333333,1.04083408558608E-17));
#484=CARTESIAN_POINT('',(3.46944695195361E-18,0.0233333333333333,0.0235702260395516));
#485=CARTESIAN_POINT('',(-0.00167044211427183,0.025,0.0228836455498682));
#486=CARTESIAN_POINT('',(0.00595743973568426,0.0357874539643874,0.));
#487=CARTESIAN_POINT('',(-0.0176776695296637,0.015,-0.0176776695296637));
#488=CARTESIAN_POINT('',(1.38777878078145E-17,0.0233333333333333,-0.0235702260395516));
#489=CARTESIAN_POINT('',(0.0228836455498682,0.025,0.00167044211427182));
#490=CARTESIAN_POINT('',(0.,0.,0.));
#491=CARTESIAN_POINT('',(-0.0245540876641401,0.,0.0599094267234675));
#492=CARTESIAN_POINT('',(-0.00159102387274587,0.,0.0369463629320732));
#493=CARTESIAN_POINT('',(0.0212969742715359,0.,0.059834361076355));
#494=CARTESIAN_POINT('',(-0.0245540876641401,0.,0.0599094267234675));
#495=CARTESIAN_POINT('',(2.77555756156289E-17,0.,0.0844635143876076));
#496=CARTESIAN_POINT('',(-0.00572002946878755,0.,0.0410753685281149));
#497=CARTESIAN_POINT('',(-0.00572002946878755,0.,0.0410753685281149));
#498=CARTESIAN_POINT('',(2.60208521396521E-18,0.,0.0467953979969025));
#499=CARTESIAN_POINT('',(-0.00159102387274587,0.,0.0369463629320732));
#500=MECHANICAL_DESIGN_GEOMETRIC_PRESENTATION_REPRESENTATION('',(#285),
#502);
#501=MECHANICAL_DESIGN_GEOMETRIC_PRESENTATION_REPRESENTATION('',(#286),
#503);
#502=(
GEOMETRIC_REPRESENTATION_CONTEXT(3)
GLOBAL_UNCERTAINTY_ASSIGNED_CONTEXT((#504))
GLOBAL_UNIT_ASSIGNED_CONTEXT((#510,#508,#506))
REPRESENTATION_CONTEXT('prueba','TOP_LEVEL_ASSEMBLY_PART')
);
#503=(
GEOMETRIC_REPRESENTATION_CONTEXT(3)
GLOBAL_UNCERTAINTY_ASSIGNED_CONTEXT((#505))
GLOBAL_UNIT_ASSIGNED_CONTEXT((#511,#509,#507))
REPRESENTATION_CONTEXT('Part 2','TOP_LEVEL_ASSEMBLY_PART')
);
#504=UNCERTAINTY_MEASURE_WITH_UNIT(LENGTH_MEASURE(1.E-8),#510,
'DISTANCE_ACCURACY_VALUE','Maximum Tolerance applied to model');
#505=UNCERTAINTY_MEASURE_WITH_UNIT(LENGTH_MEASURE(1.E-8),#511,
'DISTANCE_ACCURACY_VALUE','Maximum Tolerance applied to model');
#506=(
NAMED_UNIT(*)
SI_UNIT($,.STERADIAN.)
SOLID_ANGLE_UNIT()
);
#507=(
NAMED_UNIT(*)
SI_UNIT($,.STERADIAN.)
SOLID_ANGLE_UNIT()
);
#508=(
NAMED_UNIT(*)
PLANE_ANGLE_UNIT()
SI_UNIT($,.RADIAN.)
);
#509=(
NAMED_UNIT(*)
PLANE_ANGLE_UNIT()
SI_UNIT($,.RADIAN.)
);
#510=(
LENGTH_UNIT()
NAMED_UNIT(*)
SI_UNIT($,.METRE.)
);
#511=(
LENGTH_UNIT()
NAMED_UNIT(*)
SI_UNIT($,.METRE.)
);
#512=PRODUCT_DEFINITION_SHAPE('','',#514);
#513=PRODUCT_DEFINITION_SHAPE('','',#515);
#514=PRODUCT_DEFINITION('','',#518,#516);
#515=PRODUCT_DEFINITION('','',#519,#517);
#516=PRODUCT_DEFINITION_CONTEXT('',#530,'design');
#517=PRODUCT_DEFINITION_CONTEXT('',#531,'design');
#518=PRODUCT_DEFINITION_FORMATION_WITH_SPECIFIED_SOURCE('','',#522,
 .NOT_KNOWN.);
#519=PRODUCT_DEFINITION_FORMATION_WITH_SPECIFIED_SOURCE('','',#523,
 .NOT_KNOWN.);
#520=PRODUCT_RELATED_PRODUCT_CATEGORY('','',(#522));
#521=PRODUCT_RELATED_PRODUCT_CATEGORY('','',(#523));
#522=PRODUCT('prueba','prueba','prueba',(#526));
#523=PRODUCT('Part 2','Part 2','Part 2',(#527));
#524=PRODUCT_CATEGORY('','');
#525=PRODUCT_CATEGORY('','');
#526=PRODUCT_CONTEXT('',#530,'mechanical');
#527=PRODUCT_CONTEXT('',#531,'mechanical');
#528=APPLICATION_PROTOCOL_DEFINITION('international standard',
'ap242_managed_model_based_3d_engineering',2020,#530);
#529=APPLICATION_PROTOCOL_DEFINITION('international standard',
'ap242_managed_model_based_3d_engineering',2020,#531);
#530=APPLICATION_CONTEXT('managed model based 3d engineering');
#531=APPLICATION_CONTEXT('managed model based 3d engineering');
ENDSEC;
END-ISO-10303-21;
