ISO-10303-21;
HEADER;
/* Generated by software containing ST-Developer
 * from STEP Tools, Inc. (www.steptools.com) 
 */
/* OPTION: using custom renumber hook */

FILE_DESCRIPTION(
/* description */ ('STEP AP242 Edition 2',
'CAx-IF Rec.Pracs.---Representation and Presentation of Product Manufa
cturing Information (PMI)---4.0---2014-10-13',
'CAx-IF Rec.Pracs.---3D Tessellated Geometry---0.4---2014-09-14','2;1',
'CAx-IF Rec.Pracs.---User Defined Attributes---1.5---2016-08-15'),
/* implementation_level */ '2;1');

FILE_NAME(
/* name */ 'Part Studio 3',
/* time_stamp */ '2026-09-14T18:20:08Z',
/* author */ (''),
/* organization */ (''),
/* preprocessor_version */ 'ST-DEVELOPER v20',
/* originating_system */ 'ONSHAPE BY PTC INC, 1.220',
/* authorisation */ '  ');

FILE_SCHEMA (('AP242_MANAGED_MODEL_BASED_3D_ENGINEERING_MIM_LF { 1 0 10303 442 3 1 4 }'));
ENDSEC;

DATA;
#10=SHAPE_REPRESENTATION_RELATIONSHIP('','',#383,#15);
#11=SHAPE_REPRESENTATION_RELATIONSHIP('','',#384,#16);
#12=SHAPE_REPRESENTATION_RELATIONSHIP('','',#385,#17);
#13=SHAPE_REPRESENTATION_RELATIONSHIP('','',#386,#18);
#14=SHAPE_REPRESENTATION_RELATIONSHIP('','',#387,#19);
#15=ADVANCED_BREP_SHAPE_REPRESENTATION('',(#373),#665);
#16=ADVANCED_BREP_SHAPE_REPRESENTATION('',(#374),#666);
#17=ADVANCED_BREP_SHAPE_REPRESENTATION('',(#375),#667);
#18=ADVANCED_BREP_SHAPE_REPRESENTATION('',(#376),#668);
#19=ADVANCED_BREP_SHAPE_REPRESENTATION('',(#377),#669);
#20=PLANE('',#395);
#21=PLANE('',#396);
#22=PLANE('',#400);
#23=PLANE('',#408);
#24=PLANE('',#409);
#25=PLANE('',#413);
#26=PLANE('',#421);
#27=PLANE('',#422);
#28=PLANE('',#426);
#29=PLANE('',#434);
#30=PLANE('',#435);
#31=PLANE('',#439);
#32=PLANE('',#447);
#33=PLANE('',#448);
#34=ORIENTED_EDGE('',*,*,#90,.F.);
#35=ORIENTED_EDGE('',*,*,#91,.T.);
#36=ORIENTED_EDGE('',*,*,#92,.F.);
#37=ORIENTED_EDGE('',*,*,#93,.T.);
#38=ORIENTED_EDGE('',*,*,#91,.F.);
#39=ORIENTED_EDGE('',*,*,#92,.T.);
#40=ORIENTED_EDGE('',*,*,#93,.F.);
#41=ORIENTED_EDGE('',*,*,#94,.T.);
#42=ORIENTED_EDGE('',*,*,#95,.T.);
#43=ORIENTED_EDGE('',*,*,#94,.F.);
#44=ORIENTED_EDGE('',*,*,#95,.F.);
#45=ORIENTED_EDGE('',*,*,#90,.T.);
#46=ORIENTED_EDGE('',*,*,#96,.F.);
#47=ORIENTED_EDGE('',*,*,#97,.T.);
#48=ORIENTED_EDGE('',*,*,#98,.F.);
#49=ORIENTED_EDGE('',*,*,#99,.T.);
#50=ORIENTED_EDGE('',*,*,#97,.F.);
#51=ORIENTED_EDGE('',*,*,#98,.T.);
#52=ORIENTED_EDGE('',*,*,#99,.F.);
#53=ORIENTED_EDGE('',*,*,#100,.T.);
#54=ORIENTED_EDGE('',*,*,#101,.T.);
#55=ORIENTED_EDGE('',*,*,#100,.F.);
#56=ORIENTED_EDGE('',*,*,#101,.F.);
#57=ORIENTED_EDGE('',*,*,#96,.T.);
#58=ORIENTED_EDGE('',*,*,#102,.T.);
#59=ORIENTED_EDGE('',*,*,#103,.F.);
#60=ORIENTED_EDGE('',*,*,#104,.T.);
#61=ORIENTED_EDGE('',*,*,#105,.F.);
#62=ORIENTED_EDGE('',*,*,#102,.F.);
#63=ORIENTED_EDGE('',*,*,#105,.T.);
#64=ORIENTED_EDGE('',*,*,#103,.T.);
#65=ORIENTED_EDGE('',*,*,#106,.F.);
#66=ORIENTED_EDGE('',*,*,#107,.F.);
#67=ORIENTED_EDGE('',*,*,#106,.T.);
#68=ORIENTED_EDGE('',*,*,#104,.F.);
#69=ORIENTED_EDGE('',*,*,#107,.T.);
#70=ORIENTED_EDGE('',*,*,#108,.T.);
#71=ORIENTED_EDGE('',*,*,#109,.F.);
#72=ORIENTED_EDGE('',*,*,#110,.T.);
#73=ORIENTED_EDGE('',*,*,#111,.F.);
#74=ORIENTED_EDGE('',*,*,#108,.F.);
#75=ORIENTED_EDGE('',*,*,#111,.T.);
#76=ORIENTED_EDGE('',*,*,#109,.T.);
#77=ORIENTED_EDGE('',*,*,#112,.F.);
#78=ORIENTED_EDGE('',*,*,#113,.F.);
#79=ORIENTED_EDGE('',*,*,#112,.T.);
#80=ORIENTED_EDGE('',*,*,#110,.F.);
#81=ORIENTED_EDGE('',*,*,#113,.T.);
#82=ORIENTED_EDGE('',*,*,#114,.T.);
#83=ORIENTED_EDGE('',*,*,#115,.F.);
#84=ORIENTED_EDGE('',*,*,#116,.F.);
#85=ORIENTED_EDGE('',*,*,#117,.T.);
#86=ORIENTED_EDGE('',*,*,#114,.F.);
#87=ORIENTED_EDGE('',*,*,#116,.T.);
#88=ORIENTED_EDGE('',*,*,#115,.T.);
#89=ORIENTED_EDGE('',*,*,#117,.F.);
#90=EDGE_CURVE('',#118,#118,#146,.T.);
#91=EDGE_CURVE('',#119,#119,#147,.T.);
#92=EDGE_CURVE('',#120,#120,#148,.T.);
#93=EDGE_CURVE('',#121,#121,#149,.T.);
#94=EDGE_CURVE('',#122,#122,#150,.T.);
#95=EDGE_CURVE('',#123,#123,#151,.T.);
#96=EDGE_CURVE('',#124,#124,#152,.T.);
#97=EDGE_CURVE('',#125,#125,#153,.T.);
#98=EDGE_CURVE('',#126,#126,#154,.T.);
#99=EDGE_CURVE('',#127,#127,#155,.T.);
#100=EDGE_CURVE('',#128,#128,#156,.T.);
#101=EDGE_CURVE('',#129,#129,#157,.T.);
#102=EDGE_CURVE('',#130,#130,#158,.T.);
#103=EDGE_CURVE('',#131,#131,#159,.T.);
#104=EDGE_CURVE('',#132,#132,#160,.T.);
#105=EDGE_CURVE('',#133,#133,#161,.T.);
#106=EDGE_CURVE('',#134,#134,#162,.T.);
#107=EDGE_CURVE('',#135,#135,#163,.T.);
#108=EDGE_CURVE('',#136,#136,#164,.T.);
#109=EDGE_CURVE('',#137,#137,#165,.T.);
#110=EDGE_CURVE('',#138,#138,#166,.T.);
#111=EDGE_CURVE('',#139,#139,#167,.T.);
#112=EDGE_CURVE('',#140,#140,#168,.T.);
#113=EDGE_CURVE('',#141,#141,#169,.T.);
#114=EDGE_CURVE('',#142,#142,#170,.T.);
#115=EDGE_CURVE('',#143,#143,#171,.T.);
#116=EDGE_CURVE('',#144,#144,#172,.T.);
#117=EDGE_CURVE('',#145,#145,#173,.T.);
#118=VERTEX_POINT('',#574);
#119=VERTEX_POINT('',#576);
#120=VERTEX_POINT('',#579);
#121=VERTEX_POINT('',#581);
#122=VERTEX_POINT('',#585);
#123=VERTEX_POINT('',#588);
#124=VERTEX_POINT('',#593);
#125=VERTEX_POINT('',#595);
#126=VERTEX_POINT('',#598);
#127=VERTEX_POINT('',#600);
#128=VERTEX_POINT('',#604);
#129=VERTEX_POINT('',#607);
#130=VERTEX_POINT('',#612);
#131=VERTEX_POINT('',#614);
#132=VERTEX_POINT('',#617);
#133=VERTEX_POINT('',#619);
#134=VERTEX_POINT('',#623);
#135=VERTEX_POINT('',#626);
#136=VERTEX_POINT('',#631);
#137=VERTEX_POINT('',#633);
#138=VERTEX_POINT('',#636);
#139=VERTEX_POINT('',#638);
#140=VERTEX_POINT('',#642);
#141=VERTEX_POINT('',#645);
#142=VERTEX_POINT('',#650);
#143=VERTEX_POINT('',#652);
#144=VERTEX_POINT('',#655);
#145=VERTEX_POINT('',#657);
#146=CIRCLE('',#390,0.005);
#147=CIRCLE('',#391,0.005);
#148=CIRCLE('',#393,0.008);
#149=CIRCLE('',#394,0.008);
#150=CIRCLE('',#397,0.0025);
#151=CIRCLE('',#399,0.0025);
#152=CIRCLE('',#403,0.005);
#153=CIRCLE('',#404,0.005);
#154=CIRCLE('',#406,0.008);
#155=CIRCLE('',#407,0.008);
#156=CIRCLE('',#410,0.0025);
#157=CIRCLE('',#412,0.0025);
#158=CIRCLE('',#416,0.008);
#159=CIRCLE('',#417,0.008);
#160=CIRCLE('',#419,0.005);
#161=CIRCLE('',#420,0.005);
#162=CIRCLE('',#423,0.0025);
#163=CIRCLE('',#425,0.0025);
#164=CIRCLE('',#429,0.008);
#165=CIRCLE('',#430,0.008);
#166=CIRCLE('',#432,0.005);
#167=CIRCLE('',#433,0.005);
#168=CIRCLE('',#436,0.0025);
#169=CIRCLE('',#438,0.0025);
#170=CIRCLE('',#442,0.005);
#171=CIRCLE('',#443,0.005);
#172=CIRCLE('',#445,0.008);
#173=CIRCLE('',#446,0.008);
#174=EDGE_LOOP('',(#34));
#175=EDGE_LOOP('',(#35));
#176=EDGE_LOOP('',(#36));
#177=EDGE_LOOP('',(#37));
#178=EDGE_LOOP('',(#38));
#179=EDGE_LOOP('',(#39));
#180=EDGE_LOOP('',(#40));
#181=EDGE_LOOP('',(#41));
#182=EDGE_LOOP('',(#42));
#183=EDGE_LOOP('',(#43));
#184=EDGE_LOOP('',(#44));
#185=EDGE_LOOP('',(#45));
#186=EDGE_LOOP('',(#46));
#187=EDGE_LOOP('',(#47));
#188=EDGE_LOOP('',(#48));
#189=EDGE_LOOP('',(#49));
#190=EDGE_LOOP('',(#50));
#191=EDGE_LOOP('',(#51));
#192=EDGE_LOOP('',(#52));
#193=EDGE_LOOP('',(#53));
#194=EDGE_LOOP('',(#54));
#195=EDGE_LOOP('',(#55));
#196=EDGE_LOOP('',(#56));
#197=EDGE_LOOP('',(#57));
#198=EDGE_LOOP('',(#58));
#199=EDGE_LOOP('',(#59));
#200=EDGE_LOOP('',(#60));
#201=EDGE_LOOP('',(#61));
#202=EDGE_LOOP('',(#62));
#203=EDGE_LOOP('',(#63));
#204=EDGE_LOOP('',(#64));
#205=EDGE_LOOP('',(#65));
#206=EDGE_LOOP('',(#66));
#207=EDGE_LOOP('',(#67));
#208=EDGE_LOOP('',(#68));
#209=EDGE_LOOP('',(#69));
#210=EDGE_LOOP('',(#70));
#211=EDGE_LOOP('',(#71));
#212=EDGE_LOOP('',(#72));
#213=EDGE_LOOP('',(#73));
#214=EDGE_LOOP('',(#74));
#215=EDGE_LOOP('',(#75));
#216=EDGE_LOOP('',(#76));
#217=EDGE_LOOP('',(#77));
#218=EDGE_LOOP('',(#78));
#219=EDGE_LOOP('',(#79));
#220=EDGE_LOOP('',(#80));
#221=EDGE_LOOP('',(#81));
#222=EDGE_LOOP('',(#82));
#223=EDGE_LOOP('',(#83));
#224=EDGE_LOOP('',(#84));
#225=EDGE_LOOP('',(#85));
#226=EDGE_LOOP('',(#86));
#227=EDGE_LOOP('',(#87));
#228=EDGE_LOOP('',(#88));
#229=EDGE_LOOP('',(#89));
#230=FACE_BOUND('',#174,.T.);
#231=FACE_BOUND('',#175,.T.);
#232=FACE_BOUND('',#176,.T.);
#233=FACE_BOUND('',#177,.T.);
#234=FACE_BOUND('',#178,.T.);
#235=FACE_BOUND('',#179,.T.);
#236=FACE_BOUND('',#180,.T.);
#237=FACE_BOUND('',#181,.T.);
#238=FACE_BOUND('',#182,.T.);
#239=FACE_BOUND('',#183,.T.);
#240=FACE_BOUND('',#184,.T.);
#241=FACE_BOUND('',#185,.T.);
#242=FACE_BOUND('',#186,.T.);
#243=FACE_BOUND('',#187,.T.);
#244=FACE_BOUND('',#188,.T.);
#245=FACE_BOUND('',#189,.T.);
#246=FACE_BOUND('',#190,.T.);
#247=FACE_BOUND('',#191,.T.);
#248=FACE_BOUND('',#192,.T.);
#249=FACE_BOUND('',#193,.T.);
#250=FACE_BOUND('',#194,.T.);
#251=FACE_BOUND('',#195,.T.);
#252=FACE_BOUND('',#196,.T.);
#253=FACE_BOUND('',#197,.T.);
#254=FACE_BOUND('',#198,.T.);
#255=FACE_BOUND('',#199,.T.);
#256=FACE_BOUND('',#200,.T.);
#257=FACE_BOUND('',#201,.T.);
#258=FACE_BOUND('',#202,.T.);
#259=FACE_BOUND('',#203,.T.);
#260=FACE_BOUND('',#204,.T.);
#261=FACE_BOUND('',#205,.T.);
#262=FACE_BOUND('',#206,.T.);
#263=FACE_BOUND('',#207,.T.);
#264=FACE_BOUND('',#208,.T.);
#265=FACE_BOUND('',#209,.T.);
#266=FACE_BOUND('',#210,.T.);
#267=FACE_BOUND('',#211,.T.);
#268=FACE_BOUND('',#212,.T.);
#269=FACE_BOUND('',#213,.T.);
#270=FACE_BOUND('',#214,.T.);
#271=FACE_BOUND('',#215,.T.);
#272=FACE_BOUND('',#216,.T.);
#273=FACE_BOUND('',#217,.T.);
#274=FACE_BOUND('',#218,.T.);
#275=FACE_BOUND('',#219,.T.);
#276=FACE_BOUND('',#220,.T.);
#277=FACE_BOUND('',#221,.T.);
#278=FACE_BOUND('',#222,.T.);
#279=FACE_BOUND('',#223,.T.);
#280=FACE_BOUND('',#224,.T.);
#281=FACE_BOUND('',#225,.T.);
#282=FACE_BOUND('',#226,.T.);
#283=FACE_BOUND('',#227,.T.);
#284=FACE_BOUND('',#228,.T.);
#285=FACE_BOUND('',#229,.T.);
#286=CYLINDRICAL_SURFACE('',#389,0.005);
#287=CYLINDRICAL_SURFACE('',#392,0.008);
#288=CYLINDRICAL_SURFACE('',#398,0.0025);
#289=CYLINDRICAL_SURFACE('',#402,0.005);
#290=CYLINDRICAL_SURFACE('',#405,0.008);
#291=CYLINDRICAL_SURFACE('',#411,0.0025);
#292=CYLINDRICAL_SURFACE('',#415,0.008);
#293=CYLINDRICAL_SURFACE('',#418,0.005);
#294=CYLINDRICAL_SURFACE('',#424,0.0025);
#295=CYLINDRICAL_SURFACE('',#428,0.008);
#296=CYLINDRICAL_SURFACE('',#431,0.005);
#297=CYLINDRICAL_SURFACE('',#437,0.0025);
#298=CYLINDRICAL_SURFACE('',#441,0.005);
#299=CYLINDRICAL_SURFACE('',#444,0.008);
#300=ADVANCED_FACE('',(#230,#231),#286,.F.);
#301=ADVANCED_FACE('',(#232,#233),#287,.T.);
#302=ADVANCED_FACE('',(#234,#235),#20,.T.);
#303=ADVANCED_FACE('',(#236,#237),#21,.F.);
#304=ADVANCED_FACE('',(#238,#239),#288,.F.);
#305=ADVANCED_FACE('',(#240,#241),#22,.T.);
#306=ADVANCED_FACE('',(#242,#243),#289,.F.);
#307=ADVANCED_FACE('',(#244,#245),#290,.T.);
#308=ADVANCED_FACE('',(#246,#247),#23,.T.);
#309=ADVANCED_FACE('',(#248,#249),#24,.F.);
#310=ADVANCED_FACE('',(#250,#251),#291,.F.);
#311=ADVANCED_FACE('',(#252,#253),#25,.T.);
#312=ADVANCED_FACE('',(#254,#255),#292,.T.);
#313=ADVANCED_FACE('',(#256,#257),#293,.F.);
#314=ADVANCED_FACE('',(#258,#259),#26,.T.);
#315=ADVANCED_FACE('',(#260,#261),#27,.F.);
#316=ADVANCED_FACE('',(#262,#263),#294,.F.);
#317=ADVANCED_FACE('',(#264,#265),#28,.T.);
#318=ADVANCED_FACE('',(#266,#267),#295,.T.);
#319=ADVANCED_FACE('',(#268,#269),#296,.F.);
#320=ADVANCED_FACE('',(#270,#271),#29,.T.);
#321=ADVANCED_FACE('',(#272,#273),#30,.F.);
#322=ADVANCED_FACE('',(#274,#275),#297,.F.);
#323=ADVANCED_FACE('',(#276,#277),#31,.T.);
#324=ADVANCED_FACE('',(#278,#279),#298,.F.);
#325=ADVANCED_FACE('',(#280,#281),#299,.T.);
#326=ADVANCED_FACE('',(#282,#283),#32,.T.);
#327=ADVANCED_FACE('',(#284,#285),#33,.F.);
#328=CLOSED_SHELL('',(#300,#301,#302,#303,#304,#305));
#329=CLOSED_SHELL('',(#306,#307,#308,#309,#310,#311));
#330=CLOSED_SHELL('',(#312,#313,#314,#315,#316,#317));
#331=CLOSED_SHELL('',(#318,#319,#320,#321,#322,#323));
#332=CLOSED_SHELL('',(#324,#325,#326,#327));
#333=STYLED_ITEM('',(#338),#373);
#334=STYLED_ITEM('',(#339),#374);
#335=STYLED_ITEM('',(#340),#375);
#336=STYLED_ITEM('',(#341),#376);
#337=STYLED_ITEM('',(#342),#377);
#338=PRESENTATION_STYLE_ASSIGNMENT((#343));
#339=PRESENTATION_STYLE_ASSIGNMENT((#344));
#340=PRESENTATION_STYLE_ASSIGNMENT((#345));
#341=PRESENTATION_STYLE_ASSIGNMENT((#346));
#342=PRESENTATION_STYLE_ASSIGNMENT((#347));
#343=SURFACE_STYLE_USAGE(.BOTH.,#348);
#344=SURFACE_STYLE_USAGE(.BOTH.,#349);
#345=SURFACE_STYLE_USAGE(.BOTH.,#350);
#346=SURFACE_STYLE_USAGE(.BOTH.,#351);
#347=SURFACE_STYLE_USAGE(.BOTH.,#352);
#348=SURFACE_SIDE_STYLE('',(#353));
#349=SURFACE_SIDE_STYLE('',(#354));
#350=SURFACE_SIDE_STYLE('',(#355));
#351=SURFACE_SIDE_STYLE('',(#356));
#352=SURFACE_SIDE_STYLE('',(#357));
#353=SURFACE_STYLE_FILL_AREA(#358);
#354=SURFACE_STYLE_FILL_AREA(#359);
#355=SURFACE_STYLE_FILL_AREA(#360);
#356=SURFACE_STYLE_FILL_AREA(#361);
#357=SURFACE_STYLE_FILL_AREA(#362);
#358=FILL_AREA_STYLE('',(#363));
#359=FILL_AREA_STYLE('',(#364));
#360=FILL_AREA_STYLE('',(#365));
#361=FILL_AREA_STYLE('',(#366));
#362=FILL_AREA_STYLE('',(#367));
#363=FILL_AREA_STYLE_COLOUR('',#368);
#364=FILL_AREA_STYLE_COLOUR('',#369);
#365=FILL_AREA_STYLE_COLOUR('',#370);
#366=FILL_AREA_STYLE_COLOUR('',#371);
#367=FILL_AREA_STYLE_COLOUR('',#372);
#368=COLOUR_RGB('',0.615686274509804,0.811764705882353,0.929411764705882);
#369=COLOUR_RGB('',0.917647058823529,0.917647058823529,0.917647058823529);
#370=COLOUR_RGB('',0.647058823529412,0.647058823529412,0.647058823529412);
#371=COLOUR_RGB('',0.231372549019608,0.380392156862745,0.705882352941177);
#372=COLOUR_RGB('',0.768627450980392,0.886274509803922,0.952941176470588);
#373=MANIFOLD_SOLID_BREP('Part 1',#328);
#374=MANIFOLD_SOLID_BREP('Part 4',#329);
#375=MANIFOLD_SOLID_BREP('Part 2',#330);
#376=MANIFOLD_SOLID_BREP('Part 3',#331);
#377=MANIFOLD_SOLID_BREP('Part 5',#332);
#378=SHAPE_DEFINITION_REPRESENTATION(#690,#383);
#379=SHAPE_DEFINITION_REPRESENTATION(#691,#384);
#380=SHAPE_DEFINITION_REPRESENTATION(#692,#385);
#381=SHAPE_DEFINITION_REPRESENTATION(#693,#386);
#382=SHAPE_DEFINITION_REPRESENTATION(#694,#387);
#383=SHAPE_REPRESENTATION('Part 1',(#388),#665);
#384=SHAPE_REPRESENTATION('Part 4',(#401),#666);
#385=SHAPE_REPRESENTATION('Part 2',(#414),#667);
#386=SHAPE_REPRESENTATION('Part 3',(#427),#668);
#387=SHAPE_REPRESENTATION('Part 5',(#440),#669);
#388=AXIS2_PLACEMENT_3D('',#571,#449,#450);
#389=AXIS2_PLACEMENT_3D('',#572,#451,#452);
#390=AXIS2_PLACEMENT_3D('',#573,#453,#454);
#391=AXIS2_PLACEMENT_3D('',#575,#455,#456);
#392=AXIS2_PLACEMENT_3D('',#577,#457,#458);
#393=AXIS2_PLACEMENT_3D('',#578,#459,#460);
#394=AXIS2_PLACEMENT_3D('',#580,#461,#462);
#395=AXIS2_PLACEMENT_3D('',#582,#463,#464);
#396=AXIS2_PLACEMENT_3D('',#583,#465,#466);
#397=AXIS2_PLACEMENT_3D('',#584,#467,#468);
#398=AXIS2_PLACEMENT_3D('',#586,#469,#470);
#399=AXIS2_PLACEMENT_3D('',#587,#471,#472);
#400=AXIS2_PLACEMENT_3D('',#589,#473,#474);
#401=AXIS2_PLACEMENT_3D('',#590,#475,#476);
#402=AXIS2_PLACEMENT_3D('',#591,#477,#478);
#403=AXIS2_PLACEMENT_3D('',#592,#479,#480);
#404=AXIS2_PLACEMENT_3D('',#594,#481,#482);
#405=AXIS2_PLACEMENT_3D('',#596,#483,#484);
#406=AXIS2_PLACEMENT_3D('',#597,#485,#486);
#407=AXIS2_PLACEMENT_3D('',#599,#487,#488);
#408=AXIS2_PLACEMENT_3D('',#601,#489,#490);
#409=AXIS2_PLACEMENT_3D('',#602,#491,#492);
#410=AXIS2_PLACEMENT_3D('',#603,#493,#494);
#411=AXIS2_PLACEMENT_3D('',#605,#495,#496);
#412=AXIS2_PLACEMENT_3D('',#606,#497,#498);
#413=AXIS2_PLACEMENT_3D('',#608,#499,#500);
#414=AXIS2_PLACEMENT_3D('',#609,#501,#502);
#415=AXIS2_PLACEMENT_3D('',#610,#503,#504);
#416=AXIS2_PLACEMENT_3D('',#611,#505,#506);
#417=AXIS2_PLACEMENT_3D('',#613,#507,#508);
#418=AXIS2_PLACEMENT_3D('',#615,#509,#510);
#419=AXIS2_PLACEMENT_3D('',#616,#511,#512);
#420=AXIS2_PLACEMENT_3D('',#618,#513,#514);
#421=AXIS2_PLACEMENT_3D('',#620,#515,#516);
#422=AXIS2_PLACEMENT_3D('',#621,#517,#518);
#423=AXIS2_PLACEMENT_3D('',#622,#519,#520);
#424=AXIS2_PLACEMENT_3D('',#624,#521,#522);
#425=AXIS2_PLACEMENT_3D('',#625,#523,#524);
#426=AXIS2_PLACEMENT_3D('',#627,#525,#526);
#427=AXIS2_PLACEMENT_3D('',#628,#527,#528);
#428=AXIS2_PLACEMENT_3D('',#629,#529,#530);
#429=AXIS2_PLACEMENT_3D('',#630,#531,#532);
#430=AXIS2_PLACEMENT_3D('',#632,#533,#534);
#431=AXIS2_PLACEMENT_3D('',#634,#535,#536);
#432=AXIS2_PLACEMENT_3D('',#635,#537,#538);
#433=AXIS2_PLACEMENT_3D('',#637,#539,#540);
#434=AXIS2_PLACEMENT_3D('',#639,#541,#542);
#435=AXIS2_PLACEMENT_3D('',#640,#543,#544);
#436=AXIS2_PLACEMENT_3D('',#641,#545,#546);
#437=AXIS2_PLACEMENT_3D('',#643,#547,#548);
#438=AXIS2_PLACEMENT_3D('',#644,#549,#550);
#439=AXIS2_PLACEMENT_3D('',#646,#551,#552);
#440=AXIS2_PLACEMENT_3D('',#647,#553,#554);
#441=AXIS2_PLACEMENT_3D('',#648,#555,#556);
#442=AXIS2_PLACEMENT_3D('',#649,#557,#558);
#443=AXIS2_PLACEMENT_3D('',#651,#559,#560);
#444=AXIS2_PLACEMENT_3D('',#653,#561,#562);
#445=AXIS2_PLACEMENT_3D('',#654,#563,#564);
#446=AXIS2_PLACEMENT_3D('',#656,#565,#566);
#447=AXIS2_PLACEMENT_3D('',#658,#567,#568);
#448=AXIS2_PLACEMENT_3D('',#659,#569,#570);
#449=DIRECTION('',(0.,0.,1.));
#450=DIRECTION('',(1.,0.,0.));
#451=DIRECTION('',(0.,0.,-1.));
#452=DIRECTION('',(-1.,0.,0.));
#453=DIRECTION('',(0.,0.,1.));
#454=DIRECTION('',(1.,0.,0.));
#455=DIRECTION('',(0.,0.,1.));
#456=DIRECTION('',(1.,0.,0.));
#457=DIRECTION('',(0.,0.,-1.));
#458=DIRECTION('',(-1.,0.,0.));
#459=DIRECTION('',(0.,0.,1.));
#460=DIRECTION('',(1.,0.,0.));
#461=DIRECTION('',(0.,0.,1.));
#462=DIRECTION('',(1.,0.,0.));
#463=DIRECTION('',(0.,0.,1.));
#464=DIRECTION('',(1.,0.,0.));
#465=DIRECTION('',(0.,0.,1.));
#466=DIRECTION('',(1.,0.,0.));
#467=DIRECTION('',(0.,0.,1.));
#468=DIRECTION('',(1.,0.,0.));
#469=DIRECTION('',(0.,0.,-1.));
#470=DIRECTION('',(-1.,0.,0.));
#471=DIRECTION('',(0.,0.,1.));
#472=DIRECTION('',(1.,0.,0.));
#473=DIRECTION('',(0.,0.,1.));
#474=DIRECTION('',(1.,0.,0.));
#475=DIRECTION('',(0.,0.,1.));
#476=DIRECTION('',(1.,0.,0.));
#477=DIRECTION('',(0.,0.,-1.));
#478=DIRECTION('',(-1.,0.,0.));
#479=DIRECTION('',(0.,0.,1.));
#480=DIRECTION('',(1.,0.,0.));
#481=DIRECTION('',(0.,0.,1.));
#482=DIRECTION('',(1.,0.,0.));
#483=DIRECTION('',(0.,0.,-1.));
#484=DIRECTION('',(-1.,0.,0.));
#485=DIRECTION('',(0.,0.,1.));
#486=DIRECTION('',(1.,0.,0.));
#487=DIRECTION('',(0.,0.,1.));
#488=DIRECTION('',(1.,0.,0.));
#489=DIRECTION('',(0.,0.,1.));
#490=DIRECTION('',(1.,0.,0.));
#491=DIRECTION('',(0.,0.,1.));
#492=DIRECTION('',(1.,0.,0.));
#493=DIRECTION('',(0.,0.,1.));
#494=DIRECTION('',(1.,0.,0.));
#495=DIRECTION('',(0.,0.,-1.));
#496=DIRECTION('',(-1.,0.,0.));
#497=DIRECTION('',(0.,0.,1.));
#498=DIRECTION('',(1.,0.,0.));
#499=DIRECTION('',(0.,0.,1.));
#500=DIRECTION('',(1.,0.,0.));
#501=DIRECTION('',(0.,0.,1.));
#502=DIRECTION('',(1.,0.,0.));
#503=DIRECTION('',(0.,0.,-1.));
#504=DIRECTION('',(-1.,0.,0.));
#505=DIRECTION('',(0.,0.,-1.));
#506=DIRECTION('',(1.,0.,0.));
#507=DIRECTION('',(0.,0.,-1.));
#508=DIRECTION('',(1.,0.,0.));
#509=DIRECTION('',(0.,0.,-1.));
#510=DIRECTION('',(-1.,0.,0.));
#511=DIRECTION('',(0.,0.,-1.));
#512=DIRECTION('',(1.,0.,0.));
#513=DIRECTION('',(0.,0.,-1.));
#514=DIRECTION('',(1.,0.,0.));
#515=DIRECTION('',(0.,0.,1.));
#516=DIRECTION('',(1.,0.,0.));
#517=DIRECTION('',(0.,0.,1.));
#518=DIRECTION('',(1.,0.,0.));
#519=DIRECTION('',(0.,0.,-1.));
#520=DIRECTION('',(1.,0.,0.));
#521=DIRECTION('',(0.,0.,-1.));
#522=DIRECTION('',(-1.,0.,0.));
#523=DIRECTION('',(0.,0.,-1.));
#524=DIRECTION('',(1.,0.,0.));
#525=DIRECTION('',(0.,0.,1.));
#526=DIRECTION('',(1.,0.,0.));
#527=DIRECTION('',(0.,0.,1.));
#528=DIRECTION('',(1.,0.,0.));
#529=DIRECTION('',(0.,0.,-1.));
#530=DIRECTION('',(-1.,0.,0.));
#531=DIRECTION('',(0.,0.,-1.));
#532=DIRECTION('',(1.,0.,0.));
#533=DIRECTION('',(0.,0.,-1.));
#534=DIRECTION('',(1.,0.,0.));
#535=DIRECTION('',(0.,0.,-1.));
#536=DIRECTION('',(-1.,0.,0.));
#537=DIRECTION('',(0.,0.,-1.));
#538=DIRECTION('',(1.,0.,0.));
#539=DIRECTION('',(0.,0.,-1.));
#540=DIRECTION('',(1.,0.,0.));
#541=DIRECTION('',(0.,0.,1.));
#542=DIRECTION('',(1.,0.,0.));
#543=DIRECTION('',(0.,0.,1.));
#544=DIRECTION('',(1.,0.,0.));
#545=DIRECTION('',(0.,0.,-1.));
#546=DIRECTION('',(1.,0.,0.));
#547=DIRECTION('',(0.,0.,-1.));
#548=DIRECTION('',(-1.,0.,0.));
#549=DIRECTION('',(0.,0.,-1.));
#550=DIRECTION('',(1.,0.,0.));
#551=DIRECTION('',(0.,0.,1.));
#552=DIRECTION('',(1.,0.,0.));
#553=DIRECTION('',(0.,0.,1.));
#554=DIRECTION('',(1.,0.,0.));
#555=DIRECTION('',(0.,1.,0.));
#556=DIRECTION('',(0.,0.,1.));
#557=DIRECTION('',(0.,-1.,0.));
#558=DIRECTION('',(0.,0.,-1.));
#559=DIRECTION('',(0.,-1.,0.));
#560=DIRECTION('',(0.,0.,-1.));
#561=DIRECTION('',(0.,1.,0.));
#562=DIRECTION('',(0.,0.,1.));
#563=DIRECTION('',(0.,-1.,0.));
#564=DIRECTION('',(0.,0.,-1.));
#565=DIRECTION('',(0.,-1.,0.));
#566=DIRECTION('',(0.,0.,-1.));
#567=DIRECTION('',(0.,-1.,0.));
#568=DIRECTION('',(1.,0.,0.));
#569=DIRECTION('',(0.,-1.,0.));
#570=DIRECTION('',(1.,0.,0.));
#571=CARTESIAN_POINT('',(0.,0.,0.));
#572=CARTESIAN_POINT('',(-0.045,0.03,0.005));
#573=CARTESIAN_POINT('',(-0.045,0.03,0.003));
#574=CARTESIAN_POINT('',(-0.04,0.03,0.003));
#575=CARTESIAN_POINT('',(-0.045,0.03,0.005));
#576=CARTESIAN_POINT('',(-0.04,0.03,0.005));
#577=CARTESIAN_POINT('',(-0.045,0.03,0.005));
#578=CARTESIAN_POINT('',(-0.045,0.03,0.005));
#579=CARTESIAN_POINT('',(-0.037,0.03,0.005));
#580=CARTESIAN_POINT('',(-0.045,0.03,0.));
#581=CARTESIAN_POINT('',(-0.037,0.03,0.));
#582=CARTESIAN_POINT('',(0.,0.,0.005));
#583=CARTESIAN_POINT('',(0.,0.,0.));
#584=CARTESIAN_POINT('',(-0.045,0.03,0.));
#585=CARTESIAN_POINT('',(-0.0425,0.03,0.));
#586=CARTESIAN_POINT('',(-0.045,0.03,0.003));
#587=CARTESIAN_POINT('',(-0.045,0.03,0.003));
#588=CARTESIAN_POINT('',(-0.0425,0.03,0.003));
#589=CARTESIAN_POINT('',(0.,0.,0.003));
#590=CARTESIAN_POINT('',(0.,0.,0.));
#591=CARTESIAN_POINT('',(0.045,-0.03,0.005));
#592=CARTESIAN_POINT('',(0.045,-0.03,0.003));
#593=CARTESIAN_POINT('',(0.05,-0.03,0.003));
#594=CARTESIAN_POINT('',(0.045,-0.03,0.005));
#595=CARTESIAN_POINT('',(0.05,-0.03,0.005));
#596=CARTESIAN_POINT('',(0.045,-0.03,0.005));
#597=CARTESIAN_POINT('',(0.045,-0.03,0.005));
#598=CARTESIAN_POINT('',(0.053,-0.03,0.005));
#599=CARTESIAN_POINT('',(0.045,-0.03,0.));
#600=CARTESIAN_POINT('',(0.053,-0.03,0.));
#601=CARTESIAN_POINT('',(0.,0.,0.005));
#602=CARTESIAN_POINT('',(0.,0.,0.));
#603=CARTESIAN_POINT('',(0.045,-0.03,0.));
#604=CARTESIAN_POINT('',(0.0475,-0.03,0.));
#605=CARTESIAN_POINT('',(0.045,-0.03,0.003));
#606=CARTESIAN_POINT('',(0.045,-0.03,0.003));
#607=CARTESIAN_POINT('',(0.0475,-0.03,0.003));
#608=CARTESIAN_POINT('',(0.,0.,0.003));
#609=CARTESIAN_POINT('',(0.,0.,0.));
#610=CARTESIAN_POINT('',(-0.045,-0.03,0.005));
#611=CARTESIAN_POINT('',(-0.045,-0.03,0.005));
#612=CARTESIAN_POINT('',(-0.037,-0.03,0.005));
#613=CARTESIAN_POINT('',(-0.045,-0.03,0.));
#614=CARTESIAN_POINT('',(-0.037,-0.03,0.));
#615=CARTESIAN_POINT('',(-0.045,-0.03,0.005));
#616=CARTESIAN_POINT('',(-0.045,-0.03,0.003));
#617=CARTESIAN_POINT('',(-0.04,-0.03,0.003));
#618=CARTESIAN_POINT('',(-0.045,-0.03,0.005));
#619=CARTESIAN_POINT('',(-0.04,-0.03,0.005));
#620=CARTESIAN_POINT('',(0.,0.,0.005));
#621=CARTESIAN_POINT('',(0.,0.,0.));
#622=CARTESIAN_POINT('',(-0.045,-0.03,0.));
#623=CARTESIAN_POINT('',(-0.0425,-0.03,0.));
#624=CARTESIAN_POINT('',(-0.045,-0.03,0.003));
#625=CARTESIAN_POINT('',(-0.045,-0.03,0.003));
#626=CARTESIAN_POINT('',(-0.0425,-0.03,0.003));
#627=CARTESIAN_POINT('',(0.,0.,0.003));
#628=CARTESIAN_POINT('',(0.,0.,0.));
#629=CARTESIAN_POINT('',(0.045,0.03,0.005));
#630=CARTESIAN_POINT('',(0.045,0.03,0.005));
#631=CARTESIAN_POINT('',(0.053,0.03,0.005));
#632=CARTESIAN_POINT('',(0.045,0.03,0.));
#633=CARTESIAN_POINT('',(0.053,0.03,0.));
#634=CARTESIAN_POINT('',(0.045,0.03,0.005));
#635=CARTESIAN_POINT('',(0.045,0.03,0.003));
#636=CARTESIAN_POINT('',(0.05,0.03,0.003));
#637=CARTESIAN_POINT('',(0.045,0.03,0.005));
#638=CARTESIAN_POINT('',(0.05,0.03,0.005));
#639=CARTESIAN_POINT('',(0.,0.,0.005));
#640=CARTESIAN_POINT('',(0.,0.,0.));
#641=CARTESIAN_POINT('',(0.045,0.03,0.));
#642=CARTESIAN_POINT('',(0.0475,0.03,0.));
#643=CARTESIAN_POINT('',(0.045,0.03,0.003));
#644=CARTESIAN_POINT('',(0.045,0.03,0.003));
#645=CARTESIAN_POINT('',(0.0475,0.03,0.003));
#646=CARTESIAN_POINT('',(0.,0.,0.003));
#647=CARTESIAN_POINT('',(0.,0.,0.));
#648=CARTESIAN_POINT('',(0.,-0.02,0.035));
#649=CARTESIAN_POINT('',(0.,-0.02,0.035));
#650=CARTESIAN_POINT('',(0.,-0.02,0.03));
#651=CARTESIAN_POINT('',(0.,0.02,0.035));
#652=CARTESIAN_POINT('',(0.,0.02,0.03));
#653=CARTESIAN_POINT('',(-2.03583068647101E-18,-0.02,0.035));
#654=CARTESIAN_POINT('',(-2.03583068647101E-18,-0.02,0.035));
#655=CARTESIAN_POINT('',(-2.03583068647101E-18,-0.02,0.027));
#656=CARTESIAN_POINT('',(-2.03583068647101E-18,0.02,0.035));
#657=CARTESIAN_POINT('',(-2.03583068647101E-18,0.02,0.027));
#658=CARTESIAN_POINT('',(0.,-0.02,0.0215));
#659=CARTESIAN_POINT('',(0.,0.02,0.0215));
#660=MECHANICAL_DESIGN_GEOMETRIC_PRESENTATION_REPRESENTATION('',(#333),
#665);
#661=MECHANICAL_DESIGN_GEOMETRIC_PRESENTATION_REPRESENTATION('',(#334),
#666);
#662=MECHANICAL_DESIGN_GEOMETRIC_PRESENTATION_REPRESENTATION('',(#335),
#667);
#663=MECHANICAL_DESIGN_GEOMETRIC_PRESENTATION_REPRESENTATION('',(#336),
#668);
#664=MECHANICAL_DESIGN_GEOMETRIC_PRESENTATION_REPRESENTATION('',(#337),
#669);
#665=(
GEOMETRIC_REPRESENTATION_CONTEXT(3)
GLOBAL_UNCERTAINTY_ASSIGNED_CONTEXT((#670))
GLOBAL_UNIT_ASSIGNED_CONTEXT((#685,#680,#675))
REPRESENTATION_CONTEXT('Part 1','TOP_LEVEL_ASSEMBLY_PART')
);
#666=(
GEOMETRIC_REPRESENTATION_CONTEXT(3)
GLOBAL_UNCERTAINTY_ASSIGNED_CONTEXT((#671))
GLOBAL_UNIT_ASSIGNED_CONTEXT((#686,#681,#676))
REPRESENTATION_CONTEXT('Part 4','TOP_LEVEL_ASSEMBLY_PART')
);
#667=(
GEOMETRIC_REPRESENTATION_CONTEXT(3)
GLOBAL_UNCERTAINTY_ASSIGNED_CONTEXT((#672))
GLOBAL_UNIT_ASSIGNED_CONTEXT((#687,#682,#677))
REPRESENTATION_CONTEXT('Part 2','TOP_LEVEL_ASSEMBLY_PART')
);
#668=(
GEOMETRIC_REPRESENTATION_CONTEXT(3)
GLOBAL_UNCERTAINTY_ASSIGNED_CONTEXT((#673))
GLOBAL_UNIT_ASSIGNED_CONTEXT((#688,#683,#678))
REPRESENTATION_CONTEXT('Part 3','TOP_LEVEL_ASSEMBLY_PART')
);
#669=(
GEOMETRIC_REPRESENTATION_CONTEXT(3)
GLOBAL_UNCERTAINTY_ASSIGNED_CONTEXT((#674))
GLOBAL_UNIT_ASSIGNED_CONTEXT((#689,#684,#679))
REPRESENTATION_CONTEXT('Part 5','TOP_LEVEL_ASSEMBLY_PART')
);
#670=UNCERTAINTY_MEASURE_WITH_UNIT(LENGTH_MEASURE(1.E-8),#685,
'DISTANCE_ACCURACY_VALUE','Maximum Tolerance applied to model');
#671=UNCERTAINTY_MEASURE_WITH_UNIT(LENGTH_MEASURE(1.E-8),#686,
'DISTANCE_ACCURACY_VALUE','Maximum Tolerance applied to model');
#672=UNCERTAINTY_MEASURE_WITH_UNIT(LENGTH_MEASURE(1.E-8),#687,
'DISTANCE_ACCURACY_VALUE','Maximum Tolerance applied to model');
#673=UNCERTAINTY_MEASURE_WITH_UNIT(LENGTH_MEASURE(1.E-8),#688,
'DISTANCE_ACCURACY_VALUE','Maximum Tolerance applied to model');
#674=UNCERTAINTY_MEASURE_WITH_UNIT(LENGTH_MEASURE(1.E-8),#689,
'DISTANCE_ACCURACY_VALUE','Maximum Tolerance applied to model');
#675=(
NAMED_UNIT(*)
SI_UNIT($,.STERADIAN.)
SOLID_ANGLE_UNIT()
);
#676=(
NAMED_UNIT(*)
SI_UNIT($,.STERADIAN.)
SOLID_ANGLE_UNIT()
);
#677=(
NAMED_UNIT(*)
SI_UNIT($,.STERADIAN.)
SOLID_ANGLE_UNIT()
);
#678=(
NAMED_UNIT(*)
SI_UNIT($,.STERADIAN.)
SOLID_ANGLE_UNIT()
);
#679=(
NAMED_UNIT(*)
SI_UNIT($,.STERADIAN.)
SOLID_ANGLE_UNIT()
);
#680=(
NAMED_UNIT(*)
PLANE_ANGLE_UNIT()
SI_UNIT($,.RADIAN.)
);
#681=(
NAMED_UNIT(*)
PLANE_ANGLE_UNIT()
SI_UNIT($,.RADIAN.)
);
#682=(
NAMED_UNIT(*)
PLANE_ANGLE_UNIT()
SI_UNIT($,.RADIAN.)
);
#683=(
NAMED_UNIT(*)
PLANE_ANGLE_UNIT()
SI_UNIT($,.RADIAN.)
);
#684=(
NAMED_UNIT(*)
PLANE_ANGLE_UNIT()
SI_UNIT($,.RADIAN.)
);
#685=(
LENGTH_UNIT()
NAMED_UNIT(*)
SI_UNIT($,.METRE.)
);
#686=(
LENGTH_UNIT()
NAMED_UNIT(*)
SI_UNIT($,.METRE.)
);
#687=(
LENGTH_UNIT()
NAMED_UNIT(*)
SI_UNIT($,.METRE.)
);
#688=(
LENGTH_UNIT()
NAMED_UNIT(*)
SI_UNIT($,.METRE.)
);
#689=(
LENGTH_UNIT()
NAMED_UNIT(*)
SI_UNIT($,.METRE.)
);
#690=PRODUCT_DEFINITION_SHAPE('','',#695);
#691=PRODUCT_DEFINITION_SHAPE('','',#696);
#692=PRODUCT_DEFINITION_SHAPE('','',#697);
#693=PRODUCT_DEFINITION_SHAPE('','',#698);
#694=PRODUCT_DEFINITION_SHAPE('','',#699);
#695=PRODUCT_DEFINITION('','',#705,#700);
#696=PRODUCT_DEFINITION('','',#706,#701);
#697=PRODUCT_DEFINITION('','',#707,#702);
#698=PRODUCT_DEFINITION('','',#708,#703);
#699=PRODUCT_DEFINITION('','',#709,#704);
#700=PRODUCT_DEFINITION_CONTEXT('',#735,'design');
#701=PRODUCT_DEFINITION_CONTEXT('',#736,'design');
#702=PRODUCT_DEFINITION_CONTEXT('',#737,'design');
#703=PRODUCT_DEFINITION_CONTEXT('',#738,'design');
#704=PRODUCT_DEFINITION_CONTEXT('',#739,'design');
#705=PRODUCT_DEFINITION_FORMATION_WITH_SPECIFIED_SOURCE('','',#715,
 .NOT_KNOWN.);
#706=PRODUCT_DEFINITION_FORMATION_WITH_SPECIFIED_SOURCE('','',#716,
 .NOT_KNOWN.);
#707=PRODUCT_DEFINITION_FORMATION_WITH_SPECIFIED_SOURCE('','',#717,
 .NOT_KNOWN.);
#708=PRODUCT_DEFINITION_FORMATION_WITH_SPECIFIED_SOURCE('','',#718,
 .NOT_KNOWN.);
#709=PRODUCT_DEFINITION_FORMATION_WITH_SPECIFIED_SOURCE('','',#719,
 .NOT_KNOWN.);
#710=PRODUCT_RELATED_PRODUCT_CATEGORY('','',(#715));
#711=PRODUCT_RELATED_PRODUCT_CATEGORY('','',(#716));
#712=PRODUCT_RELATED_PRODUCT_CATEGORY('','',(#717));
#713=PRODUCT_RELATED_PRODUCT_CATEGORY('','',(#718));
#714=PRODUCT_RELATED_PRODUCT_CATEGORY('','',(#719));
#715=PRODUCT('Part 1','Part 1','Part 1',(#725));
#716=PRODUCT('Part 4','Part 4','Part 4',(#726));
#717=PRODUCT('Part 2','Part 2','Part 2',(#727));
#718=PRODUCT('Part 3','Part 3','Part 3',(#728));
#719=PRODUCT('Part 5','Part 5','Part 5',(#729));
#720=PRODUCT_CATEGORY('','');
#721=PRODUCT_CATEGORY('','');
#722=PRODUCT_CATEGORY('','');
#723=PRODUCT_CATEGORY('','');
#724=PRODUCT_CATEGORY('','');
#725=PRODUCT_CONTEXT('',#735,'mechanical');
#726=PRODUCT_CONTEXT('',#736,'mechanical');
#727=PRODUCT_CONTEXT('',#737,'mechanical');
#728=PRODUCT_CONTEXT('',#738,'mechanical');
#729=PRODUCT_CONTEXT('',#739,'mechanical');
#730=APPLICATION_PROTOCOL_DEFINITION('international standard',
'ap242_managed_model_based_3d_engineering',2020,#735);
#731=APPLICATION_PROTOCOL_DEFINITION('international standard',
'ap242_managed_model_based_3d_engineering',2020,#736);
#732=APPLICATION_PROTOCOL_DEFINITION('international standard',
'ap242_managed_model_based_3d_engineering',2020,#737);
#733=APPLICATION_PROTOCOL_DEFINITION('international standard',
'ap242_managed_model_based_3d_engineering',2020,#738);
#734=APPLICATION_PROTOCOL_DEFINITION('international standard',
'ap242_managed_model_based_3d_engineering',2020,#739);
#735=APPLICATION_CONTEXT('managed model based 3d engineering');
#736=APPLICATION_CONTEXT('managed model based 3d engineering');
#737=APPLICATION_CONTEXT('managed model based 3d engineering');
#738=APPLICATION_CONTEXT('managed model based 3d engineering');
#739=APPLICATION_CONTEXT('managed model based 3d engineering');
ENDSEC;
END-ISO-10303-21;
