ISO-10303-21;
HEADER;
/* Generated by software containing ST-Developer
 * from STEP Tools, Inc. (www.steptools.com) 
 */
/* OPTION: using custom renumber hook */

FILE_DESCRIPTION(
/* description */ ('STEP AP242 Edition 2',
'CAx-IF Rec.Pracs.---Representation and Presentation of Product Manufa
cturing Information (PMI)---4.0---2014-10-13',
'CAx-IF Rec.Pracs.---3D Tessellated Geometry---0.4---2014-09-14','2;1',
'CAx-IF Rec.Pracs.---User Defined Attributes---1.5---2016-08-15'),
/* implementation_level */ '2;1');

FILE_NAME(
/* name */ 'Part Studio 1 - base',
/* time_stamp */ '2026-06-13T11:15:44Z',
/* author */ (''),
/* organization */ (''),
/* preprocessor_version */ 'ST-DEVELOPER v20',
/* originating_system */ 'ONSHAPE BY PTC INC, 1.216',
/* authorisation */ '  ');

FILE_SCHEMA (('AP242_MANAGED_MODEL_BASED_3D_ENGINEERING_MIM_LF { 1 0 10303 442 3 1 4 }'));
ENDSEC;

DATA;
#10=SHAPE_REPRESENTATION_RELATIONSHIP('','',#351,#11);
#11=ADVANCED_BREP_SHAPE_REPRESENTATION('',(#349),#589);
#12=CIRCLE('',#355,0.005);
#13=CIRCLE('',#356,0.005);
#14=CIRCLE('',#359,0.005);
#15=CIRCLE('',#360,0.005);
#16=CIRCLE('',#363,0.005);
#17=CIRCLE('',#364,0.005);
#18=CIRCLE('',#367,0.00105);
#19=CIRCLE('',#368,0.00105);
#20=CIRCLE('',#370,0.00105);
#21=CIRCLE('',#371,0.00105);
#22=CIRCLE('',#373,0.00105);
#23=CIRCLE('',#374,0.00105);
#24=CIRCLE('',#376,0.00105);
#25=CIRCLE('',#377,0.00105);
#26=CIRCLE('',#379,0.00105);
#27=CIRCLE('',#380,0.00105);
#28=CIRCLE('',#382,0.00105);
#29=CIRCLE('',#383,0.00105);
#30=CIRCLE('',#385,0.00105);
#31=CIRCLE('',#386,0.00105);
#32=CIRCLE('',#388,0.00105);
#33=CIRCLE('',#389,0.00105);
#34=CIRCLE('',#391,0.005);
#35=CIRCLE('',#392,0.005);
#36=CYLINDRICAL_SURFACE('',#354,0.005);
#37=CYLINDRICAL_SURFACE('',#358,0.005);
#38=CYLINDRICAL_SURFACE('',#362,0.005);
#39=CYLINDRICAL_SURFACE('',#366,0.00105);
#40=CYLINDRICAL_SURFACE('',#369,0.00105);
#41=CYLINDRICAL_SURFACE('',#372,0.00105);
#42=CYLINDRICAL_SURFACE('',#375,0.00105);
#43=CYLINDRICAL_SURFACE('',#378,0.00105);
#44=CYLINDRICAL_SURFACE('',#381,0.00105);
#45=CYLINDRICAL_SURFACE('',#384,0.00105);
#46=CYLINDRICAL_SURFACE('',#387,0.00105);
#47=CYLINDRICAL_SURFACE('',#390,0.005);
#48=ORIENTED_EDGE('',*,*,#128,.F.);
#49=ORIENTED_EDGE('',*,*,#129,.F.);
#50=ORIENTED_EDGE('',*,*,#130,.T.);
#51=ORIENTED_EDGE('',*,*,#131,.T.);
#52=ORIENTED_EDGE('',*,*,#132,.F.);
#53=ORIENTED_EDGE('',*,*,#131,.F.);
#54=ORIENTED_EDGE('',*,*,#133,.T.);
#55=ORIENTED_EDGE('',*,*,#134,.T.);
#56=ORIENTED_EDGE('',*,*,#135,.F.);
#57=ORIENTED_EDGE('',*,*,#134,.F.);
#58=ORIENTED_EDGE('',*,*,#136,.T.);
#59=ORIENTED_EDGE('',*,*,#137,.T.);
#60=ORIENTED_EDGE('',*,*,#138,.F.);
#61=ORIENTED_EDGE('',*,*,#137,.F.);
#62=ORIENTED_EDGE('',*,*,#139,.T.);
#63=ORIENTED_EDGE('',*,*,#140,.T.);
#64=ORIENTED_EDGE('',*,*,#141,.T.);
#65=ORIENTED_EDGE('',*,*,#140,.F.);
#66=ORIENTED_EDGE('',*,*,#142,.F.);
#67=ORIENTED_EDGE('',*,*,#143,.T.);
#68=ORIENTED_EDGE('',*,*,#144,.F.);
#69=ORIENTED_EDGE('',*,*,#143,.F.);
#70=ORIENTED_EDGE('',*,*,#145,.T.);
#71=ORIENTED_EDGE('',*,*,#146,.T.);
#72=ORIENTED_EDGE('',*,*,#147,.T.);
#73=ORIENTED_EDGE('',*,*,#146,.F.);
#74=ORIENTED_EDGE('',*,*,#148,.F.);
#75=ORIENTED_EDGE('',*,*,#149,.T.);
#76=ORIENTED_EDGE('',*,*,#150,.F.);
#77=ORIENTED_EDGE('',*,*,#151,.T.);
#78=ORIENTED_EDGE('',*,*,#152,.F.);
#79=ORIENTED_EDGE('',*,*,#153,.T.);
#80=ORIENTED_EDGE('',*,*,#154,.F.);
#81=ORIENTED_EDGE('',*,*,#155,.T.);
#82=ORIENTED_EDGE('',*,*,#156,.F.);
#83=ORIENTED_EDGE('',*,*,#157,.T.);
#84=ORIENTED_EDGE('',*,*,#158,.F.);
#85=ORIENTED_EDGE('',*,*,#159,.T.);
#86=ORIENTED_EDGE('',*,*,#160,.F.);
#87=ORIENTED_EDGE('',*,*,#161,.T.);
#88=ORIENTED_EDGE('',*,*,#162,.F.);
#89=ORIENTED_EDGE('',*,*,#163,.T.);
#90=ORIENTED_EDGE('',*,*,#164,.F.);
#91=ORIENTED_EDGE('',*,*,#165,.T.);
#92=ORIENTED_EDGE('',*,*,#166,.F.);
#93=ORIENTED_EDGE('',*,*,#149,.F.);
#94=ORIENTED_EDGE('',*,*,#167,.T.);
#95=ORIENTED_EDGE('',*,*,#129,.T.);
#96=ORIENTED_EDGE('',*,*,#164,.T.);
#97=ORIENTED_EDGE('',*,*,#162,.T.);
#98=ORIENTED_EDGE('',*,*,#160,.T.);
#99=ORIENTED_EDGE('',*,*,#158,.T.);
#100=ORIENTED_EDGE('',*,*,#156,.T.);
#101=ORIENTED_EDGE('',*,*,#154,.T.);
#102=ORIENTED_EDGE('',*,*,#152,.T.);
#103=ORIENTED_EDGE('',*,*,#150,.T.);
#104=ORIENTED_EDGE('',*,*,#130,.F.);
#105=ORIENTED_EDGE('',*,*,#167,.F.);
#106=ORIENTED_EDGE('',*,*,#148,.T.);
#107=ORIENTED_EDGE('',*,*,#145,.F.);
#108=ORIENTED_EDGE('',*,*,#142,.T.);
#109=ORIENTED_EDGE('',*,*,#139,.F.);
#110=ORIENTED_EDGE('',*,*,#136,.F.);
#111=ORIENTED_EDGE('',*,*,#133,.F.);
#112=ORIENTED_EDGE('',*,*,#165,.F.);
#113=ORIENTED_EDGE('',*,*,#163,.F.);
#114=ORIENTED_EDGE('',*,*,#161,.F.);
#115=ORIENTED_EDGE('',*,*,#159,.F.);
#116=ORIENTED_EDGE('',*,*,#157,.F.);
#117=ORIENTED_EDGE('',*,*,#155,.F.);
#118=ORIENTED_EDGE('',*,*,#153,.F.);
#119=ORIENTED_EDGE('',*,*,#151,.F.);
#120=ORIENTED_EDGE('',*,*,#128,.T.);
#121=ORIENTED_EDGE('',*,*,#132,.T.);
#122=ORIENTED_EDGE('',*,*,#135,.T.);
#123=ORIENTED_EDGE('',*,*,#138,.T.);
#124=ORIENTED_EDGE('',*,*,#141,.F.);
#125=ORIENTED_EDGE('',*,*,#144,.T.);
#126=ORIENTED_EDGE('',*,*,#147,.F.);
#127=ORIENTED_EDGE('',*,*,#166,.T.);
#128=EDGE_CURVE('',#168,#169,#200,.T.);
#129=EDGE_CURVE('',#170,#168,#201,.T.);
#130=EDGE_CURVE('',#170,#171,#202,.T.);
#131=EDGE_CURVE('',#171,#169,#203,.T.);
#132=EDGE_CURVE('',#169,#172,#12,.T.);
#133=EDGE_CURVE('',#171,#173,#13,.T.);
#134=EDGE_CURVE('',#173,#172,#204,.T.);
#135=EDGE_CURVE('',#172,#174,#205,.T.);
#136=EDGE_CURVE('',#173,#175,#206,.T.);
#137=EDGE_CURVE('',#175,#174,#207,.T.);
#138=EDGE_CURVE('',#174,#176,#14,.T.);
#139=EDGE_CURVE('',#175,#177,#15,.T.);
#140=EDGE_CURVE('',#177,#176,#208,.T.);
#141=EDGE_CURVE('',#178,#176,#209,.T.);
#142=EDGE_CURVE('',#179,#177,#210,.T.);
#143=EDGE_CURVE('',#179,#178,#211,.T.);
#144=EDGE_CURVE('',#178,#180,#16,.T.);
#145=EDGE_CURVE('',#179,#181,#17,.T.);
#146=EDGE_CURVE('',#181,#180,#212,.T.);
#147=EDGE_CURVE('',#182,#180,#213,.T.);
#148=EDGE_CURVE('',#183,#181,#214,.T.);
#149=EDGE_CURVE('',#183,#182,#215,.T.);
#150=EDGE_CURVE('',#184,#184,#18,.T.);
#151=EDGE_CURVE('',#185,#185,#19,.T.);
#152=EDGE_CURVE('',#186,#186,#20,.T.);
#153=EDGE_CURVE('',#187,#187,#21,.T.);
#154=EDGE_CURVE('',#188,#188,#22,.T.);
#155=EDGE_CURVE('',#189,#189,#23,.T.);
#156=EDGE_CURVE('',#190,#190,#24,.T.);
#157=EDGE_CURVE('',#191,#191,#25,.T.);
#158=EDGE_CURVE('',#192,#192,#26,.T.);
#159=EDGE_CURVE('',#193,#193,#27,.T.);
#160=EDGE_CURVE('',#194,#194,#28,.T.);
#161=EDGE_CURVE('',#195,#195,#29,.T.);
#162=EDGE_CURVE('',#196,#196,#30,.T.);
#163=EDGE_CURVE('',#197,#197,#31,.T.);
#164=EDGE_CURVE('',#198,#198,#32,.T.);
#165=EDGE_CURVE('',#199,#199,#33,.T.);
#166=EDGE_CURVE('',#182,#168,#34,.T.);
#167=EDGE_CURVE('',#183,#170,#35,.T.);
#168=VERTEX_POINT('',#500);
#169=VERTEX_POINT('',#501);
#170=VERTEX_POINT('',#503);
#171=VERTEX_POINT('',#505);
#172=VERTEX_POINT('',#509);
#173=VERTEX_POINT('',#511);
#174=VERTEX_POINT('',#515);
#175=VERTEX_POINT('',#517);
#176=VERTEX_POINT('',#521);
#177=VERTEX_POINT('',#523);
#178=VERTEX_POINT('',#527);
#179=VERTEX_POINT('',#529);
#180=VERTEX_POINT('',#533);
#181=VERTEX_POINT('',#535);
#182=VERTEX_POINT('',#539);
#183=VERTEX_POINT('',#541);
#184=VERTEX_POINT('',#545);
#185=VERTEX_POINT('',#547);
#186=VERTEX_POINT('',#550);
#187=VERTEX_POINT('',#552);
#188=VERTEX_POINT('',#555);
#189=VERTEX_POINT('',#557);
#190=VERTEX_POINT('',#560);
#191=VERTEX_POINT('',#562);
#192=VERTEX_POINT('',#565);
#193=VERTEX_POINT('',#567);
#194=VERTEX_POINT('',#570);
#195=VERTEX_POINT('',#572);
#196=VERTEX_POINT('',#575);
#197=VERTEX_POINT('',#577);
#198=VERTEX_POINT('',#580);
#199=VERTEX_POINT('',#582);
#200=LINE('',#499,#216);
#201=LINE('',#502,#217);
#202=LINE('',#504,#218);
#203=LINE('',#506,#219);
#204=LINE('',#512,#220);
#205=LINE('',#514,#221);
#206=LINE('',#516,#222);
#207=LINE('',#518,#223);
#208=LINE('',#524,#224);
#209=LINE('',#526,#225);
#210=LINE('',#528,#226);
#211=LINE('',#530,#227);
#212=LINE('',#536,#228);
#213=LINE('',#538,#229);
#214=LINE('',#540,#230);
#215=LINE('',#542,#231);
#216=VECTOR('',#399,1.);
#217=VECTOR('',#400,1.);
#218=VECTOR('',#401,1.);
#219=VECTOR('',#402,1.);
#220=VECTOR('',#409,1.);
#221=VECTOR('',#412,1.);
#222=VECTOR('',#413,1.);
#223=VECTOR('',#414,1.);
#224=VECTOR('',#421,1.);
#225=VECTOR('',#424,1.);
#226=VECTOR('',#425,1.);
#227=VECTOR('',#426,1.);
#228=VECTOR('',#433,1.);
#229=VECTOR('',#436,1.);
#230=VECTOR('',#437,1.);
#231=VECTOR('',#438,1.);
#232=EDGE_LOOP('',(#48,#49,#50,#51));
#233=EDGE_LOOP('',(#52,#53,#54,#55));
#234=EDGE_LOOP('',(#56,#57,#58,#59));
#235=EDGE_LOOP('',(#60,#61,#62,#63));
#236=EDGE_LOOP('',(#64,#65,#66,#67));
#237=EDGE_LOOP('',(#68,#69,#70,#71));
#238=EDGE_LOOP('',(#72,#73,#74,#75));
#239=EDGE_LOOP('',(#76));
#240=EDGE_LOOP('',(#77));
#241=EDGE_LOOP('',(#78));
#242=EDGE_LOOP('',(#79));
#243=EDGE_LOOP('',(#80));
#244=EDGE_LOOP('',(#81));
#245=EDGE_LOOP('',(#82));
#246=EDGE_LOOP('',(#83));
#247=EDGE_LOOP('',(#84));
#248=EDGE_LOOP('',(#85));
#249=EDGE_LOOP('',(#86));
#250=EDGE_LOOP('',(#87));
#251=EDGE_LOOP('',(#88));
#252=EDGE_LOOP('',(#89));
#253=EDGE_LOOP('',(#90));
#254=EDGE_LOOP('',(#91));
#255=EDGE_LOOP('',(#92,#93,#94,#95));
#256=EDGE_LOOP('',(#96));
#257=EDGE_LOOP('',(#97));
#258=EDGE_LOOP('',(#98));
#259=EDGE_LOOP('',(#99));
#260=EDGE_LOOP('',(#100));
#261=EDGE_LOOP('',(#101));
#262=EDGE_LOOP('',(#102));
#263=EDGE_LOOP('',(#103));
#264=EDGE_LOOP('',(#104,#105,#106,#107,#108,#109,#110,#111));
#265=EDGE_LOOP('',(#112));
#266=EDGE_LOOP('',(#113));
#267=EDGE_LOOP('',(#114));
#268=EDGE_LOOP('',(#115));
#269=EDGE_LOOP('',(#116));
#270=EDGE_LOOP('',(#117));
#271=EDGE_LOOP('',(#118));
#272=EDGE_LOOP('',(#119));
#273=EDGE_LOOP('',(#120,#121,#122,#123,#124,#125,#126,#127));
#274=FACE_BOUND('',#232,.T.);
#275=FACE_BOUND('',#233,.T.);
#276=FACE_BOUND('',#234,.T.);
#277=FACE_BOUND('',#235,.T.);
#278=FACE_BOUND('',#236,.T.);
#279=FACE_BOUND('',#237,.T.);
#280=FACE_BOUND('',#238,.T.);
#281=FACE_BOUND('',#239,.T.);
#282=FACE_BOUND('',#240,.T.);
#283=FACE_BOUND('',#241,.T.);
#284=FACE_BOUND('',#242,.T.);
#285=FACE_BOUND('',#243,.T.);
#286=FACE_BOUND('',#244,.T.);
#287=FACE_BOUND('',#245,.T.);
#288=FACE_BOUND('',#246,.T.);
#289=FACE_BOUND('',#247,.T.);
#290=FACE_BOUND('',#248,.T.);
#291=FACE_BOUND('',#249,.T.);
#292=FACE_BOUND('',#250,.T.);
#293=FACE_BOUND('',#251,.T.);
#294=FACE_BOUND('',#252,.T.);
#295=FACE_BOUND('',#253,.T.);
#296=FACE_BOUND('',#254,.T.);
#297=FACE_BOUND('',#255,.T.);
#298=FACE_BOUND('',#256,.T.);
#299=FACE_BOUND('',#257,.T.);
#300=FACE_BOUND('',#258,.T.);
#301=FACE_BOUND('',#259,.T.);
#302=FACE_BOUND('',#260,.T.);
#303=FACE_BOUND('',#261,.T.);
#304=FACE_BOUND('',#262,.T.);
#305=FACE_BOUND('',#263,.T.);
#306=FACE_BOUND('',#264,.T.);
#307=FACE_BOUND('',#265,.T.);
#308=FACE_BOUND('',#266,.T.);
#309=FACE_BOUND('',#267,.T.);
#310=FACE_BOUND('',#268,.T.);
#311=FACE_BOUND('',#269,.T.);
#312=FACE_BOUND('',#270,.T.);
#313=FACE_BOUND('',#271,.T.);
#314=FACE_BOUND('',#272,.T.);
#315=FACE_BOUND('',#273,.T.);
#316=PLANE('',#353);
#317=PLANE('',#357);
#318=PLANE('',#361);
#319=PLANE('',#365);
#320=PLANE('',#393);
#321=PLANE('',#394);
#322=ADVANCED_FACE('',(#274),#316,.T.);
#323=ADVANCED_FACE('',(#275),#36,.T.);
#324=ADVANCED_FACE('',(#276),#317,.T.);
#325=ADVANCED_FACE('',(#277),#37,.T.);
#326=ADVANCED_FACE('',(#278),#318,.F.);
#327=ADVANCED_FACE('',(#279),#38,.T.);
#328=ADVANCED_FACE('',(#280),#319,.F.);
#329=ADVANCED_FACE('',(#281,#282),#39,.F.);
#330=ADVANCED_FACE('',(#283,#284),#40,.F.);
#331=ADVANCED_FACE('',(#285,#286),#41,.F.);
#332=ADVANCED_FACE('',(#287,#288),#42,.F.);
#333=ADVANCED_FACE('',(#289,#290),#43,.F.);
#334=ADVANCED_FACE('',(#291,#292),#44,.F.);
#335=ADVANCED_FACE('',(#293,#294),#45,.F.);
#336=ADVANCED_FACE('',(#295,#296),#46,.F.);
#337=ADVANCED_FACE('',(#297),#47,.T.);
#338=ADVANCED_FACE('',(#298,#299,#300,#301,#302,#303,#304,#305,#306),#320,
 .F.);
#339=ADVANCED_FACE('',(#307,#308,#309,#310,#311,#312,#313,#314,#315),#321,
 .T.);
#340=CLOSED_SHELL('',(#322,#323,#324,#325,#326,#327,#328,#329,#330,#331,
#332,#333,#334,#335,#336,#337,#338,#339));
#341=STYLED_ITEM('',(#342),#349);
#342=PRESENTATION_STYLE_ASSIGNMENT((#343));
#343=SURFACE_STYLE_USAGE(.BOTH.,#344);
#344=SURFACE_SIDE_STYLE('',(#345));
#345=SURFACE_STYLE_FILL_AREA(#346);
#346=FILL_AREA_STYLE('',(#347));
#347=FILL_AREA_STYLE_COLOUR('',#348);
#348=COLOUR_RGB('',0.498039215686275,0.498039215686275,0.498039215686275);
#349=MANIFOLD_SOLID_BREP('base',#340);
#350=SHAPE_DEFINITION_REPRESENTATION(#594,#351);
#351=SHAPE_REPRESENTATION('base',(#352),#589);
#352=AXIS2_PLACEMENT_3D('',#497,#395,#396);
#353=AXIS2_PLACEMENT_3D('',#498,#397,#398);
#354=AXIS2_PLACEMENT_3D('',#507,#403,#404);
#355=AXIS2_PLACEMENT_3D('',#508,#405,#406);
#356=AXIS2_PLACEMENT_3D('',#510,#407,#408);
#357=AXIS2_PLACEMENT_3D('',#513,#410,#411);
#358=AXIS2_PLACEMENT_3D('',#519,#415,#416);
#359=AXIS2_PLACEMENT_3D('',#520,#417,#418);
#360=AXIS2_PLACEMENT_3D('',#522,#419,#420);
#361=AXIS2_PLACEMENT_3D('',#525,#422,#423);
#362=AXIS2_PLACEMENT_3D('',#531,#427,#428);
#363=AXIS2_PLACEMENT_3D('',#532,#429,#430);
#364=AXIS2_PLACEMENT_3D('',#534,#431,#432);
#365=AXIS2_PLACEMENT_3D('',#537,#434,#435);
#366=AXIS2_PLACEMENT_3D('',#543,#439,#440);
#367=AXIS2_PLACEMENT_3D('',#544,#441,#442);
#368=AXIS2_PLACEMENT_3D('',#546,#443,#444);
#369=AXIS2_PLACEMENT_3D('',#548,#445,#446);
#370=AXIS2_PLACEMENT_3D('',#549,#447,#448);
#371=AXIS2_PLACEMENT_3D('',#551,#449,#450);
#372=AXIS2_PLACEMENT_3D('',#553,#451,#452);
#373=AXIS2_PLACEMENT_3D('',#554,#453,#454);
#374=AXIS2_PLACEMENT_3D('',#556,#455,#456);
#375=AXIS2_PLACEMENT_3D('',#558,#457,#458);
#376=AXIS2_PLACEMENT_3D('',#559,#459,#460);
#377=AXIS2_PLACEMENT_3D('',#561,#461,#462);
#378=AXIS2_PLACEMENT_3D('',#563,#463,#464);
#379=AXIS2_PLACEMENT_3D('',#564,#465,#466);
#380=AXIS2_PLACEMENT_3D('',#566,#467,#468);
#381=AXIS2_PLACEMENT_3D('',#568,#469,#470);
#382=AXIS2_PLACEMENT_3D('',#569,#471,#472);
#383=AXIS2_PLACEMENT_3D('',#571,#473,#474);
#384=AXIS2_PLACEMENT_3D('',#573,#475,#476);
#385=AXIS2_PLACEMENT_3D('',#574,#477,#478);
#386=AXIS2_PLACEMENT_3D('',#576,#479,#480);
#387=AXIS2_PLACEMENT_3D('',#578,#481,#482);
#388=AXIS2_PLACEMENT_3D('',#579,#483,#484);
#389=AXIS2_PLACEMENT_3D('',#581,#485,#486);
#390=AXIS2_PLACEMENT_3D('',#583,#487,#488);
#391=AXIS2_PLACEMENT_3D('',#584,#489,#490);
#392=AXIS2_PLACEMENT_3D('',#585,#491,#492);
#393=AXIS2_PLACEMENT_3D('',#586,#493,#494);
#394=AXIS2_PLACEMENT_3D('',#587,#495,#496);
#395=DIRECTION('',(0.,0.,1.));
#396=DIRECTION('',(1.,0.,0.));
#397=DIRECTION('',(-1.,0.,0.));
#398=DIRECTION('',(0.,1.,0.));
#399=DIRECTION('',(0.,0.,1.));
#400=DIRECTION('',(0.,1.,0.));
#401=DIRECTION('',(0.,0.,1.));
#402=DIRECTION('',(0.,1.,0.));
#403=DIRECTION('',(0.,1.,0.));
#404=DIRECTION('',(1.,0.,0.));
#405=DIRECTION('',(0.,1.,0.));
#406=DIRECTION('',(1.,0.,0.));
#407=DIRECTION('',(0.,1.,0.));
#408=DIRECTION('',(1.,0.,0.));
#409=DIRECTION('',(0.,1.,0.));
#410=DIRECTION('',(0.,0.,1.));
#411=DIRECTION('',(0.,-1.,0.));
#412=DIRECTION('',(1.,0.,0.));
#413=DIRECTION('',(1.,0.,0.));
#414=DIRECTION('',(0.,1.,0.));
#415=DIRECTION('',(0.,1.,0.));
#416=DIRECTION('',(1.,0.,0.));
#417=DIRECTION('',(0.,1.,0.));
#418=DIRECTION('',(1.,0.,0.));
#419=DIRECTION('',(0.,1.,0.));
#420=DIRECTION('',(1.,0.,0.));
#421=DIRECTION('',(0.,1.,0.));
#422=DIRECTION('',(-1.,0.,0.));
#423=DIRECTION('',(0.,1.,0.));
#424=DIRECTION('',(0.,0.,1.));
#425=DIRECTION('',(0.,0.,1.));
#426=DIRECTION('',(0.,1.,0.));
#427=DIRECTION('',(0.,1.,0.));
#428=DIRECTION('',(1.,0.,0.));
#429=DIRECTION('',(0.,1.,0.));
#430=DIRECTION('',(1.,0.,0.));
#431=DIRECTION('',(0.,1.,0.));
#432=DIRECTION('',(1.,0.,0.));
#433=DIRECTION('',(0.,1.,0.));
#434=DIRECTION('',(0.,0.,1.));
#435=DIRECTION('',(0.,-1.,0.));
#436=DIRECTION('',(1.,0.,0.));
#437=DIRECTION('',(1.,0.,0.));
#438=DIRECTION('',(0.,1.,0.));
#439=DIRECTION('',(0.,1.,0.));
#440=DIRECTION('',(1.,0.,0.));
#441=DIRECTION('',(0.,1.,0.));
#442=DIRECTION('',(1.,0.,0.));
#443=DIRECTION('',(0.,1.,0.));
#444=DIRECTION('',(1.,0.,0.));
#445=DIRECTION('',(0.,1.,0.));
#446=DIRECTION('',(1.,0.,0.));
#447=DIRECTION('',(0.,1.,0.));
#448=DIRECTION('',(1.,0.,0.));
#449=DIRECTION('',(0.,1.,0.));
#450=DIRECTION('',(1.,0.,0.));
#451=DIRECTION('',(0.,1.,0.));
#452=DIRECTION('',(1.,0.,0.));
#453=DIRECTION('',(0.,1.,0.));
#454=DIRECTION('',(1.,0.,0.));
#455=DIRECTION('',(0.,1.,0.));
#456=DIRECTION('',(1.,0.,0.));
#457=DIRECTION('',(0.,1.,0.));
#458=DIRECTION('',(1.,0.,0.));
#459=DIRECTION('',(0.,1.,0.));
#460=DIRECTION('',(1.,0.,0.));
#461=DIRECTION('',(0.,1.,0.));
#462=DIRECTION('',(1.,0.,0.));
#463=DIRECTION('',(0.,1.,0.));
#464=DIRECTION('',(1.,0.,0.));
#465=DIRECTION('',(0.,1.,0.));
#466=DIRECTION('',(1.,0.,0.));
#467=DIRECTION('',(0.,1.,0.));
#468=DIRECTION('',(1.,0.,0.));
#469=DIRECTION('',(0.,1.,0.));
#470=DIRECTION('',(1.,0.,0.));
#471=DIRECTION('',(0.,1.,0.));
#472=DIRECTION('',(1.,0.,0.));
#473=DIRECTION('',(0.,1.,0.));
#474=DIRECTION('',(1.,0.,0.));
#475=DIRECTION('',(0.,1.,0.));
#476=DIRECTION('',(1.,0.,0.));
#477=DIRECTION('',(0.,1.,0.));
#478=DIRECTION('',(1.,0.,0.));
#479=DIRECTION('',(0.,1.,0.));
#480=DIRECTION('',(1.,0.,0.));
#481=DIRECTION('',(0.,1.,0.));
#482=DIRECTION('',(1.,0.,0.));
#483=DIRECTION('',(0.,1.,0.));
#484=DIRECTION('',(1.,0.,0.));
#485=DIRECTION('',(0.,1.,0.));
#486=DIRECTION('',(1.,0.,0.));
#487=DIRECTION('',(0.,1.,0.));
#488=DIRECTION('',(1.,0.,0.));
#489=DIRECTION('',(0.,1.,0.));
#490=DIRECTION('',(1.,0.,0.));
#491=DIRECTION('',(0.,1.,0.));
#492=DIRECTION('',(1.,0.,0.));
#493=DIRECTION('',(0.,1.,0.));
#494=DIRECTION('',(1.,0.,0.));
#495=DIRECTION('',(0.,1.,0.));
#496=DIRECTION('',(1.,0.,0.));
#497=CARTESIAN_POINT('',(0.,0.,0.));
#498=CARTESIAN_POINT('',(-0.148375,-0.028,0.));
#499=CARTESIAN_POINT('',(-0.148375,-0.003,0.));
#500=CARTESIAN_POINT('',(-0.148375,-0.003,-0.048125));
#501=CARTESIAN_POINT('',(-0.148375,-0.003,0.048125));
#502=CARTESIAN_POINT('',(-0.148375,-0.028,-0.048125));
#503=CARTESIAN_POINT('',(-0.148375,-0.028,-0.048125));
#504=CARTESIAN_POINT('',(-0.148375,-0.028,0.));
#505=CARTESIAN_POINT('',(-0.148375,-0.028,0.048125));
#506=CARTESIAN_POINT('',(-0.148375,-0.028,0.048125));
#507=CARTESIAN_POINT('',(-0.143375,-0.028,0.048125));
#508=CARTESIAN_POINT('',(-0.143375,-0.003,0.048125));
#509=CARTESIAN_POINT('',(-0.143375,-0.003,0.053125));
#510=CARTESIAN_POINT('',(-0.143375,-0.028,0.048125));
#511=CARTESIAN_POINT('',(-0.143375,-0.028,0.053125));
#512=CARTESIAN_POINT('',(-0.143375,-0.028,0.053125));
#513=CARTESIAN_POINT('',(0.009525,-0.028,0.053125));
#514=CARTESIAN_POINT('',(0.009525,-0.003,0.053125));
#515=CARTESIAN_POINT('',(0.162425,-0.003,0.053125));
#516=CARTESIAN_POINT('',(0.009525,-0.028,0.053125));
#517=CARTESIAN_POINT('',(0.162425,-0.028,0.053125));
#518=CARTESIAN_POINT('',(0.162425,-0.028,0.053125));
#519=CARTESIAN_POINT('',(0.162425,-0.028,0.048125));
#520=CARTESIAN_POINT('',(0.162425,-0.003,0.048125));
#521=CARTESIAN_POINT('',(0.167425,-0.003,0.048125));
#522=CARTESIAN_POINT('',(0.162425,-0.028,0.048125));
#523=CARTESIAN_POINT('',(0.167425,-0.028,0.048125));
#524=CARTESIAN_POINT('',(0.167425,-0.028,0.048125));
#525=CARTESIAN_POINT('',(0.167425,-0.028,0.));
#526=CARTESIAN_POINT('',(0.167425,-0.003,0.));
#527=CARTESIAN_POINT('',(0.167425,-0.003,-0.048125));
#528=CARTESIAN_POINT('',(0.167425,-0.028,0.));
#529=CARTESIAN_POINT('',(0.167425,-0.028,-0.048125));
#530=CARTESIAN_POINT('',(0.167425,-0.028,-0.048125));
#531=CARTESIAN_POINT('',(0.162425,-0.028,-0.048125));
#532=CARTESIAN_POINT('',(0.162425,-0.003,-0.048125));
#533=CARTESIAN_POINT('',(0.162425,-0.003,-0.053125));
#534=CARTESIAN_POINT('',(0.162425,-0.028,-0.048125));
#535=CARTESIAN_POINT('',(0.162425,-0.028,-0.053125));
#536=CARTESIAN_POINT('',(0.162425,-0.028,-0.053125));
#537=CARTESIAN_POINT('',(0.009525,-0.028,-0.053125));
#538=CARTESIAN_POINT('',(0.009525,-0.003,-0.053125));
#539=CARTESIAN_POINT('',(-0.143375,-0.003,-0.053125));
#540=CARTESIAN_POINT('',(0.009525,-0.028,-0.053125));
#541=CARTESIAN_POINT('',(-0.143375,-0.028,-0.053125));
#542=CARTESIAN_POINT('',(-0.143375,-0.028,-0.053125));
#543=CARTESIAN_POINT('',(-0.144875,-0.028,-0.049625));
#544=CARTESIAN_POINT('',(-0.144875,-0.028,-0.049625));
#545=CARTESIAN_POINT('',(-0.143825,-0.028,-0.049625));
#546=CARTESIAN_POINT('',(-0.144875,-0.003,-0.049625));
#547=CARTESIAN_POINT('',(-0.143825,-0.003,-0.049625));
#548=CARTESIAN_POINT('',(-0.144875,-0.028,0.049625));
#549=CARTESIAN_POINT('',(-0.144875,-0.028,0.049625));
#550=CARTESIAN_POINT('',(-0.143825,-0.028,0.049625));
#551=CARTESIAN_POINT('',(-0.144875,-0.003,0.049625));
#552=CARTESIAN_POINT('',(-0.143825,-0.003,0.049625));
#553=CARTESIAN_POINT('',(0.163925,-0.028,0.049625));
#554=CARTESIAN_POINT('',(0.163925,-0.028,0.049625));
#555=CARTESIAN_POINT('',(0.164975,-0.028,0.049625));
#556=CARTESIAN_POINT('',(0.163925,-0.003,0.049625));
#557=CARTESIAN_POINT('',(0.164975,-0.003,0.049625));
#558=CARTESIAN_POINT('',(0.163925,-0.028,-0.049625));
#559=CARTESIAN_POINT('',(0.163925,-0.028,-0.049625));
#560=CARTESIAN_POINT('',(0.164975,-0.028,-0.049625));
#561=CARTESIAN_POINT('',(0.163925,-0.003,-0.049625));
#562=CARTESIAN_POINT('',(0.164975,-0.003,-0.049625));
#563=CARTESIAN_POINT('',(0.060992,-0.028,-0.049625));
#564=CARTESIAN_POINT('',(0.060992,-0.028,-0.049625));
#565=CARTESIAN_POINT('',(0.062042,-0.028,-0.049625));
#566=CARTESIAN_POINT('',(0.060992,-0.003,-0.049625));
#567=CARTESIAN_POINT('',(0.062042,-0.003,-0.049625));
#568=CARTESIAN_POINT('',(-0.041942,-0.028,0.049625));
#569=CARTESIAN_POINT('',(-0.041942,-0.028,0.049625));
#570=CARTESIAN_POINT('',(-0.040892,-0.028,0.049625));
#571=CARTESIAN_POINT('',(-0.041942,-0.003,0.049625));
#572=CARTESIAN_POINT('',(-0.040892,-0.003,0.049625));
#573=CARTESIAN_POINT('',(0.060992,-0.028,0.049625));
#574=CARTESIAN_POINT('',(0.060992,-0.028,0.049625));
#575=CARTESIAN_POINT('',(0.062042,-0.028,0.049625));
#576=CARTESIAN_POINT('',(0.060992,-0.003,0.049625));
#577=CARTESIAN_POINT('',(0.062042,-0.003,0.049625));
#578=CARTESIAN_POINT('',(-0.041942,-0.028,-0.049625));
#579=CARTESIAN_POINT('',(-0.041942,-0.028,-0.049625));
#580=CARTESIAN_POINT('',(-0.040892,-0.028,-0.049625));
#581=CARTESIAN_POINT('',(-0.041942,-0.003,-0.049625));
#582=CARTESIAN_POINT('',(-0.040892,-0.003,-0.049625));
#583=CARTESIAN_POINT('',(-0.143375,-0.028,-0.048125));
#584=CARTESIAN_POINT('',(-0.143375,-0.003,-0.048125));
#585=CARTESIAN_POINT('',(-0.143375,-0.028,-0.048125));
#586=CARTESIAN_POINT('',(0.009525,-0.028,6.93889390390723E-18));
#587=CARTESIAN_POINT('',(0.009525,-0.003,6.93889390390723E-18));
#588=MECHANICAL_DESIGN_GEOMETRIC_PRESENTATION_REPRESENTATION('',(#341),
#589);
#589=(
GEOMETRIC_REPRESENTATION_CONTEXT(3)
GLOBAL_UNCERTAINTY_ASSIGNED_CONTEXT((#590))
GLOBAL_UNIT_ASSIGNED_CONTEXT((#593,#592,#591))
REPRESENTATION_CONTEXT('base','TOP_LEVEL_ASSEMBLY_PART')
);
#590=UNCERTAINTY_MEASURE_WITH_UNIT(LENGTH_MEASURE(1.E-8),#593,
'DISTANCE_ACCURACY_VALUE','Maximum Tolerance applied to model');
#591=(
NAMED_UNIT(*)
SI_UNIT($,.STERADIAN.)
SOLID_ANGLE_UNIT()
);
#592=(
NAMED_UNIT(*)
PLANE_ANGLE_UNIT()
SI_UNIT($,.RADIAN.)
);
#593=(
LENGTH_UNIT()
NAMED_UNIT(*)
SI_UNIT($,.METRE.)
);
#594=PRODUCT_DEFINITION_SHAPE('','',#595);
#595=PRODUCT_DEFINITION('','',#597,#596);
#596=PRODUCT_DEFINITION_CONTEXT('',#603,'design');
#597=PRODUCT_DEFINITION_FORMATION_WITH_SPECIFIED_SOURCE('','',#599,
 .NOT_KNOWN.);
#598=PRODUCT_RELATED_PRODUCT_CATEGORY('','',(#599));
#599=PRODUCT('base','base','base',(#601));
#600=PRODUCT_CATEGORY('','');
#601=PRODUCT_CONTEXT('',#603,'mechanical');
#602=APPLICATION_PROTOCOL_DEFINITION('international standard',
'ap242_managed_model_based_3d_engineering',2020,#603);
#603=APPLICATION_CONTEXT('managed model based 3d engineering');
ENDSEC;
END-ISO-10303-21;
